{"glyphs":{"0":{"x_min":40,"x_max":816,"ha":856,"o":"m 435 -13 l 435 -13 l 420 -13 l 409.71388888888885 -12.87111111111111 l 399.52222222222224 -12.484444444444446 l 389.425 -11.84 l 379.4222222222223 -10.937777777777779 l 369.5138888888889 -9.777777777777779 l 359.7000000000001 -8.360000000000003 l 349.98055555555555 -6.684444444444444 l 340.3555555555556 -4.751111111111112 l 330.825 -2.5599999999999987 l 321.38888888888897 -0.11111111111111249 l 312.0472222222222 2.5955555555555545 l 302.79999999999995 5.560000000000004 l 293.6472222222222 8.782222222222224 l 284.5888888888889 12.262222222222222 l 275.625 16 l 266.75555555555553 19.995555555555555 l 257.98055555555555 24.248888888888885 l 249.3 28.759999999999998 l 240.7138888888889 33.528888888888886 l 232.22222222222223 38.55555555555556 l 223.82500000000002 43.83999999999999 l 215.52222222222224 49.38222222222221 l 207.31388888888887 55.18222222222224 l 199.2 61.240000000000016 l 191.18055555555554 67.55555555555557 l 183.25555555555553 74.1288888888889 l 175.42499999999998 80.96000000000001 l 167.6888888888889 88.04888888888888 l 160.04722222222222 95.39555555555555 l 152.5 103 l 145.125 110.77833333333332 l 138.00000000000003 118.64666666666666 l 131.125 126.605 l 124.5 134.65333333333334 l 118.12500000000001 142.79166666666666 l 112.00000000000001 151.02000000000004 l 106.125 159.33833333333334 l 100.50000000000003 167.74666666666667 l 95.12499999999999 176.245 l 90.00000000000001 184.83333333333337 l 85.12499999999999 193.51166666666666 l 80.5 202.28 l 76.12499999999999 211.13833333333332 l 72 220.08666666666664 l 68.125 229.125 l 64.5 238.25333333333333 l 61.125 247.47166666666664 l 58.00000000000001 256.78 l 55.12500000000001 266.17833333333334 l 52.50000000000001 275.6666666666667 l 50.125 285.245 l 48 294.9133333333333 l 46.125 304.6716666666667 l 44.5 314.52000000000004 l 43.125 324.45833333333337 l 42 334.4866666666667 l 41.125 344.605 l 40.5 354.81333333333333 l 40.125 365.1116666666666 l 40 375.5 l 40.126666666666665 385.8866666666666 l 40.50666666666667 396.18 l 41.14000000000001 406.38 l 42.02666666666667 416.4866666666667 l 43.16666666666667 426.5 l 44.56000000000001 436.4200000000001 l 46.20666666666666 446.2466666666666 l 48.106666666666676 455.9800000000001 l 50.26 465.61999999999995 l 52.66666666666667 475.1666666666667 l 55.32666666666666 484.6199999999999 l 58.239999999999995 493.98 l 61.406666666666666 503.24666666666667 l 64.82666666666667 512.4200000000001 l 68.5 521.5 l 72.42666666666666 530.4866666666667 l 76.60666666666665 539.3799999999999 l 81.03999999999999 548.18 l 85.72666666666666 556.8866666666667 l 90.66666666666667 565.5 l 95.86 574.02 l 101.30666666666666 582.4466666666667 l 107.00666666666669 590.78 l 112.96000000000001 599.0200000000001 l 119.16666666666667 607.1666666666666 l 125.62666666666667 615.22 l 132.34 623.1800000000001 l 139.30666666666667 631.0466666666667 l 146.52666666666667 638.82 l 154 646.5 l 161.6511111111111 654.0061111111111 l 169.40444444444444 661.2577777777778 l 177.26000000000002 668.2550000000001 l 185.21777777777777 674.9977777777779 l 193.2777777777778 681.4861111111112 l 201.44000000000005 687.7200000000003 l 209.70444444444442 693.6994444444443 l 218.07111111111115 699.4244444444446 l 226.53999999999996 704.895 l 235.11111111111111 710.1111111111112 l 243.78444444444443 715.0727777777778 l 252.56 719.78 l 261.43777777777774 724.2327777777778 l 270.41777777777776 728.431111111111 l 279.5 732.375 l 288.6844444444444 736.0644444444445 l 297.9711111111111 739.4994444444444 l 307.36 742.6800000000001 l 316.8511111111111 745.6061111111111 l 326.44444444444446 748.2777777777778 l 336.14 750.6949999999999 l 345.9377777777778 752.8577777777778 l 355.8377777777778 754.7661111111111 l 365.84000000000003 756.4200000000001 l 375.94444444444446 757.8194444444445 l 386.1511111111111 758.9644444444446 l 396.46 759.855 l 406.87111111111113 760.4911111111111 l 417.3844444444444 760.8727777777777 l 428 761 l 438.6155555555555 760.8733333333332 l 449.1288888888889 760.4933333333333 l 459.54 759.8600000000001 l 469.84888888888895 758.9733333333335 l 480.05555555555566 757.8333333333334 l 490.1600000000001 756.4400000000002 l 500.1622222222222 754.7933333333333 l 510.0622222222223 752.8933333333335 l 519.8599999999999 750.74 l 529.5555555555557 748.3333333333335 l 539.1488888888888 745.6733333333332 l 548.64 742.76 l 558.0288888888889 739.5933333333334 l 567.3155555555555 736.1733333333333 l 576.5 732.5 l 585.5822222222223 728.5733333333334 l 594.5622222222221 724.3933333333332 l 603.44 719.9599999999999 l 612.2155555555555 715.2733333333333 l 620.8888888888889 710.3333333333334 l 629.46 705.14 l 637.9288888888889 699.6933333333334 l 646.2955555555556 693.9933333333333 l 654.5600000000001 688.04 l 662.7222222222223 681.8333333333334 l 670.7822222222223 675.3733333333333 l 678.74 668.66 l 686.5955555555556 661.6933333333334 l 694.348888888889 654.4733333333332 l 702 647 l 709.4733333333334 639.3488888888888 l 716.6933333333334 631.5955555555556 l 723.66 623.7400000000001 l 730.3733333333334 615.7822222222222 l 736.8333333333334 607.7222222222223 l 743.0400000000001 599.5600000000001 l 748.9933333333332 591.2955555555554 l 754.6933333333334 582.9288888888891 l 760.1399999999999 574.46 l 765.3333333333334 565.888888888889 l 770.2733333333333 557.2155555555554 l 774.96 548.44 l 779.3933333333333 539.5622222222222 l 783.5733333333334 530.5822222222222 l 787.5 521.5 l 791.1733333333334 512.3155555555555 l 794.5933333333334 503.02888888888896 l 797.76 493.64 l 800.6733333333334 484.1488888888889 l 803.3333333333333 474.5555555555556 l 805.74 464.86 l 807.8933333333333 455.0622222222222 l 809.7933333333333 445.1622222222222 l 811.44 435.16 l 812.8333333333334 425.0555555555556 l 813.9733333333334 414.84888888888895 l 814.86 404.53999999999996 l 815.4933333333333 394.1288888888889 l 815.8733333333333 383.61555555555555 l 816 373 l 816 373 l 815.9433333333334 366.28 l 815.7733333333333 359.5866666666667 l 815.49 352.92 l 815.0933333333335 346.28000000000003 l 814.5833333333335 339.6666666666667 l 813.9600000000002 333.0800000000001 l 813.2233333333332 326.5199999999999 l 812.3733333333334 319.9866666666667 l 811.41 313.48 l 810.3333333333335 307 l 809.1433333333333 300.5466666666667 l 807.84 294.12000000000006 l 806.4233333333333 287.71999999999997 l 804.8933333333333 281.3466666666667 l 803.25 275 l 801.4933333333333 268.68 l 799.6233333333333 262.38666666666666 l 797.64 256.12 l 795.5433333333333 249.88 l 793.3333333333334 243.66666666666669 l 791.01 237.48 l 788.5733333333333 231.32 l 786.0233333333333 225.18666666666667 l 783.36 219.07999999999998 l 780.5833333333334 213 l 777.6933333333334 206.94666666666666 l 774.69 200.92000000000002 l 771.5733333333334 194.92000000000002 l 768.3433333333334 188.94666666666666 l 765 183 l 761.5583333333334 177.1061111111111 l 758.0333333333334 171.29111111111115 l 754.4250000000001 165.55500000000004 l 750.7333333333333 159.8977777777778 l 746.9583333333335 154.31944444444446 l 743.1000000000001 148.82000000000002 l 739.1583333333332 143.39944444444444 l 735.1333333333334 138.0577777777778 l 731.025 132.795 l 726.8333333333335 127.61111111111111 l 722.5583333333333 122.5061111111111 l 718.1999999999999 117.48 l 713.7583333333333 112.53277777777778 l 709.2333333333333 107.66444444444443 l 704.625 102.875 l 699.9333333333333 98.16444444444444 l 695.1583333333333 93.53277777777777 l 690.3 88.98 l 685.3583333333333 84.50611111111112 l 680.3333333333334 80.11111111111111 l 675.225 75.79500000000002 l 670.0333333333333 71.55777777777779 l 664.7583333333333 67.39944444444444 l 659.4 63.31999999999999 l 653.9583333333334 59.31944444444444 l 648.4333333333334 55.397777777777776 l 642.825 51.55499999999999 l 637.1333333333333 47.79111111111111 l 631.3583333333333 44.106111111111105 l 625.5 40.5 l 619.585 36.992777777777775 l 613.64 33.60444444444445 l 607.6650000000001 30.335 l 601.6600000000001 27.184444444444445 l 595.6250000000001 24.152777777777782 l 589.5600000000001 21.240000000000006 l 583.4649999999999 18.44611111111111 l 577.34 15.771111111111116 l 571.185 13.214999999999998 l 565.0000000000001 10.77777777777778 l 558.785 8.459444444444443 l 552.54 6.26 l 546.265 4.179444444444444 l 539.96 2.217777777777777 l 533.625 0.375 l 527.26 -1.3488888888888884 l 520.865 -2.953888888888888 l 514.44 -4.439999999999999 l 507.985 -5.8072222222222205 l 501.5 -7.055555555555555 l 494.985 -8.184999999999999 l 488.44 -9.195555555555554 l 481.865 -10.087222222222223 l 475.26 -10.860000000000003 l 468.625 -11.51388888888889 l 461.96 -12.04888888888889 l 455.265 -12.465 l 448.53999999999996 -12.762222222222222 l 441.78499999999997 -12.940555555555555 l 435 -13 z m 783 373.5 l 782.8838888888889 383.28666666666663 l 782.5355555555556 392.98 l 781.955 402.58000000000004 l 781.1422222222222 412.0866666666667 l 780.0972222222223 421.50000000000006 l 778.8200000000002 430.8200000000001 l 777.3105555555554 440.0466666666666 l 775.5688888888891 449.18000000000006 l 773.595 458.21999999999997 l 771.3888888888889 467.16666666666674 l 768.9505555555555 476.02 l 766.2800000000001 484.78 l 763.3772222222223 493.44666666666666 l 760.2422222222223 502.02000000000004 l 756.875 510.5 l 753.2755555555556 518.8866666666667 l 749.443888888889 527.18 l 745.38 535.38 l 741.0838888888889 543.4866666666667 l 736.5555555555555 551.5 l 731.7950000000001 559.42 l 726.8022222222222 567.2466666666667 l 721.5772222222222 574.98 l 716.12 582.6200000000001 l 710.4305555555555 590.1666666666667 l 704.5088888888889 597.62 l 698.355 604.98 l 691.9688888888888 612.2466666666667 l 685.3505555555555 619.4200000000001 l 678.5 626.5 l 671.4866666666667 633.4161111111111 l 664.38 640.0977777777779 l 657.1800000000001 646.5450000000001 l 649.8866666666668 652.7577777777778 l 642.5 658.7361111111112 l 635.0200000000001 664.4800000000001 l 627.4466666666666 669.9894444444444 l 619.7800000000001 675.2644444444445 l 612.02 680.305 l 604.1666666666667 685.1111111111112 l 596.2199999999999 689.6827777777777 l 588.18 694.02 l 580.0466666666666 698.1227777777779 l 571.82 701.9911111111112 l 563.5 705.625 l 555.0866666666667 709.0244444444445 l 546.5799999999999 712.1894444444445 l 537.98 715.12 l 529.2866666666666 717.816111111111 l 520.5 720.2777777777778 l 511.62 722.505 l 502.64666666666665 724.4977777777779 l 493.58 726.2561111111111 l 484.4200000000001 727.78 l 475.1666666666667 729.0694444444445 l 465.82 730.1244444444445 l 456.38 730.945 l 446.8466666666667 731.5311111111112 l 437.21999999999997 731.8827777777777 l 427.5 732 l 417.7805555555555 731.8827777777777 l 408.1555555555556 731.5311111111113 l 398.625 730.945 l 389.18888888888887 730.1244444444444 l 379.8472222222223 729.0694444444446 l 370.6000000000001 727.7800000000002 l 361.4472222222222 726.256111111111 l 352.3888888888889 724.4977777777779 l 343.42499999999995 722.5049999999999 l 334.5555555555556 720.2777777777778 l 325.7805555555555 717.816111111111 l 317.09999999999997 715.12 l 308.5138888888889 712.1894444444445 l 300.02222222222224 709.0244444444445 l 291.625 705.625 l 283.3222222222222 701.9911111111111 l 275.1138888888889 698.1227777777779 l 267 694.02 l 258.98055555555555 689.6827777777778 l 251.05555555555557 685.1111111111112 l 243.225 680.3050000000001 l 235.48888888888894 675.2644444444445 l 227.84722222222223 669.9894444444444 l 220.3 664.48 l 212.84722222222223 658.7361111111111 l 205.48888888888888 652.7577777777777 l 198.225 646.545 l 191.05555555555554 640.0977777777778 l 183.98055555555553 633.4161111111111 l 177 626.5 l 170.1822222222222 619.42 l 163.59555555555556 612.2466666666667 l 157.24 604.98 l 151.11555555555557 597.62 l 145.22222222222223 590.1666666666667 l 139.56 582.6200000000001 l 134.1288888888889 574.98 l 128.9288888888889 567.2466666666667 l 123.95999999999998 559.42 l 119.22222222222226 551.5000000000001 l 114.71555555555554 543.4866666666667 l 110.44 535.38 l 106.39555555555555 527.18 l 102.58222222222221 518.8866666666667 l 99 510.5 l 95.64888888888888 502.02000000000004 l 92.52888888888889 493.44666666666666 l 89.64 484.78 l 86.98222222222222 476.02000000000004 l 84.55555555555557 467.1666666666667 l 82.36000000000001 458.22 l 80.39555555555555 449.18 l 78.66222222222223 440.0466666666666 l 77.16 430.82000000000005 l 75.88888888888889 421.5 l 74.8488888888889 412.0866666666667 l 74.03999999999999 402.58000000000004 l 73.46222222222222 392.98 l 73.11555555555555 383.28666666666663 l 73 373.5 l 73.11555555555556 363.7138888888889 l 73.46222222222222 354.02222222222224 l 74.04 344.425 l 74.84888888888888 334.9222222222222 l 75.8888888888889 325.5138888888889 l 77.16000000000001 316.20000000000005 l 78.66222222222221 306.98055555555555 l 80.39555555555557 297.8555555555556 l 82.35999999999999 288.825 l 84.55555555555557 279.8888888888889 l 86.9822222222222 271.0472222222222 l 89.64 262.3 l 92.5288888888889 253.64722222222218 l 95.64888888888888 245.08888888888887 l 99 236.625 l 102.58222222222221 228.25555555555556 l 106.39555555555555 219.98055555555555 l 110.44 211.8 l 114.71555555555554 203.71388888888887 l 119.22222222222223 195.72222222222223 l 123.96 187.82500000000002 l 128.92888888888888 180.02222222222224 l 134.1288888888889 172.31388888888887 l 139.56 164.7 l 145.22222222222223 157.18055555555554 l 151.11555555555557 149.75555555555556 l 157.24 142.425 l 163.59555555555556 135.1888888888889 l 170.1822222222222 128.04722222222222 l 177 121 l 183.98055555555553 114.11666666666667 l 191.05555555555557 107.46666666666667 l 198.22500000000002 101.05 l 205.4888888888889 94.86666666666667 l 212.84722222222223 88.91666666666667 l 220.30000000000004 83.20000000000002 l 227.8472222222222 77.71666666666665 l 235.4888888888889 72.46666666666667 l 243.225 67.44999999999999 l 251.0555555555556 62.66666666666668 l 258.9805555555555 58.11666666666666 l 267 53.8 l 275.11388888888894 49.71666666666666 l 283.32222222222225 45.86666666666667 l 291.625 42.25 l 300.02222222222224 38.86666666666667 l 308.5138888888889 35.71666666666667 l 317.1 32.800000000000004 l 325.78055555555557 30.116666666666667 l 334.55555555555554 27.666666666666668 l 343.42499999999995 25.450000000000003 l 352.38888888888886 23.46666666666667 l 361.44722222222225 21.71666666666666 l 370.6000000000001 20.2 l 379.8472222222223 18.916666666666664 l 389.18888888888887 17.866666666666667 l 398.625 17.05 l 408.15555555555557 16.46666666666667 l 417.7805555555555 16.116666666666667 l 427.5 16 l 437.21999999999997 16.116666666666667 l 446.8466666666667 16.46666666666667 l 456.38000000000005 17.05 l 465.82000000000005 17.866666666666667 l 475.16666666666674 18.916666666666668 l 484.4200000000001 20.200000000000003 l 493.5799999999999 21.716666666666665 l 502.6466666666667 23.46666666666667 l 511.61999999999995 25.449999999999996 l 520.5000000000001 27.666666666666668 l 529.2866666666665 30.11666666666666 l 537.98 32.800000000000004 l 546.5799999999999 35.71666666666667 l 555.0866666666667 38.86666666666667 l 563.5 42.25 l 571.82 45.86666666666667 l 580.0466666666666 49.71666666666666 l 588.1800000000001 53.8 l 596.22 58.11666666666666 l 604.1666666666667 62.66666666666666 l 612.02 67.44999999999999 l 619.78 72.46666666666665 l 627.4466666666667 77.71666666666667 l 635.02 83.20000000000002 l 642.5 88.91666666666667 l 649.8866666666667 94.86666666666667 l 657.1800000000001 101.05000000000001 l 664.38 107.46666666666667 l 671.4866666666667 114.11666666666666 l 678.5 121 l 685.3505555555556 128.04722222222222 l 691.9688888888888 135.1888888888889 l 698.3550000000001 142.425 l 704.5088888888889 149.75555555555556 l 710.4305555555557 157.18055555555557 l 716.1200000000002 164.70000000000002 l 721.5772222222222 172.3138888888889 l 726.8022222222222 180.02222222222224 l 731.7950000000001 187.825 l 736.5555555555557 195.72222222222223 l 741.0838888888889 203.71388888888885 l 745.3799999999999 211.8 l 749.4438888888889 219.98055555555555 l 753.2755555555556 228.25555555555556 l 756.875 236.625 l 760.2422222222223 245.0888888888889 l 763.3772222222223 253.64722222222224 l 766.28 262.3 l 768.9505555555555 271.0472222222222 l 771.3888888888889 279.8888888888889 l 773.595 288.825 l 775.568888888889 297.85555555555555 l 777.3105555555555 306.98055555555555 l 778.82 316.20000000000005 l 780.0972222222223 325.5138888888889 l 781.1422222222222 334.9222222222222 l 781.9549999999999 344.425 l 782.5355555555556 354.02222222222224 l 782.8838888888888 363.71388888888885 l 783 373.5 z"},"1":{"x_min":15,"x_max":166,"ha":241,"o":"m 166 0 l 133 0 l 133 719 l 15 719 l 15 748 l 166 748 l 166 0 z"},"2":{"x_min":30,"x_max":589,"ha":637,"o":"m 556 480 l 556 480 l 555.9266666666667 486.7044444444444 l 555.7066666666667 493.35111111111115 l 555.34 499.94 l 554.8266666666667 506.47111111111116 l 554.1666666666667 512.9444444444445 l 553.3600000000001 519.3600000000001 l 552.4066666666666 525.7177777777778 l 551.3066666666667 532.0177777777778 l 550.06 538.2599999999999 l 548.6666666666667 544.4444444444445 l 547.1266666666666 550.571111111111 l 545.4399999999999 556.64 l 543.6066666666667 562.6511111111112 l 541.6266666666667 568.6044444444445 l 539.5 574.5 l 537.2266666666667 580.3377777777778 l 534.8066666666666 586.1177777777777 l 532.24 591.84 l 529.5266666666666 597.5044444444445 l 526.6666666666667 603.1111111111111 l 523.66 608.66 l 520.5066666666667 614.151111111111 l 517.2066666666667 619.5844444444444 l 513.76 624.96 l 510.1666666666667 630.2777777777778 l 506.4266666666667 635.5377777777778 l 502.54 640.74 l 498.5066666666667 645.8844444444445 l 494.3266666666666 650.971111111111 l 490 656 l 485.5522222222222 660.9166666666666 l 481.0088888888889 665.6666666666667 l 476.37 670.25 l 471.63555555555564 674.6666666666667 l 466.8055555555556 678.9166666666667 l 461.8800000000001 683.0000000000001 l 456.8588888888888 686.9166666666666 l 451.74222222222227 690.6666666666667 l 446.53 694.2499999999999 l 441.2222222222223 697.6666666666667 l 435.81888888888886 700.9166666666666 l 430.32 704 l 424.7255555555555 706.9166666666666 l 419.03555555555556 709.6666666666666 l 413.25 712.25 l 407.36888888888893 714.6666666666666 l 401.39222222222224 716.9166666666666 l 395.32 719 l 389.15222222222224 720.9166666666666 l 382.8888888888889 722.6666666666667 l 376.53 724.25 l 370.0755555555556 725.6666666666667 l 363.52555555555557 726.9166666666667 l 356.88 728 l 350.1388888888889 728.9166666666667 l 343.3022222222222 729.6666666666667 l 336.37 730.25 l 329.34222222222223 730.6666666666666 l 322.21888888888884 730.9166666666666 l 315 731 l 307.77388888888885 730.9127777777777 l 300.62888888888887 730.651111111111 l 293.565 730.215 l 286.58222222222224 729.6044444444445 l 279.68055555555554 728.8194444444446 l 272.86000000000007 727.8600000000001 l 266.1205555555555 726.726111111111 l 259.46222222222224 725.4177777777778 l 252.88499999999993 723.935 l 246.38888888888894 722.2777777777778 l 239.97388888888887 720.446111111111 l 233.64 718.4399999999999 l 227.3872222222222 716.2594444444444 l 221.21555555555554 713.9044444444445 l 215.125 711.375 l 209.11555555555557 708.6711111111111 l 203.1872222222222 705.7927777777777 l 197.34 702.74 l 191.57388888888892 699.5127777777777 l 185.8888888888889 696.1111111111111 l 180.28500000000003 692.5350000000001 l 174.76222222222225 688.7844444444445 l 169.32055555555556 684.8594444444445 l 163.95999999999998 680.76 l 158.68055555555554 676.4861111111111 l 153.48222222222222 672.0377777777778 l 148.365 667.4150000000001 l 143.32888888888888 662.6177777777779 l 138.3738888888889 657.6461111111112 l 133.5 652.5 l 128.74722222222223 647.2294444444444 l 124.15555555555557 641.8844444444445 l 119.72500000000001 636.4650000000001 l 115.45555555555556 630.9711111111112 l 111.34722222222223 625.4027777777779 l 107.4 619.7600000000001 l 103.61388888888888 614.0427777777777 l 99.98888888888891 608.2511111111113 l 96.52499999999999 602.385 l 93.22222222222223 596.4444444444446 l 90.08055555555555 590.4294444444444 l 87.1 584.3399999999999 l 84.28055555555555 578.1761111111111 l 81.62222222222222 571.9377777777778 l 79.125 565.625 l 76.78888888888889 559.2377777777778 l 74.61388888888888 552.7761111111112 l 72.6 546.24 l 70.74722222222223 539.6294444444445 l 69.05555555555556 532.9444444444445 l 67.525 526.185 l 66.15555555555557 519.3511111111111 l 64.94722222222222 512.4427777777778 l 63.9 505.46000000000004 l 63.013888888888886 498.4027777777778 l 62.28888888888889 491.27111111111117 l 61.725 484.065 l 61.32222222222222 476.7844444444445 l 61.08055555555555 469.4294444444444 l 61 462 l 61 462 l 30 462 l 30.09111111111111 470.41999999999996 l 30.364444444444448 478.7466666666667 l 30.820000000000004 486.98 l 31.45777777777778 495.12000000000006 l 32.277777777777786 503.1666666666667 l 33.28 511.12000000000006 l 34.464444444444446 518.9799999999999 l 35.83111111111111 526.7466666666668 l 37.379999999999995 534.42 l 39.111111111111114 542 l 41.02444444444444 549.4866666666667 l 43.12 556.88 l 45.397777777777776 564.18 l 47.857777777777784 571.3866666666667 l 50.5 578.5 l 53.324444444444445 585.52 l 56.331111111111106 592.4466666666666 l 59.519999999999996 599.28 l 62.89111111111111 606.02 l 66.44444444444444 612.6666666666666 l 70.17999999999999 619.22 l 74.09777777777778 625.6800000000001 l 78.19777777777777 632.0466666666666 l 82.48 638.32 l 86.94444444444446 644.5 l 91.59111111111112 650.5866666666667 l 96.42 656.58 l 101.43111111111111 662.48 l 106.62444444444444 668.2866666666666 l 112 674 l 117.51166666666667 679.5722222222222 l 123.11333333333334 684.9555555555556 l 128.805 690.1500000000001 l 134.58666666666667 695.1555555555556 l 140.45833333333334 699.9722222222223 l 146.42000000000002 704.6000000000001 l 152.4716666666667 709.0388888888889 l 158.61333333333334 713.288888888889 l 164.84500000000003 717.3499999999999 l 171.16666666666666 721.2222222222223 l 177.57833333333332 724.9055555555555 l 184.08 728.4000000000001 l 190.67166666666668 731.7055555555555 l 197.35333333333335 734.8222222222223 l 204.125 737.75 l 210.98666666666668 740.4888888888889 l 217.93833333333333 743.0388888888888 l 224.98 745.4000000000001 l 232.11166666666668 747.5722222222223 l 239.33333333333331 749.5555555555557 l 246.64499999999998 751.35 l 254.04666666666668 752.9555555555556 l 261.53833333333336 754.3722222222223 l 269.12 755.6000000000001 l 276.7916666666667 756.6388888888889 l 284.55333333333334 757.4888888888888 l 292.405 758.1500000000001 l 300.3466666666667 758.6222222222223 l 308.37833333333333 758.9055555555556 l 316.5 759 l 324.6138888888889 758.9077777777777 l 332.62222222222226 758.6311111111112 l 340.525 758.1700000000001 l 348.32222222222225 757.5244444444444 l 356.0138888888889 756.6944444444446 l 363.6000000000001 755.6800000000001 l 371.0805555555555 754.481111111111 l 378.45555555555563 753.097777777778 l 385.72499999999997 751.53 l 392.8888888888889 749.7777777777778 l 399.9472222222222 747.841111111111 l 406.9 745.72 l 413.7472222222222 743.4144444444445 l 420.48888888888894 740.9244444444445 l 427.125 738.25 l 433.65555555555557 735.3911111111111 l 440.0805555555555 732.3477777777778 l 446.4 729.12 l 452.6138888888889 725.7077777777778 l 458.7222222222222 722.1111111111111 l 464.725 718.3299999999999 l 470.62222222222226 714.3644444444444 l 476.4138888888889 710.2144444444444 l 482.1 705.8800000000001 l 487.6805555555556 701.3611111111111 l 493.15555555555557 696.6577777777777 l 498.525 691.77 l 503.7888888888889 686.6977777777778 l 508.9472222222222 681.4411111111111 l 514 676 l 518.9166666666666 670.4322222222222 l 523.6666666666666 664.7955555555557 l 528.25 659.09 l 532.6666666666666 653.3155555555556 l 536.9166666666667 647.4722222222223 l 541.0000000000001 641.5600000000001 l 544.9166666666666 635.5788888888889 l 548.6666666666667 629.528888888889 l 552.25 623.41 l 555.6666666666667 617.2222222222223 l 558.9166666666666 610.9655555555555 l 562 604.64 l 564.9166666666666 598.2455555555555 l 567.6666666666667 591.7822222222222 l 570.25 585.25 l 572.6666666666667 578.6488888888889 l 574.9166666666666 571.9788888888888 l 577 565.24 l 578.9166666666667 558.4322222222222 l 580.6666666666667 551.5555555555557 l 582.25 544.61 l 583.6666666666667 537.5955555555556 l 584.9166666666667 530.5122222222222 l 586 523.36 l 586.9166666666667 516.1388888888889 l 587.6666666666667 508.84888888888884 l 588.25 501.49 l 588.6666666666666 494.0622222222222 l 588.9166666666666 486.56555555555553 l 589 479 l 589 479 l 588.8033333333333 468.06 l 588.2133333333334 457.24 l 587.23 446.53999999999996 l 585.8533333333335 435.96 l 584.0833333333334 425.50000000000006 l 581.9200000000002 415.1600000000001 l 579.3633333333333 404.94 l 576.4133333333334 394.84000000000003 l 573.07 384.85999999999996 l 569.3333333333335 375.00000000000006 l 565.2033333333333 365.26 l 560.6800000000001 355.64 l 555.7633333333333 346.13999999999993 l 550.4533333333334 336.76000000000005 l 544.75 327.5 l 538.6533333333333 318.35999999999996 l 532.1633333333334 309.34 l 525.28 300.44 l 518.0033333333333 291.65999999999997 l 510.33333333333337 283 l 502.27 274.46000000000004 l 493.8133333333334 266.04 l 484.96333333333337 257.74 l 475.72 249.56 l 466.08333333333337 241.5 l 456.0533333333333 233.56 l 445.63 225.74 l 434.8133333333333 218.04000000000002 l 423.6033333333333 210.46 l 412 203 l 412 203 l 140 33 l 586 33 l 586 0 l 36 0 l 385 221 l 396.21000000000004 228.24777777777777 l 407.04 235.59111111111113 l 417.49000000000007 243.03000000000003 l 427.56000000000006 250.56444444444446 l 437.25000000000006 258.19444444444446 l 446.56000000000006 265.92 l 455.48999999999995 273.7411111111111 l 464.04 281.6577777777778 l 472.21 289.67 l 480.00000000000006 297.77777777777777 l 487.40999999999997 305.9811111111111 l 494.44000000000005 314.28 l 501.09 322.6744444444444 l 507.36 331.1644444444444 l 513.25 339.75 l 518.76 348.43111111111114 l 523.8900000000001 357.2077777777778 l 528.64 366.08 l 533.01 375.0477777777778 l 537 384.1111111111111 l 540.6099999999999 393.27 l 543.84 402.5244444444444 l 546.69 411.87444444444446 l 549.1600000000001 421.32000000000005 l 551.25 430.86111111111114 l 552.96 440.4977777777778 l 554.29 450.23 l 555.24 460.0577777777778 l 555.8100000000001 469.9811111111111 l 556 480 z"},"3":{"x_min":30,"x_max":544,"ha":589,"o":"m 544 242 l 544 242 l 543.9161111111111 235.035 l 543.6644444444444 228.14000000000001 l 543.245 221.315 l 542.6577777777778 214.56000000000003 l 541.9027777777778 207.87500000000003 l 540.9800000000001 201.26000000000002 l 539.8894444444444 194.71499999999997 l 538.6311111111112 188.24000000000004 l 537.2049999999999 181.83499999999998 l 535.6111111111112 175.5 l 533.8494444444443 169.23499999999999 l 531.9200000000001 163.04 l 529.8227777777777 156.91499999999996 l 527.5577777777778 150.85999999999999 l 525.125 144.875 l 522.5244444444444 138.96 l 519.7561111111111 133.115 l 516.82 127.33999999999999 l 513.7161111111111 121.635 l 510.44444444444446 116 l 507.005 110.435 l 503.39777777777783 104.94000000000003 l 499.6227777777778 99.51499999999999 l 495.68 94.16 l 491.56944444444446 88.875 l 487.29111111111115 83.66 l 482.845 78.515 l 478.23111111111115 73.44 l 473.44944444444445 68.435 l 468.5 63.5 l 463.43277777777774 58.681666666666665 l 458.2977777777778 54.02666666666667 l 453.095 49.535000000000004 l 447.82444444444445 45.20666666666667 l 442.4861111111112 41.04166666666667 l 437.08000000000004 37.040000000000006 l 431.60611111111103 33.20166666666667 l 426.0644444444445 29.526666666666674 l 420.455 26.014999999999997 l 414.7777777777778 22.666666666666675 l 409.03277777777777 19.481666666666666 l 403.21999999999997 16.459999999999997 l 397.33944444444444 13.601666666666665 l 391.3911111111112 10.906666666666666 l 385.375 8.375 l 379.29111111111115 6.006666666666668 l 373.13944444444445 3.801666666666667 l 366.92 1.7600000000000025 l 360.6327777777778 -0.11833333333333051 l 354.2777777777778 -1.8333333333333321 l 347.855 -3.384999999999998 l 341.3644444444445 -4.773333333333332 l 334.80611111111114 -5.998333333333335 l 328.18 -7.060000000000002 l 321.4861111111111 -7.958333333333335 l 314.72444444444443 -8.693333333333335 l 307.895 -9.265 l 300.9977777777778 -9.673333333333334 l 294.03277777777777 -9.918333333333333 l 287 -10 l 279.9672222222222 -9.921111111111111 l 273.00222222222226 -9.684444444444445 l 266.105 -9.290000000000003 l 259.27555555555557 -8.737777777777778 l 252.51388888888889 -8.027777777777779 l 245.82000000000005 -7.160000000000001 l 239.19388888888886 -6.134444444444444 l 232.6355555555556 -4.951111111111113 l 226.14499999999998 -3.6099999999999994 l 219.72222222222229 -2.1111111111111116 l 213.36722222222218 -0.45444444444444443 l 207.07999999999998 1.360000000000003 l 200.86055555555558 3.3322222222222244 l 194.7088888888889 5.462222222222222 l 188.625 7.75 l 182.6088888888889 10.195555555555558 l 176.66055555555556 12.798888888888884 l 170.78 15.56 l 164.96722222222223 18.47888888888889 l 159.22222222222223 21.555555555555554 l 153.54500000000002 24.789999999999996 l 147.93555555555557 28.18222222222222 l 142.39388888888888 31.732222222222227 l 136.92000000000002 35.440000000000005 l 131.51388888888889 39.30555555555556 l 126.17555555555555 43.3288888888889 l 120.905 47.510000000000005 l 115.70222222222223 51.84888888888889 l 110.56722222222221 56.34555555555555 l 105.5 61 l 100.55055555555555 65.76444444444444 l 95.76888888888891 70.59111111111112 l 91.15500000000002 75.48 l 86.7088888888889 80.43111111111112 l 82.43055555555556 85.44444444444446 l 78.32000000000001 90.52000000000001 l 74.37722222222222 95.65777777777777 l 70.60222222222224 100.85777777777778 l 66.99499999999999 106.12 l 63.55555555555557 111.44444444444446 l 60.28388888888888 116.8311111111111 l 57.17999999999999 122.28 l 54.24388888888888 127.79111111111112 l 51.47555555555556 133.36444444444444 l 48.875 139 l 46.44222222222223 144.6977777777778 l 44.17722222222222 150.45777777777778 l 42.08 156.28 l 40.150555555555556 162.16444444444443 l 38.388888888888886 168.11111111111111 l 36.795 174.12 l 35.36888888888889 180.1911111111111 l 34.11055555555555 186.32444444444445 l 33.019999999999996 192.52000000000004 l 32.09722222222222 198.7777777777778 l 31.342222222222222 205.0977777777778 l 30.755 211.48000000000002 l 30.33555555555556 217.92444444444448 l 30.083888888888886 224.4311111111111 l 30 231 l 30 231 l 30 252 l 61 252 l 61 236 l 61.07277777777778 229.96388888888887 l 61.291111111111114 223.9888888888889 l 61.655 218.07500000000002 l 62.164444444444456 212.22222222222226 l 62.81944444444444 206.43055555555557 l 63.62000000000001 200.70000000000002 l 64.5661111111111 195.03055555555554 l 65.65777777777778 189.42222222222225 l 66.895 183.875 l 68.27777777777779 178.3888888888889 l 69.80611111111111 172.96388888888887 l 71.48 167.6 l 73.29944444444445 162.29722222222222 l 75.26444444444445 157.05555555555557 l 77.375 151.875 l 79.63111111111111 146.75555555555556 l 82.03277777777777 141.69722222222222 l 84.58 136.7 l 87.27277777777778 131.7638888888889 l 90.11111111111111 126.88888888888889 l 93.095 122.07500000000002 l 96.22444444444443 117.32222222222224 l 99.49944444444446 112.63055555555556 l 102.92000000000002 108 l 106.48611111111111 103.43055555555554 l 110.19777777777779 98.92222222222222 l 114.055 94.475 l 118.05777777777777 90.08888888888889 l 122.2061111111111 85.76388888888889 l 126.5 81.5 l 130.8972222222222 77.33722222222221 l 135.35555555555558 73.31555555555555 l 139.875 69.435 l 144.45555555555558 65.69555555555556 l 149.09722222222223 62.09722222222223 l 153.80000000000004 58.640000000000015 l 158.5638888888889 55.32388888888888 l 163.3888888888889 52.1488888888889 l 168.275 49.114999999999995 l 173.22222222222223 46.22222222222223 l 178.23055555555553 43.470555555555556 l 183.3 40.86000000000001 l 188.43055555555557 38.39055555555556 l 193.6222222222222 36.062222222222225 l 198.875 33.875 l 204.18888888888887 31.828888888888887 l 209.56388888888887 29.92388888888889 l 215 28.160000000000004 l 220.4972222222222 26.537222222222223 l 226.05555555555554 25.055555555555557 l 231.675 23.715000000000003 l 237.35555555555555 22.515555555555558 l 243.09722222222223 21.45722222222222 l 248.90000000000003 20.54 l 254.7638888888889 19.76388888888889 l 260.6888888888889 19.128888888888888 l 266.675 18.635 l 272.72222222222223 18.282222222222224 l 278.8305555555556 18.070555555555554 l 285 18 l 291.17055555555555 18.070555555555558 l 297.28222222222223 18.282222222222224 l 303.33500000000004 18.635 l 309.3288888888889 19.128888888888888 l 315.2638888888889 19.76388888888889 l 321.1400000000001 20.540000000000006 l 326.95722222222224 21.457222222222217 l 332.71555555555557 22.515555555555558 l 338.41499999999996 23.715 l 344.05555555555554 25.055555555555557 l 349.6372222222222 26.53722222222222 l 355.15999999999997 28.160000000000004 l 360.62388888888887 29.92388888888889 l 366.0288888888889 31.828888888888887 l 371.375 33.875 l 376.6622222222222 36.06222222222222 l 381.8905555555555 38.39055555555555 l 387.06 40.86 l 392.17055555555555 43.470555555555556 l 397.22222222222223 46.22222222222222 l 402.21500000000003 49.114999999999995 l 407.1488888888889 52.148888888888884 l 412.0238888888889 55.323888888888895 l 416.84000000000003 58.64000000000001 l 421.59722222222223 62.09722222222223 l 426.29555555555555 65.69555555555556 l 430.935 69.435 l 435.5155555555556 73.31555555555555 l 440.0372222222222 77.33722222222221 l 444.5 81.5 l 448.8594444444444 85.765 l 453.0711111111111 90.09333333333332 l 457.13500000000005 94.48500000000001 l 461.05111111111114 98.94000000000001 l 464.8194444444445 103.45833333333333 l 468.4400000000001 108.04000000000002 l 471.9127777777777 112.685 l 475.23777777777786 117.39333333333335 l 478.41499999999996 122.16499999999999 l 481.4444444444445 127 l 484.3261111111111 131.8983333333333 l 487.05999999999995 136.86 l 489.64611111111105 141.885 l 492.08444444444444 146.97333333333333 l 494.375 152.125 l 496.51777777777784 157.33999999999997 l 498.5127777777777 162.61833333333334 l 500.36 167.95999999999998 l 502.05944444444447 173.365 l 503.6111111111111 178.83333333333331 l 505.015 184.365 l 506.27111111111117 189.96 l 507.37944444444446 195.61833333333334 l 508.34000000000003 201.34000000000003 l 509.1527777777778 207.125 l 509.8177777777778 212.97333333333336 l 510.335 218.885 l 510.70444444444445 224.86 l 510.9261111111111 230.89833333333334 l 511 237 l 511 237 l 510.9627777777778 241.19555555555556 l 510.8511111111111 245.38222222222225 l 510.665 249.56 l 510.40444444444444 253.72888888888892 l 510.0694444444445 257.8888888888889 l 509.66000000000014 262.0400000000001 l 509.1761111111111 266.1822222222222 l 508.6177777777779 270.3155555555556 l 507.985 274.44 l 507.2777777777778 278.55555555555554 l 506.4961111111111 282.6622222222222 l 505.64000000000004 286.76 l 504.70944444444444 290.8488888888889 l 503.70444444444445 294.9288888888889 l 502.625 299 l 501.4711111111111 303.06222222222226 l 500.24277777777775 307.11555555555555 l 498.94000000000005 311.16 l 497.5627777777778 315.19555555555553 l 496.1111111111111 319.22222222222223 l 494.585 323.24 l 492.9844444444444 327.2488888888889 l 491.30944444444447 331.2488888888889 l 489.56000000000006 335.24 l 487.73611111111114 339.22222222222223 l 485.8377777777778 343.1955555555556 l 483.865 347.16 l 481.8177777777778 351.11555555555555 l 479.69611111111107 355.0622222222222 l 477.5 359 l 475.2438888888889 362.8933333333334 l 472.94222222222226 366.70666666666665 l 470.595 370.44000000000005 l 468.20222222222225 374.0933333333333 l 465.76388888888897 377.66666666666674 l 463.28000000000014 381.1600000000001 l 460.7505555555556 384.57333333333327 l 458.17555555555566 387.90666666666675 l 455.55499999999995 391.15999999999997 l 452.8888888888889 394.33333333333337 l 450.17722222222216 397.4266666666666 l 447.42 400.44 l 444.61722222222227 403.3733333333333 l 441.76888888888885 406.2266666666667 l 438.875 409 l 435.93555555555554 411.6933333333333 l 432.9505555555555 414.3066666666666 l 429.9200000000001 416.84 l 426.8438888888889 419.29333333333335 l 423.72222222222223 421.6666666666667 l 420.555 423.96000000000004 l 417.34222222222223 426.17333333333335 l 414.08388888888885 428.30666666666673 l 410.78000000000003 430.36 l 407.43055555555554 432.33333333333337 l 404.03555555555556 434.2266666666667 l 400.595 436.04 l 397.1088888888889 437.77333333333337 l 393.5772222222222 439.4266666666666 l 390 441 l 390 441 l 371 449 l 389 463 l 390.72055555555556 464.34722222222223 l 392.4155555555556 465.72222222222223 l 394.08500000000004 467.125 l 395.72888888888895 468.55555555555554 l 397.34722222222223 470.01388888888897 l 398.9400000000001 471.5000000000001 l 400.50722222222225 473.0138888888889 l 402.048888888889 474.5555555555556 l 403.56499999999994 476.12499999999994 l 405.0555555555556 477.7222222222223 l 406.5205555555555 479.3472222222221 l 407.96000000000004 481 l 409.37388888888887 482.68055555555554 l 410.76222222222225 484.38888888888886 l 412.125 486.125 l 413.46222222222224 487.88888888888886 l 414.7738888888889 489.68055555555554 l 416.06 491.5 l 417.32055555555553 493.34722222222223 l 418.55555555555554 495.22222222222223 l 419.765 497.125 l 420.94888888888886 499.05555555555554 l 422.1072222222222 501.0138888888889 l 423.24 503 l 424.34722222222223 505.0138888888889 l 425.4288888888889 507.05555555555554 l 426.485 509.125 l 427.5155555555556 511.22222222222223 l 428.5205555555556 513.3472222222222 l 429.5 515.5 l 430.4505555555556 517.6683333333333 l 431.36888888888893 519.84 l 432.25500000000005 522.0150000000001 l 433.1088888888889 524.1933333333334 l 433.9305555555556 526.375 l 434.7200000000001 528.5600000000001 l 435.4772222222222 530.7483333333332 l 436.20222222222225 532.94 l 436.8949999999999 535.135 l 437.5555555555556 537.3333333333334 l 438.1838888888888 539.535 l 438.78000000000003 541.74 l 439.34388888888884 543.9483333333333 l 439.87555555555554 546.1600000000001 l 440.375 548.375 l 440.84222222222223 550.5933333333334 l 441.27722222222224 552.8149999999999 l 441.68000000000006 555.04 l 442.05055555555555 557.2683333333333 l 442.3888888888889 559.5 l 442.695 561.735 l 442.96888888888884 563.9733333333334 l 443.2105555555556 566.215 l 443.4200000000001 568.46 l 443.59722222222223 570.7083333333334 l 443.7422222222222 572.96 l 443.855 575.215 l 443.9355555555556 577.4733333333334 l 443.9838888888889 579.735 l 444 582 l 444 582 l 443.94944444444445 586.0488888888889 l 443.7977777777778 590.0622222222223 l 443.5450000000001 594.0400000000001 l 443.1911111111111 597.9822222222223 l 442.7361111111112 601.8888888888889 l 442.1800000000001 605.7600000000001 l 441.5227777777777 609.5955555555555 l 440.7644444444445 613.3955555555557 l 439.905 617.16 l 438.9444444444445 620.888888888889 l 437.88277777777773 624.5822222222222 l 436.72 628.24 l 435.4561111111111 631.8622222222223 l 434.0911111111111 635.4488888888889 l 432.625 639 l 431.05777777777774 642.5155555555556 l 429.38944444444445 645.9955555555555 l 427.62 649.4399999999999 l 425.74944444444446 652.848888888889 l 423.7777777777778 656.2222222222222 l 421.70500000000004 659.56 l 419.53111111111116 662.8622222222223 l 417.2561111111111 666.1288888888889 l 414.88 669.3600000000001 l 412.40277777777777 672.5555555555555 l 409.82444444444445 675.7155555555556 l 407.145 678.84 l 404.3644444444444 681.9288888888889 l 401.48277777777776 684.9822222222222 l 398.5 688 l 395.4466666666666 690.9499999999999 l 392.35333333333335 693.8 l 389.22 696.5500000000002 l 386.0466666666667 699.2000000000002 l 382.83333333333337 701.75 l 379.58000000000004 704.2000000000002 l 376.28666666666663 706.55 l 372.9533333333334 708.8000000000001 l 369.58 710.95 l 366.1666666666667 713.0000000000001 l 362.7133333333333 714.95 l 359.21999999999997 716.8 l 355.68666666666667 718.55 l 352.11333333333334 720.2 l 348.5 721.75 l 344.8466666666667 723.1999999999999 l 341.1533333333333 724.55 l 337.42 725.8 l 333.64666666666665 726.95 l 329.83333333333337 728 l 325.98 728.95 l 322.0866666666667 729.8000000000001 l 318.1533333333333 730.55 l 314.18 731.2 l 310.1666666666667 731.75 l 306.11333333333334 732.2 l 302.02 732.55 l 297.88666666666666 732.8000000000001 l 293.7133333333333 732.95 l 289.5 733 l 285.28444444444443 732.9483333333333 l 281.1044444444445 732.7933333333334 l 276.96000000000004 732.5350000000001 l 272.85111111111115 732.1733333333334 l 268.77777777777777 731.7083333333334 l 264.74 731.1400000000002 l 260.73777777777775 730.4683333333332 l 256.77111111111117 729.6933333333334 l 252.83999999999997 728.8149999999999 l 248.94444444444449 727.8333333333335 l 245.08444444444442 726.7483333333333 l 241.26 725.5600000000001 l 237.47111111111113 724.2683333333333 l 233.71777777777777 722.8733333333332 l 230 721.375 l 226.3177777777778 719.7733333333333 l 222.67111111111112 718.0683333333333 l 219.06 716.26 l 215.48444444444445 714.3483333333334 l 211.94444444444446 712.3333333333334 l 208.44 710.2149999999999 l 204.9711111111111 707.9933333333333 l 201.53777777777776 705.6683333333333 l 198.14000000000001 703.24 l 194.77777777777777 700.7083333333334 l 191.45111111111112 698.0733333333334 l 188.16 695.335 l 184.90444444444444 692.4933333333333 l 181.68444444444444 689.5483333333333 l 178.5 686.5 l 175.3838888888889 683.3794444444444 l 172.36888888888888 680.2177777777778 l 169.455 677.0150000000001 l 166.64222222222224 673.7711111111112 l 163.93055555555557 670.4861111111111 l 161.32000000000002 667.1600000000001 l 158.81055555555554 663.7927777777777 l 156.40222222222226 660.3844444444446 l 154.09499999999997 656.935 l 151.8888888888889 653.4444444444446 l 149.78388888888887 649.9127777777777 l 147.78 646.3399999999999 l 145.87722222222223 642.7261111111111 l 144.07555555555555 639.0711111111111 l 142.375 635.375 l 140.77555555555557 631.6377777777777 l 139.2772222222222 627.8594444444445 l 137.88 624.04 l 136.58388888888888 620.1794444444445 l 135.3888888888889 616.2777777777778 l 134.29500000000002 612.335 l 133.3022222222222 608.3511111111111 l 132.41055555555556 604.3261111111111 l 131.62 600.26 l 130.93055555555554 596.1527777777778 l 130.34222222222223 592.0044444444445 l 129.85500000000002 587.815 l 129.4688888888889 583.5844444444444 l 129.18388888888887 579.3127777777778 l 129 575 l 129 575 l 97 575 l 97.19277777777776 580.1083333333332 l 97.50444444444446 585.1666666666666 l 97.93500000000002 590.1750000000002 l 98.48444444444445 595.1333333333333 l 99.15277777777779 600.0416666666667 l 99.94000000000003 604.9000000000001 l 100.8461111111111 609.7083333333333 l 101.87111111111112 614.4666666666667 l 103.01499999999999 619.175 l 104.27777777777777 623.8333333333334 l 105.65944444444443 628.4416666666666 l 107.16 633 l 108.77944444444444 637.5083333333333 l 110.51777777777778 641.9666666666667 l 112.375 646.375 l 114.35111111111112 650.7333333333333 l 116.4461111111111 655.0416666666666 l 118.66 659.3 l 120.99277777777777 663.5083333333333 l 123.44444444444443 667.6666666666667 l 126.01499999999999 671.775 l 128.70444444444445 675.8333333333333 l 131.51277777777779 679.8416666666667 l 134.44000000000003 683.8000000000001 l 137.48611111111111 687.7083333333334 l 140.6511111111111 691.5666666666667 l 143.935 695.375 l 147.33777777777777 699.1333333333333 l 150.85944444444445 702.8416666666666 l 154.5 706.5 l 158.22555555555556 710.0727777777777 l 162.00222222222223 713.5244444444445 l 165.83 716.855 l 169.7088888888889 720.0644444444446 l 173.6388888888889 723.1527777777778 l 177.62000000000003 726.1200000000001 l 181.6522222222222 728.9661111111111 l 185.73555555555558 731.6911111111112 l 189.86999999999998 734.295 l 194.0555555555556 736.7777777777778 l 198.29222222222222 739.1394444444444 l 202.57999999999998 741.38 l 206.9188888888889 743.4994444444444 l 211.30888888888887 745.4977777777779 l 215.75 747.375 l 220.2422222222222 749.1311111111111 l 224.78555555555556 750.7661111111111 l 229.38 752.28 l 234.02555555555557 753.6727777777778 l 238.72222222222223 754.9444444444445 l 243.46999999999997 756.095 l 248.2688888888889 757.1244444444444 l 253.1188888888889 758.0327777777777 l 258.02000000000004 758.8199999999999 l 262.97222222222223 759.4861111111111 l 267.97555555555556 760.0311111111112 l 273.03 760.455 l 278.1355555555556 760.7577777777777 l 283.2922222222222 760.9394444444443 l 288.5 761 l 293.70666666666665 760.9433333333333 l 298.86 760.7733333333333 l 303.96 760.4900000000001 l 309.0066666666667 760.0933333333335 l 314 759.5833333333334 l 318.94000000000005 758.9600000000002 l 323.82666666666665 758.2233333333334 l 328.6600000000001 757.3733333333336 l 333.44 756.41 l 338.1666666666667 755.3333333333335 l 342.8399999999999 754.1433333333332 l 347.46 752.84 l 352.02666666666664 751.4233333333333 l 356.54 749.8933333333333 l 361 748.25 l 365.40666666666664 746.4933333333333 l 369.76 744.6233333333332 l 374.05999999999995 742.64 l 378.3066666666667 740.5433333333333 l 382.5 738.3333333333334 l 386.64 736.01 l 390.7266666666667 733.5733333333333 l 394.76 731.0233333333333 l 398.74 728.36 l 402.6666666666667 725.5833333333334 l 406.54 722.6933333333333 l 410.36 719.6899999999999 l 414.12666666666667 716.5733333333334 l 417.84 713.3433333333332 l 421.5 710 l 425.0727777777778 706.5749999999999 l 428.52444444444444 703.1 l 431.855 699.575 l 435.0644444444445 696 l 438.1527777777778 692.3750000000001 l 441.12000000000006 688.7000000000002 l 443.9661111111111 684.975 l 446.6911111111112 681.2 l 449.2949999999999 677.375 l 451.7777777777778 673.5000000000001 l 454.1394444444444 669.5749999999999 l 456.38 665.6 l 458.4994444444444 661.5749999999999 l 460.4977777777778 657.5 l 462.375 653.375 l 464.13111111111107 649.2 l 465.76611111111106 644.9749999999999 l 467.28 640.7 l 468.6727777777778 636.375 l 469.94444444444446 632 l 471.095 627.575 l 472.1244444444444 623.1 l 473.03277777777777 618.575 l 473.82 614 l 474.48611111111114 609.375 l 475.0311111111111 604.6999999999999 l 475.455 599.975 l 475.7577777777778 595.2 l 475.93944444444446 590.3749999999999 l 476 585.5 l 475.9411111111111 580.6172222222222 l 475.76444444444445 575.7688888888889 l 475.47 570.955 l 475.0577777777778 566.1755555555555 l 474.5277777777778 561.4305555555557 l 473.88000000000005 556.7200000000001 l 473.1144444444444 552.0438888888888 l 472.23111111111115 547.4022222222223 l 471.22999999999996 542.795 l 470.1111111111112 538.2222222222223 l 468.8744444444444 533.6838888888889 l 467.52 529.18 l 466.04777777777775 524.7105555555555 l 464.4577777777778 520.2755555555556 l 462.75 515.875 l 460.9244444444444 511.5088888888889 l 458.9811111111111 507.1772222222222 l 456.91999999999996 502.88 l 454.7411111111111 498.6172222222222 l 452.44444444444446 494.3888888888889 l 450.03 490.195 l 447.49777777777774 486.03555555555556 l 444.84777777777776 481.91055555555556 l 442.08 477.82000000000005 l 439.19444444444446 473.7638888888889 l 436.1911111111111 469.7422222222222 l 433.06999999999994 465.755 l 429.8311111111111 461.8022222222222 l 426.47444444444443 457.88388888888886 l 423 454 l 423 454 l 426.64222222222224 451.77388888888885 l 430.23555555555555 449.4955555555556 l 433.78000000000003 447.165 l 437.27555555555557 444.78222222222223 l 440.7222222222223 442.3472222222223 l 444.12000000000006 439.86000000000007 l 447.46888888888884 437.32055555555553 l 450.7688888888889 434.728888888889 l 454.02 432.085 l 457.22222222222223 429.3888888888889 l 460.3755555555555 426.64055555555547 l 463.48 423.84 l 466.53555555555556 420.9872222222222 l 469.54222222222216 418.0822222222222 l 472.5 415.125 l 475.4088888888889 412.11555555555555 l 478.2688888888889 409.0538888888889 l 481.08 405.94000000000005 l 483.84222222222223 402.77388888888885 l 486.55555555555554 399.55555555555554 l 489.22 396.285 l 491.8355555555556 392.96222222222224 l 494.40222222222224 389.58722222222224 l 496.9200000000001 386.16 l 499.3888888888889 382.68055555555554 l 501.8088888888889 379.1488888888889 l 504.18 375.565 l 506.5022222222222 371.92888888888893 l 508.7755555555555 368.2405555555555 l 511 364.5 l 513.1633333333333 360.72277777777776 l 515.2533333333333 356.92444444444453 l 517.2700000000001 353.105 l 519.2133333333334 349.26444444444445 l 521.0833333333334 345.4027777777778 l 522.8800000000001 341.5200000000001 l 524.6033333333332 337.6161111111111 l 526.2533333333334 333.6911111111112 l 527.8299999999999 329.74499999999995 l 529.3333333333334 325.7777777777778 l 530.7633333333332 321.7894444444444 l 532.12 317.78000000000003 l 533.4033333333333 313.7494444444444 l 534.6133333333333 309.69777777777784 l 535.75 305.625 l 536.8133333333333 301.53111111111116 l 537.8033333333333 297.41611111111115 l 538.72 293.28000000000003 l 539.5633333333333 289.12277777777774 l 540.3333333333334 284.94444444444446 l 541.03 280.745 l 541.6533333333334 276.52444444444444 l 542.2033333333334 272.28277777777777 l 542.6800000000001 268.02 l 543.0833333333334 263.7361111111111 l 543.4133333333334 259.43111111111114 l 543.6700000000001 255.105 l 543.8533333333334 250.7577777777778 l 543.9633333333334 246.38944444444445 l 544 242 z"},"4":{"x_min":17,"x_max":475,"ha":490,"o":"m 388 0 l 355 0 l 355 91 l 17 91 l 388 760 l 388 124 l 475 124 l 475 91 l 388 91 l 388 0 z m 66 124 l 355 124 l 355 645 l 66 124 z"},"5":{"x_min":45,"x_max":604,"ha":649,"o":"m 111 750 l 521 750 l 521 721 l 140 721 l 113 464 l 115.35555555555555 466.97666666666663 l 117.75555555555556 469.9066666666667 l 120.2 472.79 l 122.6888888888889 475.6266666666667 l 125.22222222222223 478.41666666666674 l 127.80000000000001 481.16 l 130.42222222222222 483.8566666666667 l 133.0888888888889 486.5066666666668 l 135.79999999999998 489.11 l 138.55555555555557 491.6666666666667 l 141.35555555555553 494.1766666666666 l 144.2 496.64000000000004 l 147.0888888888889 499.0566666666667 l 150.02222222222224 501.4266666666667 l 153 503.75 l 156.02222222222224 506.02666666666664 l 159.0888888888889 508.25666666666666 l 162.2 510.44 l 165.35555555555555 512.5766666666666 l 168.55555555555554 514.6666666666666 l 171.8 516.71 l 175.0888888888889 518.7066666666667 l 178.42222222222222 520.6566666666668 l 181.8 522.5600000000001 l 185.22222222222223 524.4166666666666 l 188.6888888888889 526.2266666666667 l 192.2 527.99 l 195.75555555555556 529.7066666666667 l 199.35555555555555 531.3766666666667 l 203 533 l 206.67333333333335 534.5733333333334 l 210.36000000000004 536.0933333333334 l 214.06 537.5600000000001 l 217.77333333333334 538.9733333333334 l 221.50000000000003 540.3333333333333 l 225.24 541.6400000000001 l 228.9933333333333 542.8933333333332 l 232.76000000000002 544.0933333333335 l 236.54 545.24 l 240.33333333333337 546.3333333333334 l 244.14 547.3733333333333 l 247.96 548.36 l 251.79333333333332 549.2933333333333 l 255.64 550.1733333333333 l 259.5 551 l 263.37333333333333 551.7733333333333 l 267.26 552.4933333333333 l 271.15999999999997 553.1600000000001 l 275.0733333333333 553.7733333333333 l 279 554.3333333333334 l 282.94 554.8399999999999 l 286.8933333333333 555.2933333333333 l 290.86 555.6933333333334 l 294.84000000000003 556.0400000000001 l 298.83333333333337 556.3333333333334 l 302.84 556.5733333333334 l 306.86 556.76 l 310.8933333333333 556.8933333333333 l 314.94 556.9733333333332 l 319 557 l 319 557 l 326.8933333333334 556.9072222222222 l 334.70666666666665 556.6288888888889 l 342.44 556.1650000000001 l 350.09333333333336 555.5155555555556 l 357.6666666666667 554.6805555555557 l 365.1600000000001 553.6600000000002 l 372.5733333333333 552.4538888888889 l 379.9066666666667 551.0622222222223 l 387.15999999999997 549.4849999999999 l 394.33333333333337 547.7222222222223 l 401.4266666666666 545.7738888888889 l 408.44 543.64 l 415.37333333333333 541.3205555555555 l 422.2266666666667 538.8155555555555 l 429 536.125 l 435.6933333333334 533.2488888888888 l 442.3066666666666 530.1872222222222 l 448.84 526.94 l 455.29333333333335 523.5072222222223 l 461.6666666666667 519.8888888888889 l 467.96 516.085 l 474.1733333333333 512.0955555555556 l 480.30666666666673 507.92055555555555 l 486.36 503.56000000000006 l 492.33333333333337 499.0138888888889 l 498.2266666666667 494.28222222222223 l 504.04 489.365 l 509.7733333333333 484.26222222222225 l 515.4266666666666 478.9738888888889 l 521 473.5 l 526.4411111111111 467.8955555555556 l 531.6977777777778 462.2155555555556 l 536.77 456.46000000000004 l 541.6577777777778 450.6288888888889 l 546.3611111111112 444.7222222222223 l 550.88 438.74000000000007 l 555.2144444444443 432.6822222222222 l 559.3644444444445 426.54888888888894 l 563.3299999999999 420.3399999999999 l 567.1111111111112 414.0555555555556 l 570.7077777777777 407.69555555555553 l 574.12 401.26 l 577.3477777777778 394.7488888888889 l 580.3911111111112 388.1622222222222 l 583.25 381.5 l 585.9244444444445 374.76222222222225 l 588.4144444444445 367.94888888888886 l 590.72 361.06000000000006 l 592.8411111111111 354.09555555555556 l 594.7777777777778 347.05555555555554 l 596.53 339.94 l 598.0977777777778 332.7488888888889 l 599.4811111111112 325.4822222222222 l 600.6800000000001 318.14 l 601.6944444444445 310.72222222222223 l 602.5244444444445 303.2288888888889 l 603.17 295.66 l 603.6311111111112 288.0155555555556 l 603.9077777777777 280.29555555555555 l 604 272.5 l 603.9072222222222 264.7055555555556 l 603.628888888889 256.9888888888889 l 603.1650000000001 249.35000000000002 l 602.5155555555556 241.78888888888892 l 601.6805555555557 234.30555555555557 l 600.6600000000002 226.90000000000006 l 599.4538888888889 219.5722222222222 l 598.0622222222223 212.32222222222228 l 596.485 205.14999999999998 l 594.7222222222223 198.05555555555557 l 592.7738888888888 191.0388888888889 l 590.64 184.1 l 588.3205555555555 177.23888888888888 l 585.8155555555555 170.45555555555555 l 583.125 163.75 l 580.2488888888888 157.12222222222223 l 577.1872222222222 150.57222222222222 l 573.94 144.1 l 570.5072222222223 137.70555555555558 l 566.8888888888889 131.3888888888889 l 563.085 125.15 l 559.0955555555556 118.98888888888891 l 554.9205555555556 112.90555555555555 l 550.5600000000001 106.89999999999999 l 546.0138888888889 100.97222222222223 l 541.2822222222222 95.12222222222222 l 536.365 89.35 l 531.2622222222222 83.65555555555555 l 525.9738888888888 78.03888888888889 l 520.5 72.5 l 514.895 67.09166666666667 l 509.2133333333333 61.86666666666667 l 503.45500000000004 56.825 l 497.62000000000006 51.966666666666676 l 491.70833333333337 47.29166666666667 l 485.7200000000001 42.800000000000004 l 479.65500000000003 38.49166666666667 l 473.51333333333343 34.36666666666668 l 467.2949999999999 30.425 l 461.00000000000006 26.666666666666675 l 454.6283333333333 23.091666666666665 l 448.18 19.699999999999996 l 441.655 16.491666666666664 l 435.0533333333333 13.466666666666669 l 428.375 10.625 l 421.62 7.966666666666667 l 414.7883333333333 5.491666666666669 l 407.88 3.200000000000002 l 400.895 1.0916666666666703 l 393.83333333333337 -0.8333333333333321 l 386.69500000000005 -2.5749999999999975 l 379.48 -4.133333333333331 l 372.1883333333333 -5.508333333333335 l 364.82000000000005 -6.700000000000002 l 357.375 -7.708333333333335 l 349.85333333333335 -8.533333333333335 l 342.255 -9.175 l 334.58 -9.633333333333335 l 326.8283333333333 -9.908333333333333 l 319 -10 l 319 -10 l 312.685 -9.933333333333334 l 306.40666666666664 -9.733333333333334 l 300.165 -9.400000000000002 l 293.96 -8.933333333333334 l 287.7916666666667 -8.333333333333334 l 281.66 -7.600000000000001 l 275.565 -6.733333333333333 l 269.5066666666667 -5.733333333333336 l 263.485 -4.6 l 257.50000000000006 -3.333333333333334 l 251.55166666666665 -1.9333333333333336 l 245.64 -0.3999999999999968 l 239.765 1.2666666666666675 l 233.92666666666668 3.0666666666666664 l 228.125 5 l 222.35999999999999 7.0666666666666655 l 216.63166666666666 9.266666666666664 l 210.94 11.6 l 205.28500000000003 14.066666666666665 l 199.66666666666666 16.666666666666664 l 194.085 19.399999999999995 l 188.54000000000002 22.266666666666662 l 183.03166666666667 25.266666666666673 l 177.56 28.40000000000001 l 172.125 31.666666666666675 l 166.72666666666666 35.06666666666667 l 161.365 38.6 l 156.04 42.266666666666666 l 150.75166666666667 46.06666666666666 l 145.5 50 l 140.32944444444445 54.035555555555554 l 135.28444444444443 58.14222222222222 l 130.365 62.32 l 125.57111111111112 66.56888888888889 l 120.9027777777778 70.8888888888889 l 116.36000000000003 75.28000000000002 l 111.94277777777778 79.74222222222222 l 107.65111111111113 84.27555555555557 l 103.48499999999999 88.88 l 99.44444444444446 93.55555555555556 l 95.52944444444444 98.30222222222221 l 91.74 103.12 l 88.0761111111111 108.00888888888889 l 84.53777777777778 112.9688888888889 l 81.125 118 l 77.83777777777777 123.10222222222222 l 74.67611111111111 128.27555555555554 l 71.64 133.51999999999998 l 68.72944444444445 138.83555555555554 l 65.94444444444446 144.22222222222223 l 63.285000000000004 149.68 l 60.751111111111115 155.20888888888888 l 58.342777777777776 160.8088888888889 l 56.06 166.48000000000002 l 53.90277777777777 172.22222222222223 l 51.87111111111111 178.03555555555556 l 49.965 183.92000000000002 l 48.184444444444445 189.87555555555556 l 46.52944444444444 195.9022222222222 l 45 202 l 45 202 l 76 202 l 77.64888888888889 196.69777777777776 l 79.39555555555556 191.4577777777778 l 81.24000000000001 186.28 l 83.18222222222222 181.16444444444446 l 85.22222222222224 176.11111111111114 l 87.36000000000001 171.12000000000006 l 89.59555555555555 166.1911111111111 l 91.9288888888889 161.32444444444448 l 94.36 156.51999999999998 l 96.88888888888889 151.7777777777778 l 99.51555555555554 147.09777777777776 l 102.24000000000001 142.48000000000002 l 105.06222222222222 137.92444444444442 l 107.98222222222222 133.4311111111111 l 111 129 l 114.11555555555555 124.63111111111111 l 117.32888888888888 120.32444444444444 l 120.64 116.08 l 124.04888888888888 111.89777777777778 l 127.55555555555556 107.7777777777778 l 131.16 103.72 l 134.86222222222221 99.72444444444446 l 138.66222222222223 95.79111111111109 l 142.56 91.92 l 146.55555555555557 88.11111111111111 l 150.6488888888889 84.36444444444444 l 154.84 80.68 l 159.1288888888889 77.05777777777777 l 163.51555555555555 73.49777777777777 l 168 70 l 172.54999999999998 66.5911111111111 l 177.13333333333335 63.29777777777778 l 181.75 60.120000000000005 l 186.40000000000003 57.05777777777778 l 191.08333333333334 54.111111111111114 l 195.8 51.280000000000015 l 200.54999999999998 48.56444444444443 l 205.33333333333334 45.96444444444445 l 210.15 43.48 l 215.00000000000006 41.111111111111114 l 219.88333333333333 38.85777777777778 l 224.8 36.720000000000006 l 229.75 34.69777777777777 l 234.73333333333335 32.791111111111114 l 239.75 31 l 244.8 29.324444444444445 l 249.88333333333333 27.764444444444443 l 255 26.320000000000004 l 260.15 24.99111111111111 l 265.33333333333337 23.77777777777778 l 270.54999999999995 22.68 l 275.8 21.69777777777778 l 281.08333333333337 20.831111111111113 l 286.40000000000003 20.08 l 291.75 19.444444444444443 l 297.1333333333333 18.924444444444447 l 302.55 18.52 l 308 18.23111111111111 l 313.48333333333335 18.057777777777776 l 319 18 l 319 18 l 325.96555555555557 18.08277777777778 l 332.8622222222222 18.331111111111113 l 339.69000000000005 18.745 l 346.4488888888889 19.324444444444445 l 353.1388888888889 20.069444444444443 l 359.7600000000001 20.980000000000004 l 366.3122222222222 22.056111111111107 l 372.7955555555556 23.29777777777778 l 379.21 24.705 l 385.5555555555556 26.27777777777778 l 391.8322222222222 28.01611111111111 l 398.03999999999996 29.92 l 404.1788888888889 31.989444444444445 l 410.2488888888889 34.224444444444444 l 416.25 36.625 l 422.1822222222222 39.19111111111111 l 428.04555555555555 41.922777777777775 l 433.84000000000003 44.82 l 439.56555555555553 47.882777777777775 l 445.22222222222223 51.11111111111111 l 450.81 54.504999999999995 l 456.32888888888886 58.06444444444443 l 461.7788888888889 61.78944444444445 l 467.1600000000001 65.68 l 472.47222222222223 69.73611111111111 l 477.7155555555555 73.95777777777779 l 482.89000000000004 78.34500000000001 l 487.9955555555556 82.89777777777778 l 493.0322222222222 87.61611111111111 l 498 92.5 l 502.8511111111111 97.5011111111111 l 507.5377777777778 102.57111111111111 l 512.0600000000001 107.71000000000001 l 516.4177777777778 112.9177777777778 l 520.6111111111112 118.19444444444444 l 524.6400000000001 123.54000000000002 l 528.5044444444444 128.95444444444445 l 532.2044444444446 134.4377777777778 l 535.74 139.99 l 539.1111111111112 145.61111111111111 l 542.3177777777777 151.30111111111108 l 545.36 157.06 l 548.2377777777778 162.88777777777779 l 550.9511111111111 168.78444444444443 l 553.5 174.75 l 555.8844444444444 180.78444444444443 l 558.1044444444444 186.88777777777776 l 560.16 193.06 l 562.0511111111111 199.3011111111111 l 563.7777777777777 205.61111111111111 l 565.3399999999999 211.98999999999998 l 566.7377777777778 218.43777777777777 l 567.9711111111111 224.95444444444445 l 569.0400000000001 231.54000000000002 l 569.9444444444445 238.19444444444446 l 570.6844444444445 244.91777777777781 l 571.26 251.71 l 571.6711111111111 258.5711111111111 l 571.9177777777778 265.5011111111111 l 572 272.5 l 571.9177777777778 279.49999999999994 l 571.6711111111111 286.4333333333334 l 571.2600000000001 293.30000000000007 l 570.6844444444445 300.1 l 569.9444444444446 306.83333333333337 l 569.0400000000001 313.50000000000006 l 567.9711111111111 320.0999999999999 l 566.7377777777778 326.6333333333334 l 565.34 333.09999999999997 l 563.7777777777778 339.5 l 562.051111111111 345.8333333333333 l 560.1600000000001 352.09999999999997 l 558.1044444444444 358.29999999999995 l 555.8844444444445 364.43333333333334 l 553.5 370.5 l 550.9511111111111 376.5 l 548.2377777777778 382.4333333333333 l 545.36 388.3 l 542.3177777777778 394.1 l 539.1111111111111 399.8333333333333 l 535.74 405.5 l 532.2044444444444 411.1 l 528.5044444444445 416.6333333333333 l 524.6400000000001 422.1 l 520.6111111111111 427.5 l 516.4177777777777 432.83333333333337 l 512.0600000000001 438.1 l 507.5377777777778 443.3 l 502.8511111111111 448.4333333333333 l 498 453.5 l 493.0322222222222 458.4494444444444 l 487.9955555555556 463.23111111111115 l 482.89000000000004 467.8450000000001 l 477.71555555555557 472.29111111111115 l 472.47222222222223 476.5694444444445 l 467.1600000000001 480.6800000000001 l 461.77888888888884 484.62277777777774 l 456.32888888888897 488.39777777777783 l 450.80999999999995 492.005 l 445.2222222222223 495.4444444444445 l 439.56555555555553 498.716111111111 l 433.84 501.81999999999994 l 428.0455555555555 504.75611111111107 l 422.1822222222222 507.5244444444445 l 416.25 510.125 l 410.2488888888889 512.5577777777778 l 404.1788888888889 514.8227777777777 l 398.03999999999996 516.9200000000001 l 391.83222222222224 518.8494444444444 l 385.55555555555554 520.6111111111111 l 379.21000000000004 522.205 l 372.79555555555555 523.6311111111111 l 366.3122222222222 524.8894444444444 l 359.76 525.98 l 353.1388888888889 526.9027777777778 l 346.44888888888886 527.6577777777778 l 339.69000000000005 528.245 l 332.8622222222222 528.6644444444445 l 325.96555555555557 528.916111111111 l 319 529 l 319 529 l 314.8744444444444 528.9661111111111 l 310.76444444444445 528.8644444444444 l 306.67 528.695 l 302.5911111111111 528.4577777777779 l 298.52777777777777 528.1527777777778 l 294.4800000000001 527.7800000000001 l 290.4477777777778 527.3394444444444 l 286.43111111111114 526.8311111111112 l 282.43 526.255 l 278.44444444444446 525.6111111111112 l 274.47444444444443 524.8994444444444 l 270.52 524.12 l 266.5811111111111 523.2727777777777 l 262.6577777777778 522.3577777777778 l 258.75 521.375 l 254.85777777777778 520.3244444444445 l 250.9811111111111 519.2061111111111 l 247.12 518.02 l 243.27444444444444 516.7661111111111 l 239.44444444444446 515.4444444444445 l 235.63000000000002 514.0550000000001 l 231.8311111111111 512.5977777777778 l 228.04777777777778 511.0727777777778 l 224.28 509.48 l 220.52777777777777 507.81944444444446 l 216.7911111111111 506.0911111111111 l 213.07 504.295 l 209.36444444444447 502.43111111111114 l 205.67444444444442 500.4994444444444 l 202 498.5 l 198.35444444444443 496.4427777777778 l 194.75111111111113 494.33777777777783 l 191.19000000000003 492.18500000000006 l 187.67111111111112 489.98444444444453 l 184.19444444444449 487.73611111111114 l 180.76000000000005 485.44000000000005 l 177.36777777777775 483.0961111111111 l 174.0177777777778 480.70444444444456 l 170.70999999999998 478.26499999999993 l 167.44444444444449 475.7777777777779 l 164.22111111111107 473.24277777777775 l 161.04000000000002 470.65999999999997 l 157.90111111111108 468.02944444444444 l 154.80444444444447 465.3511111111111 l 151.75 462.625 l 148.73777777777778 459.8511111111111 l 145.76777777777778 457.0294444444445 l 142.84 454.15999999999997 l 139.95444444444445 451.2427777777778 l 137.11111111111114 448.2777777777778 l 134.31 445.265 l 131.5511111111111 442.20444444444445 l 128.83444444444444 439.0961111111111 l 126.16000000000001 435.94000000000005 l 123.52777777777777 432.7361111111111 l 120.93777777777777 429.4844444444444 l 118.39 426.185 l 115.88444444444445 422.8377777777778 l 113.4211111111111 419.4427777777778 l 111 416 l 111 416 l 76 416 l 111 750 z"},"6":{"x_min":33,"x_max":601,"ha":631,"o":"m 324 555 l 324 555 l 331.3038888888889 554.9055555555556 l 338.54888888888894 554.6222222222221 l 345.735 554.1500000000001 l 352.8622222222222 553.4888888888889 l 359.9305555555556 552.638888888889 l 366.94000000000005 551.6 l 373.8905555555555 550.3722222222221 l 380.7822222222223 548.9555555555556 l 387.61499999999995 547.3499999999999 l 394.3888888888889 545.5555555555555 l 401.10388888888883 543.5722222222222 l 407.76 541.4 l 414.3572222222222 539.0388888888889 l 420.8955555555555 536.4888888888889 l 427.375 533.75 l 433.79555555555555 530.8222222222222 l 440.15722222222223 527.7055555555555 l 446.46000000000004 524.4 l 452.70388888888886 520.9055555555556 l 458.8888888888889 517.2222222222223 l 465.015 513.35 l 471.08222222222224 509.2888888888889 l 477.0905555555555 505.0388888888889 l 483.04 500.6 l 488.9305555555556 495.9722222222222 l 494.76222222222225 491.15555555555557 l 500.53499999999997 486.15000000000003 l 506.24888888888887 480.9555555555556 l 511.9038888888889 475.5722222222222 l 517.5 470 l 522.973888888889 464.2988888888889 l 528.2622222222222 458.5288888888889 l 533.365 452.69000000000005 l 538.2822222222222 446.78222222222223 l 543.013888888889 440.8055555555556 l 547.5600000000001 434.7600000000001 l 551.9205555555556 428.6455555555556 l 556.0955555555556 422.46222222222224 l 560.0849999999999 416.21 l 563.8888888888889 409.8888888888889 l 567.5072222222221 403.4988888888888 l 570.94 397.04 l 574.1872222222222 390.51222222222225 l 577.2488888888888 383.9155555555556 l 580.125 377.25 l 582.8155555555555 370.5155555555556 l 585.3205555555555 363.71222222222224 l 587.64 356.84000000000003 l 589.7738888888889 349.8988888888889 l 591.7222222222222 342.8888888888889 l 593.4849999999999 335.81 l 595.0622222222223 328.6622222222222 l 596.4538888888889 321.44555555555553 l 597.6600000000001 314.15999999999997 l 598.6805555555555 306.80555555555554 l 599.5155555555556 299.38222222222225 l 600.1650000000001 291.89 l 600.6288888888889 284.3288888888889 l 600.9072222222222 276.69888888888886 l 601 269 l 600.9066666666666 261.3038888888889 l 600.6266666666668 253.68222222222224 l 600.16 246.13500000000002 l 599.5066666666668 238.66222222222223 l 598.6666666666667 231.2638888888889 l 597.6400000000001 223.94000000000003 l 596.4266666666666 216.69055555555556 l 595.0266666666668 209.51555555555558 l 593.4399999999999 202.41499999999996 l 591.6666666666667 195.38888888888894 l 589.7066666666666 188.43722222222218 l 587.56 181.56 l 585.2266666666667 174.75722222222223 l 582.7066666666667 168.02888888888887 l 580 161.375 l 577.1066666666667 154.79555555555555 l 574.0266666666666 148.29055555555556 l 570.76 141.86 l 567.3066666666667 135.5038888888889 l 563.6666666666667 129.22222222222223 l 559.84 123.01500000000001 l 555.8266666666666 116.88222222222223 l 551.6266666666667 110.82388888888889 l 547.24 104.84 l 542.6666666666667 98.93055555555556 l 537.9066666666666 93.09555555555556 l 532.96 87.335 l 527.8266666666667 81.64888888888888 l 522.5066666666667 76.03722222222221 l 517 70.5 l 511.36277777777775 65.09166666666667 l 505.65111111111116 59.86666666666667 l 499.865 54.82500000000001 l 494.00444444444446 49.966666666666676 l 488.0694444444445 45.29166666666667 l 482.06000000000006 40.80000000000001 l 475.97611111111104 36.49166666666666 l 469.8177777777778 32.366666666666674 l 463.5849999999999 28.424999999999997 l 457.2777777777778 24.666666666666675 l 450.89611111111105 21.091666666666665 l 444.44000000000005 17.699999999999996 l 437.90944444444443 14.491666666666664 l 431.3044444444444 11.466666666666669 l 424.625 8.625 l 417.8711111111111 5.966666666666668 l 411.04277777777776 3.491666666666669 l 404.14 1.2000000000000028 l 397.1627777777778 -0.9083333333333306 l 390.11111111111114 -2.833333333333332 l 382.985 -4.574999999999998 l 375.7844444444445 -6.133333333333331 l 368.50944444444445 -7.508333333333336 l 361.15999999999997 -8.700000000000003 l 353.7361111111111 -9.708333333333334 l 346.2377777777778 -10.533333333333333 l 338.66499999999996 -11.175 l 331.0177777777778 -11.633333333333333 l 323.2961111111111 -11.908333333333333 l 315.5 -12 l 307.7055555555555 -11.908888888888889 l 299.9888888888889 -11.635555555555554 l 292.34999999999997 -11.18 l 284.78888888888895 -10.542222222222222 l 277.3055555555556 -9.722222222222223 l 269.9000000000001 -8.720000000000002 l 262.5722222222222 -7.535555555555554 l 255.32222222222228 -6.16888888888889 l 248.14999999999998 -4.619999999999998 l 241.0555555555556 -2.88888888888889 l 234.03888888888886 -0.9755555555555553 l 227.10000000000002 1.1200000000000028 l 220.23888888888888 3.3977777777777796 l 213.45555555555555 5.857777777777779 l 206.75 8.5 l 200.12222222222223 11.324444444444445 l 193.57222222222222 14.331111111111108 l 187.10000000000002 17.52 l 180.70555555555558 20.89111111111111 l 174.3888888888889 24.444444444444443 l 168.15 28.179999999999996 l 161.9888888888889 32.09777777777777 l 155.90555555555554 36.19777777777778 l 149.9 40.48000000000001 l 143.97222222222223 44.94444444444445 l 138.1222222222222 49.59111111111112 l 132.35 54.42 l 126.65555555555557 59.431111111111115 l 121.03888888888888 64.62444444444445 l 115.5 70 l 110.09166666666665 75.50388888888888 l 104.86666666666667 81.08222222222223 l 99.825 86.735 l 94.96666666666668 92.46222222222224 l 90.29166666666669 98.2638888888889 l 85.80000000000001 104.14000000000003 l 81.49166666666666 110.09055555555554 l 77.36666666666669 116.11555555555557 l 73.42499999999998 122.21499999999999 l 69.66666666666669 128.38888888888889 l 66.09166666666667 134.6372222222222 l 62.7 140.96 l 59.49166666666667 147.35722222222222 l 56.46666666666667 153.8288888888889 l 53.625 160.375 l 50.96666666666667 166.99555555555554 l 48.49166666666667 173.69055555555553 l 46.2 180.45999999999998 l 44.09166666666667 187.30388888888888 l 42.16666666666667 194.22222222222223 l 40.425 201.21499999999997 l 38.86666666666667 208.2822222222222 l 37.49166666666666 215.4238888888889 l 36.3 222.64000000000004 l 35.291666666666664 229.93055555555557 l 34.46666666666667 237.29555555555558 l 33.824999999999996 244.735 l 33.36666666666667 252.2488888888889 l 33.09166666666667 259.8372222222222 l 33 267.5 l 33.11222222222222 275.2005555555556 l 33.448888888888895 282.90222222222224 l 34.010000000000005 290.605 l 34.79555555555556 298.30888888888893 l 35.80555555555556 306.0138888888889 l 37.040000000000006 313.7200000000001 l 38.498888888888885 321.42722222222216 l 40.18222222222222 329.1355555555556 l 42.089999999999996 336.8449999999999 l 44.22222222222222 344.5555555555556 l 46.57888888888888 352.2672222222222 l 49.160000000000004 359.98 l 51.965555555555554 367.69388888888886 l 54.995555555555555 375.4088888888889 l 58.25 383.125 l 61.72888888888889 390.8422222222222 l 65.43222222222222 398.56055555555554 l 69.36 406.28 l 73.51222222222222 414.0005555555556 l 77.88888888888889 421.72222222222223 l 82.49 429.445 l 87.31555555555553 437.1688888888889 l 92.36555555555557 444.8938888888889 l 97.64000000000001 452.62000000000006 l 103.1388888888889 460.3472222222223 l 108.86222222222221 468.0755555555556 l 114.81 475.80500000000006 l 120.98222222222223 483.53555555555556 l 127.37888888888888 491.2672222222222 l 134 499 l 134 499 l 353 750 l 391 750 l 193 523 l 194.15777777777777 523.8627777777778 l 195.36444444444444 524.7177777777779 l 196.62000000000003 525.5650000000002 l 197.92444444444448 526.4044444444445 l 199.2777777777778 527.2361111111112 l 200.68000000000004 528.0600000000002 l 202.1311111111111 528.8761111111111 l 203.63111111111115 529.6844444444446 l 205.17999999999998 530.485 l 206.7777777777778 531.2777777777778 l 208.42444444444442 532.0627777777777 l 210.12 532.8399999999999 l 211.86444444444444 533.6094444444444 l 213.65777777777777 534.3711111111111 l 215.5 535.125 l 217.39111111111112 535.8711111111111 l 219.3311111111111 536.6094444444444 l 221.32 537.3399999999999 l 223.35777777777778 538.0627777777778 l 225.44444444444446 538.7777777777778 l 227.57999999999998 539.485 l 229.76444444444445 540.1844444444445 l 231.9977777777778 540.8761111111111 l 234.28000000000003 541.5600000000001 l 236.61111111111111 542.2361111111111 l 238.9911111111111 542.9044444444445 l 241.42000000000002 543.565 l 243.8977777777778 544.2177777777778 l 246.42444444444442 544.8627777777778 l 249 545.5 l 251.59666666666666 546.1227777777777 l 254.1866666666667 546.7244444444445 l 256.77000000000004 547.305 l 259.3466666666667 547.8644444444445 l 261.9166666666667 548.4027777777778 l 264.4800000000001 548.9200000000001 l 267.03666666666663 549.4161111111111 l 269.5866666666667 549.8911111111113 l 272.13 550.345 l 274.6666666666667 550.7777777777778 l 277.19666666666666 551.1894444444445 l 279.72 551.5799999999999 l 282.2366666666667 551.9494444444445 l 284.74666666666667 552.2977777777778 l 287.25 552.625 l 289.74666666666667 552.9311111111111 l 292.2366666666667 553.2161111111111 l 294.72 553.48 l 297.19666666666666 553.7227777777778 l 299.6666666666667 553.9444444444445 l 302.13 554.145 l 304.5866666666667 554.3244444444445 l 307.0366666666667 554.4827777777778 l 309.48 554.62 l 311.9166666666667 554.7361111111111 l 314.3466666666667 554.8311111111111 l 316.77 554.905 l 319.18666666666667 554.9577777777778 l 321.59666666666664 554.9894444444444 l 324 555 z m 64 269.5 l 64.08222222222221 262.56666666666666 l 64.3288888888889 255.70000000000002 l 64.74000000000001 248.9 l 65.31555555555556 242.16666666666669 l 66.05555555555556 235.50000000000003 l 66.96000000000001 228.90000000000006 l 68.02888888888889 222.36666666666665 l 69.26222222222223 215.90000000000003 l 70.66 209.49999999999997 l 72.22222222222223 203.16666666666669 l 73.94888888888887 196.89999999999998 l 75.84 190.7 l 77.89555555555555 184.56666666666666 l 80.11555555555555 178.49999999999997 l 82.5 172.5 l 85.04888888888888 166.56666666666666 l 87.76222222222222 160.7 l 90.64 154.90000000000003 l 93.68222222222222 149.16666666666666 l 96.88888888888889 143.50000000000003 l 100.25999999999999 137.9 l 103.79555555555555 132.36666666666667 l 107.49555555555557 126.89999999999999 l 111.36000000000001 121.5 l 115.3888888888889 116.16666666666666 l 119.58222222222223 110.89999999999999 l 123.94 105.7 l 128.46222222222224 100.56666666666666 l 133.14888888888888 95.49999999999999 l 138 90.5 l 142.9661111111111 85.61611111111111 l 147.9977777777778 80.89777777777778 l 153.095 76.345 l 158.2577777777778 71.95777777777778 l 163.48611111111111 67.73611111111111 l 168.78000000000003 63.68000000000001 l 174.13944444444442 59.78944444444444 l 179.5644444444445 56.064444444444455 l 185.05499999999998 52.50499999999999 l 190.61111111111114 49.11111111111112 l 196.23277777777776 45.882777777777775 l 201.92000000000002 42.82 l 207.67277777777778 39.922777777777775 l 213.49111111111114 37.191111111111105 l 219.375 34.625 l 225.32444444444445 32.224444444444444 l 231.33944444444444 29.989444444444445 l 237.42000000000002 27.92 l 243.56611111111113 26.016111111111115 l 249.7777777777778 24.27777777777778 l 256.05499999999995 22.705000000000002 l 262.3977777777778 21.29777777777778 l 268.80611111111114 20.056111111111107 l 275.28000000000003 18.98 l 281.81944444444446 18.069444444444443 l 288.4244444444445 17.324444444444445 l 295.095 16.745 l 301.8311111111111 16.331111111111113 l 308.63277777777773 16.08277777777778 l 315.5 16 l 322.3661111111111 16.08277777777778 l 329.1644444444445 16.331111111111113 l 335.89500000000004 16.745 l 342.5577777777778 17.324444444444445 l 349.1527777777778 18.069444444444446 l 355.68000000000006 18.980000000000004 l 362.13944444444445 20.05611111111111 l 368.53111111111116 21.29777777777778 l 374.8549999999999 22.705 l 381.11111111111114 24.27777777777778 l 387.29944444444436 26.01611111111111 l 393.42 27.92 l 399.47277777777776 29.989444444444445 l 405.4577777777778 32.224444444444444 l 411.375 34.625 l 417.22444444444443 37.19111111111111 l 423.00611111111107 39.922777777777775 l 428.72 42.82 l 434.3661111111111 45.882777777777775 l 439.94444444444446 49.111111111111114 l 445.455 52.504999999999995 l 450.89777777777783 56.06444444444443 l 456.27277777777783 59.78944444444445 l 461.58000000000004 63.68000000000001 l 466.81944444444446 67.73611111111111 l 471.9911111111111 71.95777777777778 l 477.095 76.345 l 482.1311111111111 80.89777777777778 l 487.09944444444443 85.6161111111111 l 492 90.5 l 496.78555555555556 95.50055555555555 l 501.40888888888895 100.56888888888889 l 505.87 105.70500000000001 l 510.1688888888889 110.90888888888888 l 514.3055555555555 116.18055555555557 l 518.2800000000001 121.52000000000002 l 522.0922222222222 126.92722222222223 l 525.7422222222224 132.40222222222224 l 529.2299999999999 137.945 l 532.5555555555557 143.55555555555557 l 535.7188888888888 149.23388888888888 l 538.72 154.98000000000002 l 541.5588888888889 160.7938888888889 l 544.2355555555555 166.67555555555555 l 546.75 172.625 l 549.1022222222222 178.64222222222222 l 551.2922222222221 184.72722222222222 l 553.32 190.88 l 555.1855555555555 197.10055555555556 l 556.8888888888889 203.3888888888889 l 558.4300000000001 209.745 l 559.8088888888889 216.1688888888889 l 561.0255555555556 222.66055555555556 l 562.08 229.22000000000003 l 562.9722222222222 235.84722222222223 l 563.7022222222222 242.54222222222222 l 564.27 249.305 l 564.6755555555555 256.1355555555556 l 564.9188888888889 263.0338888888889 l 565 270 l 564.9183333333334 276.96777777777777 l 564.6733333333334 283.87111111111113 l 564.265 290.71000000000004 l 563.6933333333333 297.4844444444445 l 562.9583333333335 304.19444444444446 l 562.0600000000001 310.8400000000001 l 560.9983333333332 317.42111111111114 l 559.7733333333334 323.93777777777785 l 558.385 330.38999999999993 l 556.8333333333334 336.7777777777778 l 555.1183333333333 343.1011111111111 l 553.24 349.36 l 551.1983333333333 355.55444444444447 l 548.9933333333333 361.6844444444444 l 546.625 367.75 l 544.0933333333334 373.7511111111111 l 541.3983333333333 379.6877777777778 l 538.54 385.56 l 535.5183333333333 391.36777777777775 l 532.3333333333334 397.1111111111111 l 528.985 402.79 l 525.4733333333334 408.40444444444444 l 521.7983333333334 413.95444444444445 l 517.96 419.44000000000005 l 513.9583333333334 424.8611111111111 l 509.79333333333335 430.21777777777777 l 505.465 435.51 l 500.97333333333336 440.7377777777778 l 496.3183333333333 445.90111111111105 l 491.5 451 l 486.5683333333333 455.9822222222222 l 481.5733333333334 460.7955555555556 l 476.51500000000004 465.44 l 471.3933333333334 469.91555555555556 l 466.2083333333334 474.2222222222223 l 460.96000000000004 478.36000000000007 l 455.6483333333333 482.32888888888886 l 450.2733333333334 486.128888888889 l 444.835 489.76 l 439.33333333333337 493.2222222222223 l 433.7683333333333 496.5155555555555 l 428.14 499.64 l 422.44833333333327 502.59555555555556 l 416.6933333333333 505.3822222222222 l 410.875 508 l 404.99333333333334 510.44888888888886 l 399.0483333333333 512.7288888888888 l 393.03999999999996 514.84 l 386.96833333333336 516.7822222222222 l 380.83333333333337 518.5555555555555 l 374.635 520.1600000000001 l 368.37333333333333 521.5955555555556 l 362.04833333333335 522.8622222222223 l 355.66 523.96 l 349.20833333333337 524.8888888888889 l 342.6933333333333 525.6488888888889 l 336.115 526.24 l 329.4733333333333 526.6622222222222 l 322.7683333333333 526.9155555555556 l 316 527 l 309.22999999999996 526.915 l 302.52000000000004 526.6600000000001 l 295.87 526.235 l 289.28 525.6400000000001 l 282.75 524.8750000000001 l 276.28000000000003 523.9400000000002 l 269.87 522.8349999999999 l 263.52000000000004 521.5600000000001 l 257.22999999999996 520.1149999999999 l 251.00000000000006 518.5 l 244.82999999999996 516.7149999999999 l 238.72 514.76 l 232.67 512.635 l 226.68 510.34 l 220.75 507.875 l 214.88 505.24 l 209.07 502.43499999999995 l 203.32 499.46 l 197.63 496.31500000000005 l 192 493 l 186.43 489.515 l 180.92000000000002 485.86 l 175.46999999999997 482.035 l 170.07999999999998 478.04 l 164.75 473.875 l 159.48 469.54 l 154.26999999999998 465.035 l 149.12 460.36 l 144.03 455.515 l 139 450.5 l 134.08333333333334 445.3688888888889 l 129.33333333333334 440.1755555555556 l 124.75 434.92 l 120.33333333333333 429.6022222222222 l 116.08333333333334 424.2222222222223 l 112.00000000000003 418.7800000000001 l 108.08333333333333 413.2755555555555 l 104.33333333333336 407.7088888888889 l 100.74999999999999 402.0799999999999 l 97.33333333333336 396.3888888888889 l 94.08333333333331 390.63555555555547 l 91 384.82 l 88.08333333333333 378.9422222222222 l 85.33333333333333 373.00222222222226 l 82.75 367 l 80.33333333333334 360.93555555555554 l 78.08333333333333 354.8088888888889 l 76 348.62 l 74.08333333333334 342.3688888888889 l 72.33333333333334 336.05555555555554 l 70.75 329.68 l 69.33333333333334 323.2422222222222 l 68.08333333333333 316.7422222222222 l 67 310.18 l 66.08333333333334 303.55555555555554 l 65.33333333333334 296.86888888888893 l 64.75 290.12 l 64.33333333333334 283.3088888888889 l 64.08333333333333 276.43555555555554 l 64 269.5 z"},"7":{"x_min":20,"x_max":515,"ha":535,"o":"m 20 719 l 20 748 l 515 748 l 129 0 l 92 0 l 463 719 l 20 719 z"},"8":{"x_min":30,"x_max":539,"ha":569,"o":"m 435 609 l 435 609 l 434.97555555555556 606.2733333333332 l 434.90222222222224 603.5600000000001 l 434.78000000000003 600.86 l 434.60888888888894 598.1733333333333 l 434.38888888888897 595.5000000000001 l 434.12 592.8400000000001 l 433.80222222222216 590.1933333333333 l 433.4355555555556 587.5600000000002 l 433.02 584.94 l 432.55555555555566 582.3333333333334 l 432.0422222222222 579.7399999999999 l 431.48 577.16 l 430.8688888888888 574.5933333333332 l 430.20888888888885 572.04 l 429.5 569.5 l 428.7422222222222 566.9733333333334 l 427.93555555555554 564.46 l 427.08 561.96 l 426.17555555555555 559.4733333333334 l 425.22222222222223 557 l 424.22 554.54 l 423.1688888888889 552.0933333333334 l 422.0688888888889 549.6600000000001 l 420.92 547.24 l 419.72222222222223 544.8333333333333 l 418.47555555555556 542.4399999999999 l 417.18 540.06 l 415.8355555555556 537.6933333333334 l 414.4422222222222 535.3399999999999 l 413 533 l 411.5155555555556 530.6833333333334 l 409.99555555555554 528.4 l 408.44 526.15 l 406.84888888888895 523.9333333333333 l 405.2222222222223 521.7500000000001 l 403.56000000000006 519.6000000000001 l 401.8622222222222 517.4833333333333 l 400.128888888889 515.4000000000001 l 398.35999999999996 513.3499999999999 l 396.5555555555556 511.33333333333337 l 394.7155555555555 509.34999999999997 l 392.84000000000003 507.4 l 390.9288888888889 505.4833333333333 l 388.9822222222223 503.59999999999997 l 387 501.75 l 384.9822222222222 499.93333333333334 l 382.9288888888889 498.15 l 380.84000000000003 496.4 l 378.7155555555555 494.68333333333334 l 376.55555555555554 493 l 374.36 491.35 l 372.1288888888889 489.73333333333335 l 369.8622222222222 488.15000000000003 l 367.56 486.6 l 365.22222222222223 485.08333333333337 l 362.8488888888889 483.6 l 360.44 482.15 l 357.9955555555556 480.73333333333335 l 355.5155555555555 479.34999999999997 l 353 478 l 353 478 l 358.36833333333334 476.6122222222222 l 363.6733333333334 475.11555555555555 l 368.915 473.51 l 374.09333333333336 471.7955555555556 l 379.20833333333337 469.9722222222223 l 384.26000000000005 468.04000000000013 l 389.2483333333333 465.99888888888887 l 394.1733333333334 463.84888888888895 l 399.03499999999997 461.5899999999999 l 403.83333333333337 459.2222222222223 l 408.56833333333327 456.7455555555555 l 413.24 454.15999999999997 l 417.8483333333333 451.4655555555555 l 422.3933333333334 448.6622222222222 l 426.875 445.75 l 431.2933333333334 442.7288888888889 l 435.6483333333333 439.5988888888889 l 439.94 436.36 l 444.16833333333335 433.01222222222225 l 448.33333333333337 429.55555555555554 l 452.435 425.99 l 456.47333333333336 422.3155555555556 l 460.4483333333333 418.53222222222223 l 464.36 414.64 l 468.20833333333337 410.6388888888889 l 471.9933333333334 406.5288888888889 l 475.715 402.31 l 479.3733333333334 397.9822222222223 l 482.9683333333333 393.54555555555555 l 486.5 389 l 489.94166666666666 384.3855555555555 l 493.26666666666677 379.74222222222227 l 496.475 375.07000000000005 l 499.5666666666668 370.36888888888893 l 502.54166666666674 365.6388888888889 l 505.40000000000015 360.88000000000005 l 508.1416666666666 356.0922222222222 l 510.7666666666668 351.2755555555556 l 513.275 346.43 l 515.6666666666667 341.5555555555556 l 517.9416666666666 336.6522222222222 l 520.1 331.71999999999997 l 522.1416666666667 326.7588888888889 l 524.0666666666667 321.7688888888889 l 525.875 316.75 l 527.5666666666667 311.70222222222225 l 529.1416666666667 306.62555555555554 l 530.6 301.52 l 531.9416666666667 296.3855555555556 l 533.1666666666667 291.22222222222223 l 534.275 286.03000000000003 l 535.2666666666667 280.80888888888893 l 536.1416666666667 275.5588888888889 l 536.9000000000001 270.28 l 537.5416666666667 264.97222222222223 l 538.0666666666667 259.6355555555556 l 538.475 254.26999999999998 l 538.7666666666667 248.87555555555554 l 538.9416666666666 243.45222222222222 l 539 238 l 539 238 l 538.9172222222222 231.1 l 538.6688888888889 224.26666666666668 l 538.255 217.5 l 537.6755555555555 210.8 l 536.9305555555557 204.16666666666669 l 536.0200000000002 197.60000000000005 l 534.9438888888889 191.1 l 533.7022222222223 184.6666666666667 l 532.295 178.29999999999998 l 530.7222222222223 172.00000000000003 l 528.9838888888888 165.76666666666665 l 527.08 159.6 l 525.0105555555556 153.5 l 522.7755555555556 147.46666666666664 l 520.375 141.5 l 517.8088888888889 135.6 l 515.0772222222222 129.76666666666665 l 512.18 124 l 509.11722222222227 118.30000000000001 l 505.8888888888889 112.66666666666666 l 502.495 107.10000000000001 l 498.93555555555554 101.6 l 495.2105555555556 96.16666666666666 l 491.32 90.8 l 487.2638888888889 85.5 l 483.0422222222222 80.26666666666667 l 478.655 75.1 l 474.1022222222222 70 l 469.38388888888886 64.96666666666667 l 464.5 60 l 459.4994444444444 55.148888888888884 l 454.43111111111114 50.46222222222222 l 449.295 45.94 l 444.0911111111111 41.58222222222222 l 438.8194444444445 37.3888888888889 l 433.48 33.36 l 428.0727777777778 29.495555555555555 l 422.5977777777778 25.795555555555563 l 417.05499999999995 22.259999999999994 l 411.4444444444445 18.888888888888893 l 405.76611111111106 15.682222222222222 l 400.02 12.639999999999999 l 394.2061111111111 9.76222222222222 l 388.3244444444444 7.048888888888889 l 382.375 4.5 l 376.35777777777776 2.1155555555555576 l 370.2727777777778 -0.10444444444444301 l 364.12 -2.1599999999999984 l 357.89944444444444 -4.051111111111109 l 351.6111111111111 -5.777777777777776 l 345.255 -7.339999999999999 l 338.8311111111111 -8.737777777777776 l 332.33944444444444 -9.971111111111112 l 325.78 -11.040000000000003 l 319.15277777777777 -11.944444444444446 l 312.4577777777778 -12.684444444444445 l 305.695 -13.26 l 298.8644444444444 -13.671111111111111 l 291.9661111111111 -13.917777777777776 l 285 -14 l 278.03333333333336 -13.917222222222222 l 271.1333333333333 -13.66888888888889 l 264.3 -13.254999999999999 l 257.53333333333336 -12.675555555555556 l 250.83333333333334 -11.930555555555557 l 244.20000000000005 -11.020000000000001 l 237.6333333333333 -9.943888888888889 l 231.13333333333338 -8.702222222222225 l 224.69999999999996 -7.294999999999999 l 218.33333333333334 -5.722222222222225 l 212.03333333333333 -3.98388888888889 l 205.8 -2.0799999999999983 l 199.63333333333333 -0.010555555555553653 l 193.53333333333333 2.224444444444446 l 187.5 4.625 l 181.53333333333333 7.191111111111113 l 175.63333333333335 9.922777777777775 l 169.8 12.819999999999997 l 164.03333333333333 15.882777777777774 l 158.33333333333334 19.111111111111107 l 152.70000000000002 22.504999999999995 l 147.13333333333333 26.064444444444433 l 141.63333333333333 29.78944444444445 l 136.2 33.68000000000001 l 130.83333333333331 37.736111111111114 l 125.53333333333333 41.957777777777785 l 120.30000000000001 46.345000000000006 l 115.13333333333333 50.89777777777778 l 110.03333333333333 55.61611111111111 l 105 60.5 l 100.08333333333333 65.49833333333333 l 95.33333333333334 70.56 l 90.75000000000001 75.685 l 86.33333333333334 80.87333333333333 l 82.08333333333333 86.125 l 78.00000000000001 91.44000000000001 l 74.08333333333333 96.81833333333333 l 70.33333333333336 102.26000000000002 l 66.75 107.765 l 63.33333333333335 113.33333333333334 l 60.08333333333333 118.96499999999997 l 57 124.66 l 54.08333333333333 130.41833333333335 l 51.33333333333333 136.24 l 48.75 142.125 l 46.33333333333333 148.07333333333332 l 44.083333333333336 154.08499999999998 l 42 160.16 l 40.083333333333336 166.29833333333332 l 38.333333333333336 172.5 l 36.75 178.765 l 35.333333333333336 185.09333333333333 l 34.08333333333333 191.485 l 33 197.94000000000003 l 32.083333333333336 204.45833333333334 l 31.333333333333332 211.04 l 30.75 217.685 l 30.333333333333336 224.39333333333335 l 30.083333333333332 231.165 l 30 238 l 30 238 l 30.05611111111111 243.3188888888889 l 30.224444444444448 248.60888888888888 l 30.505000000000003 253.87 l 30.89777777777778 259.1022222222222 l 31.402777777777782 264.3055555555556 l 32.02 269.48 l 32.74944444444444 274.62555555555554 l 33.59111111111112 279.74222222222227 l 34.544999999999995 284.83 l 35.611111111111114 289.8888888888889 l 36.78944444444444 294.91888888888883 l 38.08 299.92 l 39.48277777777778 304.89222222222224 l 40.997777777777785 309.8355555555555 l 42.625 314.75 l 44.364444444444445 319.6355555555555 l 46.216111111111104 324.49222222222227 l 48.18 329.32 l 50.25611111111111 334.11888888888893 l 52.44444444444444 338.8888888888889 l 54.745 343.63 l 57.15777777777778 348.34222222222223 l 59.68277777777779 353.02555555555557 l 62.32000000000001 357.68 l 65.06944444444446 362.30555555555554 l 67.93111111111111 366.90222222222224 l 70.905 371.47 l 73.99111111111111 376.0088888888889 l 77.18944444444445 380.5188888888889 l 80.5 385 l 83.89833333333334 389.4188888888889 l 87.36000000000001 393.7422222222222 l 90.88499999999999 397.97 l 94.47333333333334 402.1022222222223 l 98.12500000000001 406.1388888888889 l 101.84000000000003 410.0800000000001 l 105.61833333333333 413.92555555555555 l 109.46000000000001 417.6755555555556 l 113.36499999999998 421.33 l 117.33333333333334 424.8888888888889 l 121.36499999999998 428.35222222222217 l 125.46000000000001 431.71999999999997 l 129.61833333333334 434.99222222222227 l 133.84 438.1688888888889 l 138.125 441.25 l 142.47333333333336 444.2355555555555 l 146.885 447.1255555555555 l 151.35999999999999 449.91999999999996 l 155.8983333333333 452.6188888888889 l 160.5 455.22222222222223 l 165.165 457.73 l 169.89333333333332 460.14222222222224 l 174.685 462.45888888888885 l 179.54000000000002 464.68 l 184.45833333333334 466.80555555555554 l 189.44 468.8355555555555 l 194.485 470.77 l 199.59333333333333 472.6088888888889 l 204.765 474.3522222222222 l 210 476 l 210 476 l 207.54777777777775 477.2211111111111 l 205.12444444444446 478.4844444444445 l 202.73000000000005 479.79 l 200.36444444444444 481.1377777777778 l 198.0277777777778 482.5277777777778 l 195.72000000000006 483.9600000000001 l 193.4411111111111 485.4344444444444 l 191.19111111111116 486.9511111111112 l 188.97 488.51 l 186.7777777777778 490.1111111111112 l 184.61444444444444 491.7544444444444 l 182.48 493.44000000000005 l 180.37444444444444 495.1677777777778 l 178.29777777777778 496.9377777777778 l 176.25 498.75 l 174.23111111111112 500.6044444444444 l 172.2411111111111 502.5011111111111 l 170.28 504.44000000000005 l 168.3477777777778 506.42111111111114 l 166.44444444444446 508.44444444444446 l 164.57 510.51 l 162.72444444444446 512.6177777777777 l 160.90777777777777 514.7677777777778 l 159.12 516.96 l 157.36111111111111 519.1944444444445 l 155.63111111111112 521.4711111111111 l 153.93 523.79 l 152.25777777777776 526.1511111111112 l 150.61444444444444 528.5544444444445 l 149 531 l 147.42666666666665 533.4711111111111 l 145.90666666666664 535.9511111111112 l 144.44000000000003 538.44 l 143.0266666666667 540.9377777777778 l 141.66666666666669 543.4444444444445 l 140.36 545.9600000000002 l 139.10666666666665 548.4844444444444 l 137.9066666666667 551.0177777777778 l 136.76 553.56 l 135.66666666666669 556.1111111111112 l 134.62666666666664 558.671111111111 l 133.64000000000001 561.24 l 132.70666666666665 563.8177777777778 l 131.82666666666668 566.4044444444444 l 131 569 l 130.2266666666667 571.6044444444444 l 129.50666666666666 574.2177777777778 l 128.84 576.84 l 128.2266666666667 579.4711111111111 l 127.66666666666666 582.1111111111111 l 127.16 584.76 l 126.70666666666668 587.4177777777777 l 126.30666666666667 590.0844444444444 l 125.96000000000001 592.76 l 125.66666666666667 595.4444444444445 l 125.42666666666668 598.1377777777777 l 125.24 600.84 l 125.10666666666667 603.5511111111111 l 125.02666666666667 606.271111111111 l 125 609 l 125 609 l 125.05 613.1788888888888 l 125.20000000000002 617.3155555555555 l 125.45 621.41 l 125.80000000000001 625.4622222222222 l 126.25000000000003 629.4722222222224 l 126.80000000000003 633.44 l 127.44999999999999 637.3655555555556 l 128.20000000000005 641.248888888889 l 129.05 645.0899999999999 l 130 648.888888888889 l 131.04999999999998 652.6455555555555 l 132.20000000000002 656.36 l 133.45 660.0322222222221 l 134.8 663.6622222222222 l 136.25 667.25 l 137.8 670.7955555555556 l 139.45 674.2988888888889 l 141.2 677.76 l 143.05 681.1788888888889 l 145 684.5555555555557 l 147.05 687.89 l 149.2 691.1822222222222 l 151.45 694.4322222222222 l 153.8 697.64 l 156.25 700.8055555555555 l 158.8 703.9288888888889 l 161.45000000000002 707.01 l 164.20000000000002 710.048888888889 l 167.05 713.0455555555556 l 170 716 l 173.02166666666668 718.8844444444444 l 176.08666666666667 721.6711111111111 l 179.19500000000002 724.36 l 182.3466666666667 726.9511111111111 l 185.54166666666669 729.4444444444445 l 188.78000000000003 731.84 l 192.06166666666667 734.1377777777777 l 195.38666666666668 736.337777777778 l 198.75499999999997 738.4399999999999 l 202.16666666666669 740.4444444444446 l 205.62166666666664 742.351111111111 l 209.12 744.16 l 212.66166666666666 745.8711111111111 l 216.24666666666667 747.4844444444445 l 219.875 749 l 223.54666666666668 750.4177777777778 l 227.26166666666666 751.7377777777779 l 231.01999999999998 752.96 l 234.82166666666666 754.0844444444444 l 238.66666666666669 755.1111111111111 l 242.555 756.04 l 246.48666666666668 756.8711111111111 l 250.46166666666664 757.6044444444444 l 254.48000000000002 758.24 l 258.5416666666667 758.7777777777778 l 262.64666666666665 759.2177777777779 l 266.795 759.56 l 270.9866666666667 759.8044444444445 l 275.22166666666664 759.9511111111111 l 279.5 760 l 283.7788888888889 759.9511111111111 l 288.0155555555555 759.8044444444445 l 292.21 759.5600000000001 l 296.3622222222222 759.2177777777779 l 300.4722222222223 758.7777777777778 l 304.54 758.2400000000001 l 308.56555555555553 757.6044444444444 l 312.54888888888894 756.8711111111113 l 316.48999999999995 756.04 l 320.3888888888889 755.1111111111112 l 324.2455555555555 754.0844444444443 l 328.06 752.96 l 331.83222222222224 751.7377777777778 l 335.5622222222222 750.4177777777777 l 339.25 749 l 342.8955555555555 747.4844444444444 l 346.49888888888887 745.8711111111112 l 350.06 744.1600000000001 l 353.57888888888886 742.3511111111111 l 357.05555555555554 740.4444444444446 l 360.49 738.44 l 363.88222222222225 736.3377777777778 l 367.2322222222222 734.1377777777777 l 370.54 731.84 l 373.80555555555554 729.4444444444445 l 377.0288888888889 726.951111111111 l 380.21 724.36 l 383.3488888888889 721.6711111111111 l 386.44555555555553 718.8844444444444 l 389.5 716 l 392.48277777777776 713.0455555555554 l 395.3644444444445 710.048888888889 l 398.14500000000004 707.0100000000001 l 400.8244444444445 703.928888888889 l 403.40277777777777 700.8055555555555 l 405.88000000000005 697.6400000000001 l 408.2561111111111 694.4322222222221 l 410.5311111111112 691.1822222222222 l 412.7049999999999 687.8899999999999 l 414.77777777777777 684.5555555555555 l 416.7494444444444 681.1788888888888 l 418.62 677.76 l 420.38944444444445 674.2988888888889 l 422.0577777777778 670.7955555555556 l 423.625 667.25 l 425.0911111111111 663.6622222222222 l 426.4561111111111 660.0322222222221 l 427.72 656.36 l 428.88277777777773 652.6455555555556 l 429.94444444444446 648.8888888888889 l 430.905 645.0899999999999 l 431.7644444444444 641.2488888888888 l 432.52277777777783 637.3655555555556 l 433.18 633.44 l 433.7361111111111 629.4722222222223 l 434.1911111111111 625.4622222222222 l 434.545 621.41 l 434.79777777777775 617.3155555555555 l 434.9494444444444 613.1788888888888 l 435 609 z m 279.5 732 l 276.2144444444444 731.9594444444444 l 272.9577777777778 731.8377777777779 l 269.73 731.6350000000001 l 266.5311111111111 731.3511111111111 l 263.36111111111114 730.9861111111112 l 260.22 730.5400000000002 l 257.10777777777776 730.0127777777776 l 254.0244444444445 729.4044444444445 l 250.96999999999997 728.7149999999999 l 247.94444444444446 727.9444444444446 l 244.94777777777773 727.0927777777777 l 241.98 726.16 l 239.04111111111112 725.146111111111 l 236.13111111111107 724.0511111111111 l 233.25 722.875 l 230.39777777777775 721.6177777777777 l 227.57444444444442 720.2794444444445 l 224.78 718.86 l 222.01444444444445 717.3594444444444 l 219.2777777777778 715.7777777777778 l 216.57 714.115 l 213.89111111111112 712.3711111111111 l 211.2411111111111 710.546111111111 l 208.62 708.64 l 206.0277777777778 706.6527777777778 l 203.46444444444444 704.5844444444444 l 200.93 702.435 l 198.42444444444445 700.2044444444446 l 195.9477777777778 697.8927777777777 l 193.5 695.5 l 191.10722222222222 693.0527777777777 l 188.79555555555555 690.5777777777779 l 186.565 688.075 l 184.41555555555558 685.5444444444445 l 182.34722222222226 682.9861111111112 l 180.36000000000004 680.4000000000001 l 178.45388888888888 677.786111111111 l 176.62888888888895 675.1444444444445 l 174.885 672.4749999999999 l 173.22222222222223 669.7777777777778 l 171.64055555555555 667.0527777777777 l 170.14 664.3000000000001 l 168.72055555555553 661.5194444444445 l 167.3822222222222 658.7111111111111 l 166.125 655.875 l 164.9488888888889 653.0111111111112 l 163.85388888888886 650.1194444444444 l 162.84 647.2 l 161.9072222222222 644.2527777777777 l 161.05555555555554 641.2777777777778 l 160.28500000000003 638.2750000000001 l 159.59555555555556 635.2444444444444 l 158.98722222222221 632.1861111111111 l 158.46 629.1 l 158.01388888888889 625.9861111111111 l 157.6488888888889 622.8444444444444 l 157.365 619.675 l 157.16222222222223 616.4777777777779 l 157.04055555555556 613.2527777777777 l 157 610 l 157.04055555555556 606.7472222222221 l 157.16222222222223 603.5222222222224 l 157.365 600.325 l 157.6488888888889 597.1555555555556 l 158.0138888888889 594.0138888888889 l 158.46000000000004 590.9000000000001 l 158.98722222222221 587.8138888888889 l 159.59555555555556 584.7555555555557 l 160.285 581.725 l 161.05555555555557 578.7222222222222 l 161.9072222222222 575.7472222222221 l 162.84 572.8 l 163.8538888888889 569.8805555555555 l 164.9488888888889 566.9888888888889 l 166.125 564.125 l 167.38222222222223 561.2888888888889 l 168.72055555555556 558.4805555555556 l 170.14 555.7 l 171.64055555555555 552.9472222222222 l 173.22222222222223 550.2222222222222 l 174.885 547.525 l 176.6288888888889 544.8555555555556 l 178.4538888888889 542.213888888889 l 180.36 539.6 l 182.34722222222223 537.0138888888889 l 184.41555555555556 534.4555555555555 l 186.565 531.925 l 188.79555555555555 529.4222222222222 l 191.10722222222222 526.9472222222222 l 193.5 524.5 l 195.9477777777778 522.1072222222222 l 198.42444444444442 519.7955555555557 l 200.93 517.565 l 203.46444444444447 515.4155555555557 l 206.0277777777778 513.3472222222223 l 208.62000000000003 511.36000000000007 l 211.24111111111108 509.45388888888886 l 213.89111111111114 507.628888888889 l 216.56999999999996 505.88499999999993 l 219.27777777777777 504.2222222222223 l 222.01444444444442 502.6405555555555 l 224.78 501.14 l 227.57444444444442 499.72055555555556 l 230.39777777777778 498.38222222222225 l 233.25 497.125 l 236.13111111111107 495.94888888888886 l 239.0411111111111 494.8538888888889 l 241.97999999999996 493.84 l 244.9477777777778 492.90722222222223 l 247.94444444444446 492.05555555555554 l 250.97 491.28499999999997 l 254.02444444444444 490.5955555555556 l 257.10777777777776 489.9872222222222 l 260.22 489.46000000000004 l 263.36111111111114 489.0138888888889 l 266.5311111111111 488.6488888888889 l 269.73 488.365 l 272.9577777777778 488.1622222222222 l 276.21444444444444 488.0405555555555 l 279.5 488 l 282.78611111111115 488.04055555555556 l 286.0444444444444 488.1622222222222 l 289.27500000000003 488.365 l 292.47777777777776 488.64888888888896 l 295.6527777777778 489.0138888888889 l 298.8 489.4600000000001 l 301.9194444444444 489.98722222222216 l 305.0111111111112 490.59555555555556 l 308.075 491.2849999999999 l 311.11111111111114 492.0555555555556 l 314.1194444444444 492.9072222222222 l 317.09999999999997 493.84 l 320.0527777777778 494.8538888888889 l 322.97777777777776 495.94888888888886 l 325.875 497.125 l 328.74444444444447 498.38222222222225 l 331.5861111111111 499.72055555555556 l 334.4 501.14 l 337.18611111111113 502.6405555555556 l 339.94444444444446 504.22222222222223 l 342.67499999999995 505.885 l 345.37777777777774 507.6288888888889 l 348.0527777777778 509.4538888888889 l 350.70000000000005 511.36 l 353.31944444444446 513.3472222222222 l 355.91111111111115 515.4155555555556 l 358.475 517.565 l 361.0111111111112 519.7955555555556 l 363.51944444444445 522.1072222222222 l 366 524.5 l 368.42555555555555 526.9472222222222 l 370.7688888888889 529.4222222222223 l 373.0300000000001 531.9250000000001 l 375.2088888888889 534.4555555555556 l 377.3055555555556 537.0138888888889 l 379.32000000000005 539.6 l 381.2522222222222 542.2138888888888 l 383.1022222222222 544.8555555555556 l 384.86999999999995 547.525 l 386.5555555555556 550.2222222222222 l 388.15888888888884 552.9472222222221 l 389.68 555.7 l 391.11888888888893 558.4805555555555 l 392.47555555555556 561.2888888888889 l 393.75 564.125 l 394.94222222222226 566.9888888888888 l 396.0522222222222 569.8805555555556 l 397.08 572.8 l 398.02555555555557 575.7472222222223 l 398.8888888888889 578.7222222222222 l 399.67 581.725 l 400.3688888888889 584.7555555555555 l 400.98555555555555 587.8138888888889 l 401.52000000000004 590.9000000000001 l 401.97222222222223 594.0138888888889 l 402.3422222222222 597.1555555555556 l 402.63 600.325 l 402.8355555555556 603.5222222222222 l 402.9588888888889 606.7472222222221 l 403 610 l 402.9588888888889 613.2527777777777 l 402.8355555555556 616.4777777777779 l 402.63000000000005 619.6750000000001 l 402.34222222222223 622.8444444444444 l 401.9722222222223 625.9861111111112 l 401.5200000000001 629.1000000000003 l 400.98555555555555 632.186111111111 l 400.36888888888893 635.2444444444445 l 399.66999999999996 638.275 l 398.88888888888897 641.2777777777778 l 398.0255555555555 644.2527777777777 l 397.08 647.1999999999999 l 396.0522222222222 650.1194444444444 l 394.9422222222222 653.0111111111112 l 393.75 655.875 l 392.47555555555556 658.7111111111111 l 391.1188888888889 661.5194444444445 l 389.68 664.3 l 388.1588888888889 667.0527777777777 l 386.55555555555554 669.7777777777778 l 384.87 672.475 l 383.1022222222222 675.1444444444444 l 381.25222222222226 677.786111111111 l 379.32000000000005 680.4 l 377.30555555555554 682.9861111111111 l 375.2088888888889 685.5444444444445 l 373.03000000000003 688.075 l 370.7688888888889 690.5777777777778 l 368.42555555555555 693.0527777777777 l 366 695.5 l 363.51944444444445 697.8927777777777 l 361.0111111111111 700.2044444444446 l 358.4750000000001 702.4350000000001 l 355.91111111111115 704.5844444444444 l 353.3194444444445 706.6527777777779 l 350.70000000000005 708.6400000000001 l 348.05277777777775 710.5461111111111 l 345.3777777777778 712.3711111111112 l 342.67499999999995 714.1149999999999 l 339.94444444444446 715.7777777777779 l 337.186111111111 717.3594444444444 l 334.4 718.86 l 331.5861111111111 720.2794444444445 l 328.7444444444444 721.6177777777777 l 325.875 722.875 l 322.97777777777776 724.0511111111111 l 320.05277777777775 725.146111111111 l 317.09999999999997 726.1600000000001 l 314.1194444444444 727.0927777777777 l 311.11111111111114 727.9444444444446 l 308.075 728.715 l 305.0111111111111 729.4044444444444 l 301.9194444444444 730.0127777777777 l 298.8 730.54 l 295.65277777777777 730.9861111111111 l 292.47777777777776 731.3511111111111 l 289.275 731.635 l 286.0444444444444 731.8377777777778 l 282.7861111111111 731.9594444444444 l 279.5 732 z m 63 236.5 l 63.07277777777778 230.49444444444444 l 63.29111111111111 224.54444444444445 l 63.655 218.65000000000003 l 64.16444444444446 212.8111111111111 l 64.81944444444446 207.0277777777778 l 65.62 201.30000000000004 l 66.5661111111111 195.62777777777777 l 67.6577777777778 190.01111111111112 l 68.895 184.45 l 70.27777777777779 178.94444444444449 l 71.80611111111111 173.4944444444444 l 73.48 168.1 l 75.29944444444445 162.7611111111111 l 77.26444444444445 157.47777777777776 l 79.375 152.25 l 81.63111111111111 147.07777777777778 l 84.03277777777777 141.9611111111111 l 86.58 136.9 l 89.27277777777778 131.89444444444445 l 92.11111111111111 126.94444444444446 l 95.095 122.05000000000001 l 98.22444444444444 117.21111111111112 l 101.49944444444445 112.42777777777778 l 104.92 107.69999999999999 l 108.48611111111113 103.02777777777777 l 112.19777777777777 98.4111111111111 l 116.055 93.85 l 120.05777777777777 89.34444444444445 l 124.2061111111111 84.89444444444445 l 128.5 80.5 l 132.89499999999998 76.20611111111111 l 137.3466666666667 72.05777777777777 l 141.855 68.055 l 146.42000000000002 64.19777777777779 l 151.04166666666669 60.486111111111114 l 155.72000000000003 56.92000000000001 l 160.455 53.49944444444444 l 165.24666666666667 50.22444444444446 l 170.095 47.09499999999999 l 175 44.111111111111114 l 179.96166666666664 41.272777777777776 l 184.98000000000002 38.58 l 190.055 36.032777777777774 l 195.18666666666667 33.63111111111111 l 200.375 31.375 l 205.62 29.264444444444443 l 210.92166666666665 27.299444444444443 l 216.27999999999997 25.48 l 221.695 23.806111111111115 l 227.16666666666669 22.27777777777778 l 232.695 20.895 l 238.28 19.65777777777778 l 243.92166666666668 18.566111111111113 l 249.62 17.619999999999997 l 255.375 16.819444444444443 l 261.18666666666667 16.16444444444444 l 267.055 15.655 l 272.98 15.291111111111112 l 278.96166666666664 15.072777777777777 l 285 15 l 291.03777777777776 15.072777777777777 l 297.0177777777778 15.291111111111114 l 302.94000000000005 15.655000000000001 l 308.80444444444447 16.164444444444445 l 314.61111111111114 16.819444444444446 l 320.36 17.620000000000005 l 326.0511111111111 18.566111111111113 l 331.68444444444447 19.65777777777778 l 337.25999999999993 20.895 l 342.7777777777778 22.27777777777778 l 348.23777777777775 23.806111111111107 l 353.64 25.48 l 358.9844444444444 27.299444444444447 l 364.2711111111111 29.264444444444447 l 369.5 31.375 l 374.6711111111111 33.63111111111111 l 379.78444444444443 36.032777777777774 l 384.84 38.58 l 389.8377777777778 41.272777777777776 l 394.77777777777777 44.111111111111114 l 399.65999999999997 47.09499999999999 l 404.4844444444444 50.224444444444444 l 409.25111111111113 53.49944444444445 l 413.96000000000004 56.92000000000001 l 418.61111111111114 60.486111111111114 l 423.20444444444445 64.19777777777777 l 427.74 68.05499999999999 l 432.21777777777777 72.05777777777779 l 436.6377777777777 76.20611111111111 l 441 80.5 l 445.26111111111106 84.895 l 449.3777777777778 89.34666666666666 l 453.3500000000001 93.855 l 457.17777777777775 98.42000000000002 l 460.8611111111112 103.04166666666667 l 464.4000000000001 107.72000000000001 l 467.79444444444437 112.45499999999998 l 471.04444444444454 117.24666666666667 l 474.15 122.09499999999998 l 477.11111111111114 127.00000000000001 l 479.9277777777777 131.96166666666664 l 482.6 136.98000000000002 l 485.1277777777778 142.055 l 487.51111111111106 147.18666666666667 l 489.75 152.375 l 491.84444444444443 157.62 l 493.79444444444437 162.92166666666665 l 495.6 168.28 l 497.26111111111106 173.695 l 498.7777777777778 179.16666666666669 l 500.15 184.695 l 501.37777777777774 190.28 l 502.4611111111111 195.92166666666668 l 503.4000000000001 201.62000000000003 l 504.19444444444446 207.375 l 504.84444444444443 213.18666666666667 l 505.35 219.055 l 505.7111111111111 224.98000000000002 l 505.92777777777775 230.96166666666667 l 506 237 l 505.92777777777775 243.0388888888889 l 505.7111111111111 249.0222222222222 l 505.3500000000001 254.95 l 504.8444444444445 260.82222222222225 l 504.19444444444446 266.6388888888889 l 503.4000000000001 272.40000000000003 l 502.4611111111111 278.1055555555555 l 501.37777777777785 283.7555555555556 l 500.1499999999999 289.34999999999997 l 498.7777777777778 294.8888888888889 l 497.26111111111106 300.37222222222215 l 495.59999999999997 305.8 l 493.7944444444444 311.1722222222222 l 491.84444444444443 316.4888888888889 l 489.75 321.75 l 487.5111111111111 326.9555555555556 l 485.12777777777774 332.10555555555555 l 482.6 337.20000000000005 l 479.9277777777778 342.2388888888889 l 477.11111111111114 347.2222222222223 l 474.15 352.15 l 471.0444444444445 357.0222222222222 l 467.7944444444445 361.8388888888889 l 464.40000000000003 366.6 l 460.86111111111114 371.30555555555554 l 457.17777777777775 375.9555555555556 l 453.35 380.55 l 449.3777777777778 385.08888888888896 l 445.26111111111106 389.5722222222222 l 441 394 l 436.63833333333326 398.32666666666665 l 432.22 402.5066666666667 l 427.74500000000006 406.5400000000001 l 423.21333333333337 410.42666666666673 l 418.62500000000006 414.1666666666667 l 413.9800000000001 417.76000000000005 l 409.2783333333333 421.2066666666666 l 404.52000000000004 424.5066666666667 l 399.705 427.65999999999997 l 394.83333333333337 430.6666666666667 l 389.9049999999999 433.52666666666664 l 384.92 436.24 l 379.8783333333333 438.8066666666667 l 374.78 441.2266666666667 l 369.625 443.5 l 364.41333333333336 445.62666666666667 l 359.145 447.6066666666667 l 353.82000000000005 449.43999999999994 l 348.43833333333333 451.12666666666667 l 343 452.66666666666663 l 337.505 454.06 l 331.9533333333334 455.3066666666667 l 326.345 456.40666666666664 l 320.68 457.36 l 314.95833333333337 458.16666666666663 l 309.18 458.82666666666665 l 303.345 459.34000000000003 l 297.4533333333334 459.7066666666667 l 291.505 459.9266666666667 l 285.5 460 l 279.4938888888889 459.9261111111111 l 273.5422222222222 459.7044444444445 l 267.64500000000004 459.33500000000004 l 261.80222222222227 458.8177777777778 l 256.0138888888889 458.15277777777777 l 250.28000000000003 457.34000000000003 l 244.60055555555553 456.3794444444444 l 238.97555555555562 455.2711111111112 l 233.40499999999997 454.015 l 227.88888888888894 452.61111111111114 l 222.42722222222218 451.0594444444444 l 217.02 449.36 l 211.6672222222222 447.5127777777777 l 206.3688888888889 445.5177777777777 l 201.125 443.375 l 195.93555555555554 441.08444444444444 l 190.80055555555555 438.6461111111111 l 185.72 436.05999999999995 l 180.6938888888889 433.3261111111111 l 175.72222222222223 430.44444444444446 l 170.805 427.41499999999996 l 165.94222222222223 424.23777777777775 l 161.1338888888889 420.91277777777776 l 156.38 417.44000000000005 l 151.68055555555554 413.81944444444446 l 147.03555555555556 410.05111111111114 l 142.445 406.135 l 137.9088888888889 402.0711111111111 l 133.4272222222222 397.8594444444444 l 129 393.5 l 124.67333333333332 389.03999999999996 l 120.49333333333334 384.52666666666664 l 116.46000000000001 379.96000000000004 l 112.57333333333335 375.34000000000003 l 108.83333333333334 370.66666666666674 l 105.24000000000002 365.94000000000005 l 101.79333333333332 361.15999999999997 l 98.49333333333335 356.3266666666667 l 95.33999999999999 351.44 l 92.33333333333334 346.50000000000006 l 89.47333333333333 341.5066666666666 l 86.75999999999999 336.46000000000004 l 84.19333333333333 331.35999999999996 l 81.77333333333334 326.2066666666667 l 79.5 321 l 77.37333333333333 315.74 l 75.39333333333335 310.4266666666666 l 73.56 305.06 l 71.87333333333333 299.64 l 70.33333333333334 294.1666666666667 l 68.94 288.64 l 67.69333333333333 283.06 l 66.59333333333333 277.4266666666666 l 65.64 271.74 l 64.83333333333334 266 l 64.17333333333333 260.20666666666665 l 63.66 254.36 l 63.29333333333334 248.45999999999998 l 63.07333333333333 242.50666666666666 l 63 236.5 z"},"9":{"x_min":28,"x_max":596,"ha":631,"o":"m 305 195 l 305 195 l 297.63111111111107 195.0938888888889 l 290.3244444444445 195.37555555555554 l 283.08000000000004 195.845 l 275.89777777777783 196.50222222222223 l 268.77777777777777 197.34722222222226 l 261.7200000000001 198.38000000000005 l 254.7244444444444 199.60055555555556 l 247.79111111111118 201.00888888888892 l 240.92000000000002 202.605 l 234.11111111111114 204.3888888888889 l 227.3644444444444 206.36055555555552 l 220.68 208.52 l 214.05777777777777 210.8672222222222 l 207.4977777777778 213.40222222222224 l 201 216.125 l 194.56444444444446 219.03555555555556 l 188.19111111111113 222.13388888888886 l 181.88000000000002 225.42 l 175.63111111111112 228.89388888888888 l 169.44444444444446 232.55555555555554 l 163.32 236.405 l 157.2577777777778 240.44222222222223 l 151.25777777777776 244.66722222222222 l 145.32 249.08 l 139.44444444444446 253.68055555555557 l 133.6311111111111 258.4688888888889 l 127.88 263.445 l 122.19111111111111 268.6088888888889 l 116.56444444444443 273.9605555555555 l 111 279.5 l 105.55888888888889 285.1688888888889 l 100.30222222222224 290.9088888888889 l 95.23000000000002 296.72 l 90.34222222222223 302.6022222222222 l 85.63888888888889 308.5555555555556 l 81.12000000000003 314.58000000000004 l 76.78555555555555 320.67555555555555 l 72.63555555555557 326.8422222222223 l 68.66999999999999 333.08 l 64.8888888888889 339.3888888888889 l 61.29222222222222 345.76888888888885 l 57.879999999999995 352.21999999999997 l 54.65222222222222 358.7422222222222 l 51.60888888888889 365.3355555555556 l 48.75 372 l 46.07555555555556 378.73555555555555 l 43.58555555555556 385.5422222222222 l 41.28 392.41999999999996 l 39.158888888888896 399.3688888888889 l 37.22222222222222 406.3888888888889 l 35.47 413.48 l 33.90222222222222 420.64222222222224 l 32.51888888888888 427.8755555555556 l 31.32 435.18 l 30.305555555555557 442.5555555555556 l 29.475555555555555 450.0022222222222 l 28.83 457.52000000000004 l 28.36888888888889 465.10888888888894 l 28.09222222222222 472.76888888888885 l 28 480.5 l 28.093333333333334 488.22888888888883 l 28.373333333333335 495.88222222222225 l 28.84 503.4600000000001 l 29.493333333333332 510.96222222222224 l 30.333333333333336 518.3888888888889 l 31.360000000000003 525.74 l 32.57333333333333 533.0155555555555 l 33.973333333333336 540.2155555555556 l 35.559999999999995 547.3399999999999 l 37.333333333333336 554.3888888888889 l 39.29333333333333 561.3622222222222 l 41.44 568.26 l 43.77333333333333 575.0822222222222 l 46.29333333333334 581.828888888889 l 49 588.5 l 51.89333333333333 595.0955555555556 l 54.97333333333333 601.6155555555555 l 58.24 608.06 l 61.69333333333333 614.4288888888889 l 65.33333333333333 620.7222222222223 l 69.16 626.94 l 73.17333333333333 633.0822222222223 l 77.37333333333333 639.1488888888889 l 81.76 645.1400000000001 l 86.33333333333334 651.0555555555557 l 91.09333333333333 656.8955555555556 l 96.03999999999999 662.66 l 101.17333333333333 668.348888888889 l 106.49333333333333 673.9622222222222 l 112 679.5 l 117.6372222222222 684.9083333333333 l 123.3488888888889 690.1333333333334 l 129.135 695.1750000000001 l 134.99555555555554 700.0333333333333 l 140.93055555555557 704.7083333333334 l 146.94000000000003 709.2000000000002 l 153.02388888888888 713.5083333333333 l 159.18222222222224 717.6333333333334 l 165.415 721.5749999999999 l 171.72222222222223 725.3333333333334 l 178.1038888888889 728.9083333333332 l 184.56 732.3000000000001 l 191.09055555555557 735.5083333333333 l 197.69555555555556 738.5333333333334 l 204.375 741.375 l 211.1288888888889 744.0333333333333 l 217.9572222222222 746.5083333333333 l 224.86 748.8 l 231.83722222222224 750.9083333333333 l 238.88888888888886 752.8333333333333 l 246.015 754.575 l 253.21555555555557 756.1333333333332 l 260.49055555555555 757.5083333333334 l 267.84000000000003 758.7 l 275.2638888888889 759.7083333333334 l 282.76222222222225 760.5333333333333 l 290.33500000000004 761.175 l 297.9822222222222 761.6333333333334 l 305.70388888888886 761.9083333333333 l 313.5 762 l 321.2944444444444 761.9083333333333 l 329.0111111111112 761.6333333333334 l 336.65000000000003 761.1750000000001 l 344.2111111111111 760.5333333333334 l 351.6944444444445 759.7083333333335 l 359.1000000000001 758.7000000000003 l 366.42777777777775 757.5083333333333 l 373.6777777777778 756.1333333333336 l 380.84999999999997 754.5749999999998 l 387.94444444444446 752.8333333333335 l 394.96111111111105 750.9083333333333 l 401.90000000000003 748.8 l 408.76111111111106 746.5083333333333 l 415.5444444444445 744.0333333333333 l 422.25 741.375 l 428.87777777777774 738.5333333333333 l 435.42777777777775 735.5083333333333 l 441.9 732.3 l 448.2944444444444 728.9083333333333 l 454.6111111111111 725.3333333333334 l 460.85 721.575 l 467.0111111111111 717.6333333333333 l 473.09444444444443 713.5083333333334 l 479.1 709.2 l 485.0277777777778 704.7083333333334 l 490.8777777777778 700.0333333333333 l 496.65 695.175 l 502.34444444444443 690.1333333333334 l 507.96111111111105 684.9083333333333 l 513.5 679.5 l 518.9083333333333 673.9638888888888 l 524.1333333333334 668.3555555555556 l 529.1750000000001 662.6750000000001 l 534.0333333333333 656.9222222222223 l 538.7083333333334 651.0972222222223 l 543.2000000000002 645.2000000000002 l 547.5083333333332 639.2305555555555 l 551.6333333333334 633.188888888889 l 555.5749999999999 627.0749999999999 l 559.3333333333334 620.888888888889 l 562.9083333333333 614.6305555555556 l 566.3 608.3000000000001 l 569.5083333333333 601.8972222222222 l 572.5333333333333 595.4222222222222 l 575.375 588.875 l 578.0333333333333 582.2555555555556 l 580.5083333333333 575.5638888888889 l 582.8 568.8 l 584.9083333333333 561.9638888888888 l 586.8333333333333 555.0555555555555 l 588.575 548.075 l 590.1333333333334 541.0222222222222 l 591.5083333333333 533.8972222222222 l 592.7 526.7 l 593.7083333333334 519.4305555555557 l 594.5333333333334 512.0888888888888 l 595.175 504.675 l 595.6333333333333 497.18888888888887 l 595.9083333333333 489.6305555555555 l 596 482 l 595.8877777777777 474.3322222222222 l 595.5511111111111 466.6622222222222 l 594.9900000000001 458.99 l 594.2044444444444 451.3155555555556 l 593.1944444444445 443.63888888888897 l 591.96 435.9600000000001 l 590.5011111111112 428.2788888888889 l 588.8177777777779 420.5955555555557 l 586.9099999999999 412.9099999999999 l 584.7777777777778 405.2222222222223 l 582.421111111111 397.5322222222222 l 579.84 389.84 l 577.0344444444445 382.1455555555556 l 574.0044444444445 374.44888888888886 l 570.75 366.75 l 567.2711111111112 359.0488888888889 l 563.5677777777778 351.34555555555556 l 559.64 343.64000000000004 l 555.4877777777778 335.9322222222222 l 551.1111111111111 328.22222222222223 l 546.51 320.51 l 541.6844444444445 312.79555555555555 l 536.6344444444444 305.07888888888886 l 531.36 297.36 l 525.8611111111111 289.6388888888889 l 520.1377777777777 281.91555555555556 l 514.19 274.19 l 508.01777777777784 266.46222222222224 l 501.62111111111113 258.7322222222222 l 495 251 l 495 251 l 276 0 l 238 0 l 436 227 l 434.8422222222222 226.13722222222222 l 433.6355555555556 225.28222222222223 l 432.38000000000005 224.435 l 431.0755555555556 223.59555555555556 l 429.7222222222223 222.7638888888889 l 428.3200000000001 221.94000000000005 l 426.8688888888888 221.12388888888887 l 425.36888888888893 220.3155555555556 l 423.81999999999994 219.515 l 422.2222222222223 218.72222222222226 l 420.5755555555555 217.9372222222222 l 418.88000000000005 217.16 l 417.1355555555555 216.39055555555558 l 415.3422222222223 215.6288888888889 l 413.5 214.875 l 411.6088888888889 214.1288888888889 l 409.6688888888889 213.39055555555552 l 407.67999999999995 212.66000000000003 l 405.64222222222224 211.93722222222226 l 403.55555555555554 211.22222222222223 l 401.42 210.515 l 399.2355555555556 209.81555555555553 l 397.00222222222226 209.12388888888887 l 394.72 208.44 l 392.3888888888889 207.7638888888889 l 390.0088888888889 207.09555555555556 l 387.58 206.435 l 385.1022222222222 205.78222222222223 l 382.5755555555556 205.1372222222222 l 380 204.5 l 377.40333333333336 203.8772222222222 l 374.81333333333333 203.27555555555557 l 372.23 202.695 l 369.6533333333334 202.13555555555556 l 367.08333333333337 201.59722222222226 l 364.52000000000004 201.08000000000004 l 361.9633333333333 200.5838888888889 l 359.4133333333334 200.10888888888894 l 356.86999999999995 199.65499999999997 l 354.33333333333337 199.22222222222223 l 351.8033333333333 198.81055555555554 l 349.28000000000003 198.42 l 346.7633333333333 198.05055555555555 l 344.25333333333333 197.70222222222222 l 341.75 197.375 l 339.25333333333333 197.0688888888889 l 336.7633333333333 196.7838888888889 l 334.28000000000003 196.51999999999998 l 331.80333333333334 196.27722222222224 l 329.33333333333337 196.05555555555554 l 326.87 195.855 l 324.4133333333333 195.67555555555555 l 321.96333333333337 195.51722222222222 l 319.52000000000004 195.38 l 317.08333333333337 195.26388888888889 l 314.6533333333333 195.1688888888889 l 312.23 195.09500000000003 l 309.8133333333334 195.04222222222222 l 307.4033333333333 195.01055555555556 l 305 195 z m 565 480.5 l 564.9177777777778 487.4333333333333 l 564.6711111111111 494.30000000000007 l 564.26 501.1000000000001 l 563.6844444444444 507.83333333333337 l 562.9444444444446 514.5 l 562.0400000000001 521.1000000000001 l 560.9711111111111 527.6333333333333 l 559.7377777777779 534.1000000000001 l 558.3399999999999 540.5 l 556.7777777777778 546.8333333333334 l 555.0511111111111 553.0999999999999 l 553.1600000000001 559.3 l 551.1044444444444 565.4333333333333 l 548.8844444444444 571.5 l 546.5 577.5 l 543.9511111111111 583.4333333333334 l 541.2377777777778 589.3 l 538.36 595.1 l 535.3177777777778 600.8333333333333 l 532.1111111111111 606.5 l 528.74 612.1 l 525.2044444444444 617.6333333333333 l 521.5044444444444 623.1 l 517.6400000000001 628.5 l 513.6111111111111 633.8333333333334 l 509.4177777777778 639.1 l 505.06 644.3000000000001 l 500.53777777777776 649.4333333333334 l 495.8511111111111 654.4999999999999 l 491 659.5 l 486.0338888888889 664.3838888888888 l 481.0022222222222 669.1022222222223 l 475.90500000000003 673.6550000000001 l 470.74222222222227 678.0422222222222 l 465.51388888888897 682.2638888888889 l 460.2200000000001 686.3200000000002 l 454.86055555555555 690.2105555555554 l 449.4355555555556 693.9355555555557 l 443.94499999999994 697.4949999999999 l 438.3888888888889 700.8888888888889 l 432.76722222222213 704.1172222222222 l 427.08 707.1800000000001 l 421.3272222222222 710.0772222222222 l 415.5088888888889 712.808888888889 l 409.625 715.375 l 403.67555555555555 717.7755555555556 l 397.66055555555556 720.0105555555556 l 391.58000000000004 722.08 l 385.4338888888889 723.9838888888889 l 379.22222222222223 725.7222222222222 l 372.94500000000005 727.2950000000001 l 366.6022222222222 728.7022222222222 l 360.19388888888886 729.943888888889 l 353.72 731.02 l 347.18055555555554 731.9305555555555 l 340.5755555555556 732.6755555555555 l 333.90500000000003 733.2550000000001 l 327.1688888888889 733.6688888888889 l 320.3672222222222 733.9172222222222 l 313.5 734 l 306.6338888888889 733.9172222222222 l 299.8355555555556 733.6688888888889 l 293.105 733.2550000000001 l 286.44222222222226 732.6755555555557 l 279.84722222222223 731.9305555555557 l 273.32000000000005 731.0200000000001 l 266.86055555555555 729.943888888889 l 260.4688888888889 728.7022222222224 l 254.145 727.295 l 247.88888888888894 725.7222222222224 l 241.70055555555552 723.9838888888889 l 235.58 722.0799999999999 l 229.52722222222224 720.0105555555555 l 223.54222222222222 717.7755555555555 l 217.625 715.375 l 211.77555555555557 712.8088888888889 l 205.99388888888888 710.0772222222222 l 200.28 707.18 l 194.6338888888889 704.1172222222223 l 189.05555555555557 700.8888888888889 l 183.54500000000002 697.495 l 178.10222222222225 693.9355555555555 l 172.72722222222222 690.2105555555556 l 167.42000000000002 686.32 l 162.18055555555554 682.2638888888889 l 157.0088888888889 678.0422222222222 l 151.905 673.655 l 146.8688888888889 669.1022222222223 l 141.90055555555554 664.3838888888888 l 137 659.5 l 132.21444444444444 654.4994444444444 l 127.59111111111112 649.4311111111111 l 123.13000000000001 644.2950000000001 l 118.83111111111111 639.0911111111111 l 114.69444444444446 633.8194444444445 l 110.72000000000003 628.4800000000002 l 106.90777777777778 623.0727777777777 l 103.2577777777778 617.5977777777779 l 99.77 612.0550000000001 l 96.44444444444446 606.4444444444445 l 93.2811111111111 600.7661111111111 l 90.28 595.02 l 87.44111111111111 589.2061111111111 l 84.76444444444445 583.3244444444445 l 82.25 577.375 l 79.89777777777778 571.3577777777778 l 77.70777777777778 565.2727777777777 l 75.68 559.12 l 73.81444444444445 552.8994444444445 l 72.11111111111111 546.6111111111111 l 70.57000000000001 540.255 l 69.19111111111111 533.8311111111111 l 67.97444444444444 527.3394444444444 l 66.92 520.78 l 66.02777777777777 514.1527777777778 l 65.29777777777778 507.4577777777778 l 64.73 500.695 l 64.32444444444445 493.8644444444445 l 64.08111111111111 486.96611111111105 l 64 480 l 64.08166666666666 473.03222222222223 l 64.32666666666667 466.128888888889 l 64.73500000000001 459.29 l 65.30666666666667 452.5155555555556 l 66.04166666666667 445.8055555555556 l 66.94000000000001 439.16 l 68.00166666666667 432.57888888888886 l 69.22666666666669 426.0622222222223 l 70.615 419.60999999999996 l 72.16666666666667 413.2222222222223 l 73.88166666666666 406.89888888888885 l 75.76 400.64 l 77.80166666666666 394.44555555555553 l 80.00666666666666 388.31555555555553 l 82.375 382.25 l 84.90666666666667 376.24888888888887 l 87.60166666666666 370.3122222222222 l 90.46000000000001 364.44 l 93.48166666666665 358.6322222222222 l 96.66666666666666 352.8888888888889 l 100.01499999999999 347.21000000000004 l 103.52666666666666 341.59555555555556 l 107.20166666666668 336.04555555555555 l 111.04 330.56000000000006 l 115.04166666666669 325.1388888888889 l 119.20666666666668 319.78222222222223 l 123.53500000000001 314.49 l 128.02666666666667 309.26222222222225 l 132.68166666666667 304.0988888888889 l 137.5 299 l 142.43166666666664 294.01777777777784 l 147.42666666666668 289.2044444444445 l 152.485 284.56000000000006 l 157.60666666666665 280.08444444444444 l 162.79166666666669 275.7777777777778 l 168.04000000000005 271.64000000000004 l 173.35166666666666 267.6711111111111 l 178.7266666666667 263.87111111111113 l 184.16499999999996 260.24 l 189.66666666666669 256.7777777777778 l 195.23166666666665 253.48444444444442 l 200.86 250.36 l 206.55166666666668 247.40444444444444 l 212.30666666666667 244.6177777777778 l 218.125 242 l 224.00666666666666 239.5511111111111 l 229.95166666666665 237.2711111111111 l 235.95999999999998 235.16 l 242.03166666666664 233.21777777777777 l 248.16666666666669 231.44444444444446 l 254.36499999999998 229.84 l 260.62666666666667 228.40444444444444 l 266.9516666666667 227.13777777777779 l 273.34000000000003 226.04000000000002 l 279.7916666666667 225.11111111111114 l 286.3066666666667 224.35111111111112 l 292.885 223.76000000000002 l 299.5266666666667 223.33777777777777 l 306.2316666666666 223.08444444444442 l 313 223 l 319.77 223.08499999999998 l 326.4800000000001 223.34 l 333.13 223.76500000000004 l 339.72 224.36000000000004 l 346.25 225.12500000000006 l 352.72000000000014 226.06000000000003 l 359.13 227.16499999999996 l 365.48 228.44000000000003 l 371.77 229.885 l 378.00000000000006 231.5 l 384.16999999999996 233.28499999999997 l 390.28000000000003 235.24 l 396.33 237.36499999999998 l 402.32 239.66000000000003 l 408.25 242.125 l 414.12 244.76 l 419.93 247.565 l 425.68 250.54 l 431.37 253.685 l 437 257 l 442.57 260.485 l 448.08 264.14 l 453.53 267.965 l 458.9200000000001 271.96000000000004 l 464.25 276.125 l 469.52000000000004 280.46000000000004 l 474.73 284.96500000000003 l 479.88000000000005 289.64 l 484.96999999999997 294.48499999999996 l 490 299.5 l 494.91666666666663 304.63111111111107 l 499.6666666666667 309.82444444444445 l 504.25 315.08000000000004 l 508.6666666666667 320.39777777777783 l 512.9166666666667 325.7777777777778 l 517.0000000000001 331.2200000000001 l 520.9166666666665 336.72444444444443 l 524.6666666666667 342.29111111111115 l 528.25 347.91999999999996 l 531.6666666666667 353.6111111111112 l 534.9166666666666 359.3644444444444 l 538 365.17999999999995 l 540.9166666666666 371.05777777777774 l 543.6666666666666 376.9977777777778 l 546.25 383 l 548.6666666666666 389.0644444444444 l 550.9166666666666 395.19111111111107 l 553 401.38 l 554.9166666666666 407.63111111111107 l 556.6666666666667 413.94444444444446 l 558.25 420.32 l 559.6666666666666 426.75777777777773 l 560.9166666666667 433.25777777777785 l 562 439.82000000000005 l 562.9166666666667 446.44444444444446 l 563.6666666666666 453.13111111111107 l 564.25 459.88000000000005 l 564.6666666666666 466.6911111111111 l 564.9166666666666 473.5644444444444 l 565 480.5 z"},"A":{"x_min":30,"x_max":779,"ha":809,"o":"m 30 0 l 404 768 l 779 0 l 744 0 l 602 286 l 201 286 l 61 0 l 30 0 z m 590 315 l 401 699 l 214 315 l 590 315 z"},"B":{"x_min":75,"x_max":357,"ha":387,"o":"m 75 0 l 75 750 l 107 750 l 111.30999999999999 749.9549999999999 l 115.57333333333334 749.82 l 119.79 749.595 l 123.96000000000001 749.2800000000001 l 128.08333333333334 748.8750000000001 l 132.16000000000005 748.3800000000002 l 136.19 747.795 l 140.17333333333335 747.1200000000001 l 144.10999999999999 746.355 l 148 745.5000000000001 l 151.84333333333333 744.555 l 155.64000000000001 743.52 l 159.39 742.395 l 163.09333333333333 741.18 l 166.75 739.875 l 170.36 738.48 l 173.92333333333332 736.9949999999999 l 177.44 735.42 l 180.91 733.755 l 184.33333333333331 732 l 187.70999999999998 730.155 l 191.04000000000002 728.22 l 194.32333333333332 726.1949999999999 l 197.56000000000003 724.08 l 200.75000000000003 721.875 l 203.89333333333335 719.58 l 206.99 717.195 l 210.04000000000002 714.72 l 213.04333333333332 712.155 l 216 709.5 l 218.88444444444445 706.775 l 221.67111111111114 704.0000000000001 l 224.36 701.175 l 226.95111111111115 698.3000000000001 l 229.44444444444449 695.3750000000001 l 231.84000000000006 692.4000000000001 l 234.13777777777779 689.375 l 236.3377777777778 686.3000000000002 l 238.44 683.175 l 240.44444444444446 680.0000000000001 l 242.3511111111111 676.775 l 244.16000000000003 673.5 l 245.8711111111111 670.175 l 247.48444444444445 666.8 l 249 663.375 l 250.4177777777778 659.9 l 251.73777777777775 656.375 l 252.96 652.8000000000001 l 254.08444444444444 649.175 l 255.11111111111111 645.5 l 256.03999999999996 641.775 l 256.8711111111111 638 l 257.6044444444444 634.175 l 258.24 630.3000000000001 l 258.77777777777777 626.375 l 259.21777777777777 622.4 l 259.56 618.375 l 259.80444444444447 614.3 l 259.9511111111111 610.175 l 260 606 l 260 606 l 259.97277777777776 603.4649999999999 l 259.8911111111111 600.9266666666666 l 259.75500000000005 598.385 l 259.56444444444446 595.84 l 259.31944444444446 593.2916666666666 l 259.02000000000004 590.7400000000001 l 258.6661111111111 588.185 l 258.2577777777778 585.6266666666668 l 257.79499999999996 583.065 l 257.2777777777778 580.5 l 256.7061111111111 577.9316666666666 l 256.08 575.36 l 255.3994444444444 572.785 l 254.66444444444443 570.2066666666667 l 253.875 567.625 l 253.0311111111111 565.04 l 252.1327777777778 562.4516666666667 l 251.18 559.86 l 250.17277777777775 557.265 l 249.11111111111111 554.6666666666667 l 247.995 552.065 l 246.82444444444445 549.46 l 245.59944444444443 546.8516666666667 l 244.32 544.24 l 242.98611111111111 541.625 l 241.5977777777778 539.0066666666667 l 240.15500000000003 536.385 l 238.65777777777777 533.76 l 237.10611111111112 531.1316666666667 l 235.5 528.5 l 233.85722222222222 525.8972222222222 l 232.19555555555556 523.3555555555556 l 230.51500000000001 520.875 l 228.8155555555556 518.4555555555555 l 227.09722222222226 516.0972222222223 l 225.36000000000004 513.8000000000001 l 223.6038888888889 511.56388888888887 l 221.8288888888889 509.38888888888897 l 220.035 507.275 l 218.22222222222223 505.2222222222223 l 216.39055555555555 503.2305555555555 l 214.54000000000002 501.30000000000007 l 212.67055555555555 499.43055555555554 l 210.78222222222223 497.6222222222222 l 208.875 495.875 l 206.94888888888886 494.1888888888889 l 205.0038888888889 492.56388888888887 l 203.04000000000002 491 l 201.0572222222222 489.4972222222222 l 199.05555555555554 488.0555555555556 l 197.035 486.675 l 194.99555555555554 485.3555555555556 l 192.9372222222222 484.0972222222222 l 190.86 482.9000000000001 l 188.76388888888889 481.7638888888889 l 186.6488888888889 480.68888888888887 l 184.515 479.67499999999995 l 182.36222222222224 478.72222222222223 l 180.19055555555556 477.8305555555555 l 178 477 l 178 477 l 183.10444444444445 475.6844444444444 l 188.15111111111113 474.2711111111111 l 193.14000000000001 472.76 l 198.07111111111112 471.15111111111116 l 202.94444444444446 469.4444444444445 l 207.76000000000005 467.64000000000016 l 212.51777777777775 465.73777777777775 l 217.2177777777778 463.7377777777778 l 221.85999999999999 461.63999999999993 l 226.44444444444446 459.44444444444446 l 230.9711111111111 457.1511111111111 l 235.44 454.76 l 239.85111111111112 452.27111111111105 l 244.20444444444445 449.68444444444447 l 248.5 447 l 252.7377777777778 444.21777777777777 l 256.91777777777776 441.3377777777778 l 261.03999999999996 438.36 l 265.1044444444444 435.28444444444443 l 269.1111111111111 432.11111111111114 l 273.05999999999995 428.84000000000003 l 276.9511111111111 425.4711111111111 l 280.78444444444443 422.00444444444446 l 284.56 418.44 l 288.2777777777778 414.7777777777778 l 291.9377777777778 411.0177777777778 l 295.54 407.16 l 299.08444444444444 403.20444444444445 l 302.5711111111111 399.1511111111111 l 306 395 l 309.3433333333333 390.7638888888889 l 312.5733333333333 386.4555555555555 l 315.69 382.07500000000005 l 318.6933333333334 377.62222222222226 l 321.58333333333337 373.0972222222223 l 324.36000000000007 368.50000000000006 l 327.0233333333333 363.8305555555556 l 329.5733333333334 359.08888888888896 l 332.01 354.27500000000003 l 334.3333333333334 349.38888888888897 l 336.5433333333333 344.4305555555555 l 338.64 339.4 l 340.62333333333333 334.29722222222216 l 342.49333333333334 329.1222222222222 l 344.25 323.875 l 345.8933333333333 318.55555555555554 l 347.4233333333333 313.1638888888889 l 348.84 307.7 l 350.1433333333333 302.1638888888889 l 351.33333333333337 296.55555555555554 l 352.40999999999997 290.875 l 353.37333333333333 285.12222222222226 l 354.22333333333336 279.2972222222222 l 354.96000000000004 273.40000000000003 l 355.58333333333337 267.43055555555554 l 356.09333333333336 261.3888888888889 l 356.49 255.275 l 356.7733333333333 249.08888888888887 l 356.94333333333327 242.83055555555555 l 357 236.5 l 356.91888888888883 230.16111111111113 l 356.6755555555556 223.8777777777778 l 356.27 217.65000000000003 l 355.70222222222225 211.4777777777778 l 354.9722222222223 205.36111111111117 l 354.0800000000001 199.30000000000004 l 353.0255555555555 193.29444444444442 l 351.8088888888889 187.34444444444446 l 350.43 181.45 l 348.8888888888889 175.61111111111114 l 347.18555555555554 169.82777777777775 l 345.32 164.1 l 343.2922222222222 158.42777777777778 l 341.1022222222222 152.8111111111111 l 338.75 147.25 l 336.23555555555555 141.74444444444444 l 333.5588888888889 136.29444444444445 l 330.71999999999997 130.9 l 327.7188888888889 125.56111111111112 l 324.5555555555556 120.27777777777779 l 321.23 115.05000000000001 l 317.74222222222227 109.8777777777778 l 314.09222222222223 104.76111111111112 l 310.28000000000003 99.69999999999999 l 306.30555555555554 94.69444444444444 l 302.1688888888889 89.74444444444444 l 297.87 84.85 l 293.4088888888889 80.0111111111111 l 288.7855555555555 75.22777777777777 l 284 70.5 l 279.09888888888884 65.87833333333333 l 274.1288888888889 61.413333333333334 l 269.09000000000003 57.105000000000004 l 263.9822222222223 52.95333333333334 l 258.8055555555556 48.95833333333334 l 253.56000000000006 45.12000000000001 l 248.24555555555554 41.43833333333333 l 242.86222222222227 37.91333333333334 l 237.40999999999997 34.544999999999995 l 231.8888888888889 31.33333333333334 l 226.29888888888885 28.278333333333332 l 220.64 25.38 l 214.91222222222223 22.638333333333332 l 209.11555555555555 20.053333333333335 l 203.25 17.625 l 197.31555555555556 15.353333333333333 l 191.31222222222223 13.238333333333335 l 185.24 11.280000000000003 l 179.0988888888889 9.478333333333335 l 172.88888888888889 7.833333333333335 l 166.61 6.3450000000000015 l 160.26222222222225 5.013333333333335 l 153.84555555555556 3.8383333333333316 l 147.36 2.8199999999999985 l 140.80555555555554 1.9583333333333326 l 134.1822222222222 1.2533333333333327 l 127.48999999999998 0.7049999999999996 l 120.72888888888889 0.3133333333333332 l 113.89888888888888 0.0783333333333333 l 107 0 l 107 0 l 75 0 z m 115 459 l 107 459 l 107 28 l 115 28 l 120.70722222222221 28.07111111111111 l 126.36222222222224 28.284444444444446 l 131.965 28.64 l 137.51555555555555 29.137777777777778 l 143.0138888888889 29.77777777777778 l 148.46 30.560000000000002 l 153.85388888888886 31.484444444444446 l 159.1955555555556 32.55111111111112 l 164.48499999999999 33.76 l 169.72222222222223 35.111111111111114 l 174.9072222222222 36.60444444444444 l 180.04000000000002 38.24 l 185.12055555555557 40.01777777777778 l 190.1488888888889 41.93777777777778 l 195.125 44 l 200.04888888888888 46.20444444444445 l 204.92055555555555 48.55111111111111 l 209.74 51.04 l 214.50722222222225 53.67111111111112 l 219.22222222222223 56.44444444444444 l 223.885 59.35999999999999 l 228.49555555555554 62.41777777777777 l 233.05388888888888 65.61777777777777 l 237.56000000000003 68.96000000000001 l 242.0138888888889 72.44444444444446 l 246.41555555555556 76.07111111111111 l 250.765 79.84 l 255.06222222222223 83.75111111111111 l 259.3072222222222 87.80444444444444 l 263.5 92 l 267.5972222222222 96.29333333333332 l 271.5555555555556 100.64000000000001 l 275.375 105.04 l 279.05555555555554 109.49333333333334 l 282.59722222222223 114 l 286.00000000000006 118.56000000000002 l 289.26388888888886 123.17333333333333 l 292.3888888888889 127.84000000000002 l 295.37499999999994 132.56 l 298.22222222222223 137.33333333333334 l 300.93055555555554 142.15999999999997 l 303.5 147.04000000000002 l 305.93055555555554 151.97333333333333 l 308.22222222222223 156.96 l 310.375 162 l 312.3888888888889 167.09333333333336 l 314.2638888888889 172.23999999999998 l 316 177.44 l 317.59722222222223 182.69333333333333 l 319.05555555555554 188 l 320.375 193.36 l 321.55555555555554 198.77333333333334 l 322.59722222222223 204.24 l 323.5 209.76000000000002 l 324.2638888888889 215.33333333333334 l 324.8888888888889 220.96000000000004 l 325.375 226.64000000000001 l 325.72222222222223 232.37333333333333 l 325.93055555555554 238.16 l 326 244 l 325.9311111111111 249.8394444444444 l 325.72444444444443 255.62444444444446 l 325.38 261.355 l 324.8977777777778 267.0311111111111 l 324.27777777777777 272.65277777777777 l 323.52000000000004 278.22 l 322.6244444444444 283.73277777777776 l 321.5911111111111 289.1911111111112 l 320.41999999999996 294.595 l 319.11111111111114 299.9444444444445 l 317.6644444444444 305.2394444444444 l 316.08 310.48 l 314.35777777777776 315.6661111111111 l 312.49777777777774 320.7977777777778 l 310.5 325.875 l 308.3644444444444 330.8977777777778 l 306.0911111111111 335.8661111111111 l 303.67999999999995 340.78 l 301.1311111111111 345.6394444444444 l 298.44444444444446 350.44444444444446 l 295.62 355.19500000000005 l 292.65777777777777 359.8911111111111 l 289.5577777777778 364.5327777777778 l 286.32 369.12 l 282.94444444444446 373.6527777777778 l 279.43111111111114 378.1311111111111 l 275.78 382.555 l 271.99111111111114 386.9244444444444 l 268.06444444444446 391.2394444444445 l 264 395.5 l 259.8388888888889 399.66277777777776 l 255.62222222222226 403.68444444444447 l 251.35000000000002 407.565 l 247.02222222222224 411.3044444444445 l 242.6388888888889 414.9027777777778 l 238.20000000000005 418.3600000000001 l 233.70555555555555 421.67611111111114 l 229.1555555555556 424.85111111111115 l 224.54999999999998 427.885 l 219.8888888888889 430.7777777777778 l 215.17222222222222 433.5294444444444 l 210.4 436.14 l 205.5722222222222 438.6094444444444 l 200.6888888888889 440.9377777777778 l 195.75 443.125 l 190.75555555555556 445.1711111111111 l 185.70555555555555 447.0761111111111 l 180.6 448.84000000000003 l 175.4388888888889 450.4627777777778 l 170.22222222222223 451.94444444444446 l 164.95 453.285 l 159.62222222222223 454.4844444444444 l 154.23888888888888 455.5427777777778 l 148.8 456.46000000000004 l 143.30555555555554 457.23611111111114 l 137.75555555555553 457.87111111111113 l 132.15 458.365 l 126.4888888888889 458.71777777777777 l 120.77222222222221 458.9294444444444 l 115 459 l 115 459 z m 115 722 l 107 722 l 107 486 l 115 486 l 117.98833333333332 486.04055555555556 l 120.95333333333335 486.1622222222222 l 123.89500000000001 486.36500000000007 l 126.81333333333333 486.6488888888889 l 129.70833333333334 487.01388888888897 l 132.58 487.46000000000015 l 135.4283333333333 487.98722222222216 l 138.25333333333336 488.5955555555556 l 141.055 489.28499999999997 l 143.83333333333334 490.0555555555556 l 146.5883333333333 490.9072222222222 l 149.32 491.84000000000003 l 152.02833333333334 492.8538888888889 l 154.71333333333334 493.94888888888886 l 157.375 495.125 l 160.01333333333335 496.38222222222225 l 162.62833333333333 497.7205555555555 l 165.22 499.14 l 167.7883333333333 500.6405555555556 l 170.33333333333334 502.2222222222223 l 172.85500000000002 503.885 l 175.35333333333335 505.62888888888887 l 177.82833333333332 507.4538888888889 l 180.28 509.36000000000007 l 182.70833333333334 511.3472222222223 l 185.11333333333334 513.4155555555556 l 187.495 515.565 l 189.85333333333335 517.7955555555556 l 192.18833333333333 520.1072222222222 l 194.5 522.5 l 196.76166666666666 524.9455555555555 l 198.9466666666667 527.4155555555556 l 201.055 529.9100000000001 l 203.0866666666667 532.428888888889 l 205.04166666666669 534.9722222222222 l 206.92000000000004 537.5400000000001 l 208.72166666666664 540.1322222222223 l 210.4466666666667 542.7488888888889 l 212.09499999999997 545.39 l 213.66666666666669 548.0555555555557 l 215.16166666666663 550.7455555555555 l 216.58 553.46 l 217.92166666666668 556.1988888888889 l 219.18666666666667 558.9622222222222 l 220.375 561.75 l 221.48666666666668 564.5622222222222 l 222.52166666666665 567.3988888888889 l 223.48000000000002 570.26 l 224.36166666666668 573.1455555555556 l 225.16666666666669 576.0555555555555 l 225.89499999999998 578.99 l 226.54666666666668 581.9488888888889 l 227.12166666666667 584.9322222222222 l 227.62 587.94 l 228.04166666666669 590.9722222222222 l 228.38666666666666 594.0288888888889 l 228.655 597.11 l 228.84666666666666 600.2155555555556 l 228.96166666666667 603.3455555555555 l 229 606.5 l 228.96222222222224 609.6516666666665 l 228.8488888888889 612.7733333333334 l 228.66 615.865 l 228.39555555555557 618.9266666666667 l 228.05555555555557 621.9583333333334 l 227.64000000000004 624.96 l 227.14888888888888 627.9316666666666 l 226.58222222222224 630.8733333333334 l 225.94 633.785 l 225.22222222222226 636.6666666666667 l 224.42888888888888 639.5183333333332 l 223.56000000000003 642.34 l 222.61555555555555 645.1316666666667 l 221.59555555555553 647.8933333333333 l 220.5 650.625 l 219.32888888888888 653.3266666666667 l 218.08222222222224 655.9983333333333 l 216.76 658.64 l 215.36222222222221 661.2516666666667 l 213.88888888888889 663.8333333333334 l 212.34 666.385 l 210.71555555555557 668.9066666666666 l 209.01555555555555 671.3983333333333 l 207.24 673.8600000000001 l 205.3888888888889 676.2916666666667 l 203.4622222222222 678.6933333333334 l 201.46 681.065 l 199.38222222222223 683.4066666666666 l 197.2288888888889 685.7183333333332 l 195 688 l 192.72 690.2288888888888 l 190.41333333333336 692.3822222222221 l 188.08 694.4600000000002 l 185.72 696.4622222222223 l 183.33333333333337 698.3888888888889 l 180.92000000000004 700.2400000000001 l 178.48 702.0155555555555 l 176.01333333333335 703.7155555555556 l 173.51999999999998 705.3399999999999 l 171 706.8888888888889 l 168.45333333333332 708.3622222222222 l 165.88000000000002 709.76 l 163.27999999999997 711.0822222222222 l 160.65333333333334 712.3288888888889 l 158 713.5 l 155.32 714.5955555555555 l 152.61333333333334 715.6155555555556 l 149.88 716.5600000000001 l 147.12 717.4288888888889 l 144.33333333333334 718.2222222222222 l 141.52 718.94 l 138.68 719.5822222222223 l 135.81333333333333 720.1488888888889 l 132.92 720.6400000000001 l 130 721.0555555555557 l 127.05333333333334 721.3955555555556 l 124.08 721.6600000000001 l 121.08000000000001 721.848888888889 l 118.05333333333333 721.9622222222222 l 115 722 l 115 722 z"},"C":{"x_min":45,"x_max":638,"ha":698,"o":"m 440 -11 l 440 -11 l 429 -11 l 422.14888888888885 -10.94 l 415.3288888888889 -10.76 l 408.54 -10.46 l 401.78222222222223 -10.040000000000001 l 395.05555555555554 -9.500000000000002 l 388.3600000000001 -8.840000000000002 l 381.6955555555555 -8.059999999999999 l 375.0622222222223 -7.160000000000002 l 368.46 -6.140000000000001 l 361.8888888888889 -5.000000000000001 l 355.34888888888884 -3.740000000000001 l 348.84 -2.3599999999999968 l 342.3622222222222 -0.8599999999999994 l 335.91555555555556 0.7599999999999998 l 329.5 2.5 l 323.11555555555555 4.360000000000001 l 316.76222222222225 6.339999999999998 l 310.44 8.44 l 304.1488888888889 10.66 l 297.8888888888889 13 l 291.66 15.459999999999997 l 285.46222222222224 18.039999999999992 l 279.29555555555555 20.740000000000006 l 273.16 23.560000000000006 l 267.05555555555554 26.500000000000004 l 260.9822222222222 29.560000000000006 l 254.94 32.74000000000001 l 248.92888888888888 36.04 l 242.9488888888889 39.459999999999994 l 237 43 l 231.10833333333335 46.63944444444444 l 225.3 50.35777777777778 l 219.57500000000002 54.15500000000001 l 213.93333333333337 58.031111111111116 l 208.375 61.986111111111114 l 202.90000000000006 66.02000000000002 l 197.5083333333333 70.13277777777778 l 192.20000000000002 74.32444444444445 l 186.97499999999997 78.595 l 181.83333333333337 82.94444444444446 l 176.77499999999998 87.37277777777777 l 171.79999999999998 91.88 l 166.90833333333333 96.46611111111112 l 162.1 101.13111111111112 l 157.375 105.875 l 152.73333333333332 110.69777777777779 l 148.17499999999998 115.59944444444443 l 143.70000000000002 120.58 l 139.30833333333334 125.63944444444445 l 135 130.77777777777777 l 130.775 135.995 l 126.63333333333334 141.2911111111111 l 122.57499999999999 146.66611111111112 l 118.6 152.12000000000003 l 114.70833333333334 157.6527777777778 l 110.9 163.26444444444445 l 107.175 168.95499999999998 l 103.53333333333333 174.72444444444446 l 99.975 180.57277777777776 l 96.5 186.5 l 93.12388888888889 192.47944444444443 l 89.86222222222223 198.48444444444445 l 86.71500000000002 204.51500000000001 l 83.68222222222224 210.57111111111112 l 80.7638888888889 216.65277777777783 l 77.96000000000001 222.76000000000008 l 75.27055555555555 228.89277777777778 l 72.69555555555557 235.05111111111114 l 70.235 241.235 l 67.8888888888889 247.44444444444446 l 65.65722222222222 253.6794444444444 l 63.540000000000006 259.94 l 61.537222222222226 266.2261111111111 l 59.64888888888889 272.53777777777776 l 57.875 278.875 l 56.215555555555554 285.23777777777775 l 54.67055555555556 291.6261111111111 l 53.239999999999995 298.03999999999996 l 51.92388888888889 304.4794444444444 l 50.72222222222223 310.94444444444446 l 49.635000000000005 317.435 l 48.662222222222226 323.9511111111111 l 47.80388888888889 330.49277777777775 l 47.06 337.06000000000006 l 46.43055555555556 343.6527777777778 l 45.91555555555556 350.2711111111111 l 45.515 356.915 l 45.22888888888889 363.58444444444444 l 45.05722222222222 370.27944444444444 l 45 377 l 45 377 l 45.12777777777777 387.55055555555555 l 45.51111111111111 398.0022222222222 l 46.150000000000006 408.355 l 47.044444444444444 418.60888888888894 l 48.19444444444444 428.7638888888889 l 49.6 438.82000000000005 l 51.261111111111106 448.7772222222222 l 53.17777777777779 458.63555555555564 l 55.349999999999994 468.39500000000004 l 57.77777777777778 478.0555555555556 l 60.4611111111111 487.61722222222215 l 63.400000000000006 497.08000000000004 l 66.59444444444445 506.44388888888886 l 70.04444444444445 515.7088888888889 l 73.75 524.875 l 77.71111111111111 533.9422222222222 l 81.92777777777778 542.9105555555556 l 86.39999999999999 551.78 l 91.12777777777778 560.5505555555555 l 96.11111111111111 569.2222222222222 l 101.35 577.7950000000001 l 106.84444444444443 586.2688888888889 l 112.59444444444445 594.6438888888889 l 118.60000000000002 602.9200000000001 l 124.86111111111113 611.0972222222222 l 131.3777777777778 619.1755555555555 l 138.15000000000003 627.1550000000001 l 145.1777777777778 635.0355555555556 l 152.4611111111111 642.8172222222222 l 160 650.5 l 167.71666666666667 658.0061111111111 l 175.53333333333336 665.2577777777778 l 183.45000000000002 672.2550000000001 l 191.46666666666667 678.9977777777779 l 199.58333333333334 685.4861111111111 l 207.80000000000004 691.7200000000001 l 216.11666666666667 697.6994444444443 l 224.53333333333336 703.4244444444445 l 233.04999999999998 708.895 l 241.66666666666669 714.1111111111111 l 250.3833333333333 719.0727777777778 l 259.2 723.78 l 268.1166666666667 728.2327777777778 l 277.1333333333333 732.4311111111111 l 286.25 736.375 l 295.4666666666667 740.0644444444445 l 304.7833333333333 743.4994444444444 l 314.2 746.6800000000001 l 323.71666666666664 749.6061111111111 l 333.3333333333333 752.2777777777778 l 343.04999999999995 754.6949999999999 l 352.8666666666666 756.8577777777778 l 362.78333333333336 758.7661111111111 l 372.8 760.4200000000001 l 382.9166666666667 761.8194444444446 l 393.1333333333333 762.9644444444444 l 403.45000000000005 763.855 l 413.8666666666667 764.4911111111112 l 424.38333333333327 764.8727777777777 l 435 765 l 435 765 l 442.1211111111111 764.9377777777778 l 449.2177777777778 764.7511111111113 l 456.29 764.4400000000002 l 463.33777777777783 764.0044444444445 l 470.36111111111114 763.4444444444446 l 477.36 762.7600000000001 l 484.3344444444444 761.951111111111 l 491.2844444444445 761.017777777778 l 498.21 759.9599999999999 l 505.1111111111112 758.7777777777778 l 511.98777777777775 757.471111111111 l 518.84 756.04 l 525.6677777777777 754.4844444444443 l 532.4711111111111 752.8044444444445 l 539.25 751 l 546.0044444444445 749.0711111111112 l 552.7344444444444 747.0177777777778 l 559.4399999999999 744.84 l 566.1211111111111 742.5377777777778 l 572.7777777777778 740.1111111111111 l 579.41 737.56 l 586.0177777777778 734.8844444444444 l 592.6011111111111 732.0844444444444 l 599.1600000000001 729.1600000000001 l 605.6944444444445 726.1111111111112 l 612.2044444444444 722.9377777777778 l 618.69 719.6400000000001 l 625.1511111111112 716.2177777777779 l 631.5877777777778 712.671111111111 l 638 709 l 638 709 l 638 672 l 631.7166666666667 676.1955555555555 l 625.4 680.2488888888889 l 619.0500000000001 684.1600000000001 l 612.6666666666667 687.928888888889 l 606.2500000000001 691.5555555555557 l 599.8000000000001 695.0400000000002 l 593.3166666666666 698.3822222222223 l 586.8000000000001 701.5822222222223 l 580.2499999999999 704.64 l 573.6666666666667 707.5555555555557 l 567.05 710.3288888888889 l 560.4 712.9599999999999 l 553.7166666666667 715.4488888888889 l 547 717.7955555555556 l 540.25 720 l 533.4666666666667 722.0622222222222 l 526.65 723.9822222222222 l 519.8000000000001 725.76 l 512.9166666666666 727.3955555555556 l 506 728.8888888888889 l 499.05 730.24 l 492.06666666666666 731.4488888888889 l 485.05 732.5155555555556 l 478 733.44 l 470.9166666666667 734.2222222222223 l 463.79999999999995 734.8622222222222 l 456.65 735.36 l 449.46666666666664 735.7155555555556 l 442.24999999999994 735.9288888888889 l 435 736 l 435 736 l 425.2466666666666 735.8827777777777 l 415.58666666666664 735.5311111111112 l 406.02000000000004 734.945 l 396.5466666666667 734.1244444444444 l 387.1666666666667 733.0694444444446 l 377.88000000000005 731.7800000000002 l 368.6866666666666 730.2561111111111 l 359.5866666666667 728.4977777777779 l 350.5799999999999 726.505 l 341.6666666666667 724.2777777777779 l 332.8466666666667 721.816111111111 l 324.12000000000006 719.12 l 315.4866666666667 716.1894444444445 l 306.94666666666666 713.0244444444444 l 298.5 709.625 l 290.14666666666665 705.9911111111112 l 281.88666666666666 702.1227777777777 l 273.72 698.02 l 265.64666666666665 693.6827777777778 l 257.6666666666667 689.1111111111111 l 249.78 684.305 l 241.98666666666668 679.2644444444444 l 234.28666666666666 673.9894444444445 l 226.68 668.48 l 219.16666666666666 662.7361111111111 l 211.74666666666667 656.7577777777777 l 204.42000000000002 650.545 l 197.18666666666667 644.0977777777778 l 190.04666666666665 637.4161111111111 l 183 630.5 l 176.11666666666667 623.4200000000001 l 169.4666666666667 616.2466666666668 l 163.05 608.98 l 156.86666666666667 601.62 l 150.91666666666666 594.1666666666667 l 145.20000000000002 586.6200000000001 l 139.71666666666664 578.9799999999999 l 134.4666666666667 571.2466666666668 l 129.45 563.42 l 124.66666666666669 555.5000000000001 l 120.11666666666665 547.4866666666666 l 115.8 539.38 l 111.71666666666667 531.18 l 107.86666666666666 522.8866666666667 l 104.25 514.5 l 100.86666666666667 506.02000000000004 l 97.71666666666667 497.44666666666666 l 94.8 488.78 l 92.11666666666667 480.02000000000004 l 89.66666666666667 471.1666666666667 l 87.45 462.22 l 85.46666666666667 453.18 l 83.71666666666667 444.0466666666666 l 82.2 434.82000000000005 l 80.91666666666667 425.5 l 79.86666666666667 416.0866666666667 l 79.05000000000001 406.58000000000004 l 78.46666666666667 396.98 l 78.11666666666667 387.28666666666663 l 78 377.5 l 78.11666666666667 367.7127777777777 l 78.46666666666667 358.0177777777778 l 79.05000000000001 348.4150000000001 l 79.86666666666667 338.9044444444445 l 80.91666666666667 329.4861111111112 l 82.20000000000002 320.16 l 83.71666666666667 310.9261111111111 l 85.46666666666668 301.7844444444445 l 87.44999999999999 292.73499999999996 l 89.66666666666667 283.77777777777777 l 92.11666666666665 274.9127777777777 l 94.8 266.14 l 97.71666666666667 257.45944444444444 l 100.86666666666667 248.87111111111113 l 104.25 240.375 l 107.86666666666667 231.9711111111111 l 111.71666666666667 223.65944444444443 l 115.8 215.44 l 120.11666666666666 207.3127777777778 l 124.66666666666667 199.2777777777778 l 129.45 191.335 l 134.46666666666664 183.48444444444448 l 139.71666666666667 175.7261111111111 l 145.20000000000002 168.06 l 150.91666666666669 160.48611111111111 l 156.86666666666667 153.00444444444443 l 163.05 145.615 l 169.4666666666667 138.31777777777776 l 176.11666666666667 131.11277777777778 l 183 124 l 190.04666666666665 117.0511111111111 l 197.1866666666667 110.33777777777777 l 204.42000000000002 103.86000000000001 l 211.74666666666667 97.61777777777777 l 219.16666666666669 91.61111111111113 l 226.68000000000004 85.84000000000002 l 234.28666666666663 80.30444444444444 l 241.98666666666668 75.00444444444447 l 249.78 69.94 l 257.6666666666667 65.11111111111111 l 265.64666666666665 60.51777777777777 l 273.72 56.160000000000004 l 281.88666666666666 52.03777777777777 l 290.14666666666665 48.15111111111111 l 298.5 44.5 l 306.94666666666666 41.08444444444444 l 315.4866666666667 37.90444444444445 l 324.12 34.96 l 332.8466666666667 32.251111111111115 l 341.66666666666663 29.77777777777778 l 350.58 27.540000000000006 l 359.58666666666664 25.53777777777778 l 368.68666666666667 23.77111111111111 l 377.88 22.24 l 387.1666666666667 20.944444444444443 l 396.5466666666667 19.884444444444444 l 406.02 19.060000000000002 l 415.58666666666664 18.471111111111114 l 425.2466666666666 18.11777777777778 l 435 18 l 435 18 l 442.25 18.07111111111111 l 449.4666666666667 18.284444444444446 l 456.65000000000003 18.64 l 463.8 19.137777777777778 l 470.9166666666667 19.77777777777778 l 478.00000000000006 20.560000000000006 l 485.04999999999995 21.484444444444442 l 492.0666666666667 22.551111111111112 l 499.05 23.759999999999998 l 506.0000000000001 25.11111111111111 l 512.9166666666666 26.60444444444444 l 519.8000000000001 28.240000000000002 l 526.65 30.01777777777778 l 533.4666666666667 31.93777777777778 l 540.25 34 l 547 36.20444444444445 l 553.7166666666667 38.551111111111105 l 560.4 41.04 l 567.05 43.67111111111111 l 573.6666666666667 46.44444444444444 l 580.25 49.35999999999999 l 586.8 52.41777777777777 l 593.3166666666666 55.61777777777778 l 599.8000000000001 58.96000000000001 l 606.25 62.44444444444445 l 612.6666666666666 66.07111111111112 l 619.0500000000001 69.84 l 625.4 73.75111111111111 l 631.7166666666667 77.80444444444444 l 638 82 l 638 82 l 638 45 l 631.9155555555556 41.32888888888889 l 625.7955555555556 37.782222222222224 l 619.6400000000001 34.36000000000001 l 613.4488888888889 31.06222222222223 l 607.2222222222222 27.88888888888889 l 600.9600000000002 24.840000000000003 l 594.6622222222221 21.915555555555553 l 588.328888888889 19.11555555555556 l 581.9599999999999 16.439999999999998 l 575.5555555555557 13.888888888888893 l 569.1155555555555 11.46222222222222 l 562.64 9.16 l 556.1288888888889 6.982222222222219 l 549.5822222222222 4.92888888888889 l 543 3 l 536.3822222222223 1.1955555555555564 l 529.7288888888888 -0.4844444444444429 l 523.0400000000001 -2.0399999999999983 l 516.3155555555556 -3.4711111111111093 l 509.55555555555554 -4.777777777777777 l 502.76 -5.959999999999999 l 495.9288888888889 -7.017777777777777 l 489.0622222222222 -7.951111111111112 l 482.16 -8.760000000000002 l 475.22222222222223 -9.444444444444446 l 468.2488888888889 -10.004444444444445 l 461.24 -10.44 l 454.19555555555553 -10.751111111111111 l 447.11555555555555 -10.937777777777777 l 440 -11 z"},"D":{"x_min":75,"x_max":481,"ha":526,"o":"m 75 0 l 75 750 l 107 750 l 118.12777777777778 749.8772222222221 l 129.11111111111111 749.5088888888889 l 139.95000000000002 748.895 l 150.64444444444445 748.0355555555557 l 161.19444444444446 746.9305555555557 l 171.60000000000002 745.5800000000003 l 181.86111111111111 743.9838888888888 l 191.9777777777778 742.1422222222222 l 201.95 740.055 l 211.7777777777778 737.7222222222223 l 221.46111111111108 735.1438888888888 l 231 732.32 l 240.39444444444445 729.2505555555555 l 249.64444444444445 725.9355555555555 l 258.75 722.375 l 267.7111111111111 718.5688888888889 l 276.52777777777777 714.5172222222221 l 285.2 710.22 l 293.72777777777776 705.6772222222222 l 302.1111111111111 700.8888888888889 l 310.35 695.855 l 318.44444444444446 690.5755555555556 l 326.3944444444445 685.0505555555555 l 334.20000000000005 679.28 l 341.86111111111114 673.2638888888889 l 349.3777777777778 667.0022222222221 l 356.75 660.495 l 363.9777777777778 653.7422222222223 l 371.0611111111111 646.7438888888888 l 378 639.5 l 384.7522222222222 632.0844444444444 l 391.27555555555557 624.5711111111112 l 397.57 616.96 l 403.6355555555555 609.2511111111112 l 409.4722222222223 601.4444444444446 l 415.08000000000004 593.5400000000002 l 420.45888888888885 585.5377777777777 l 425.60888888888894 577.4377777777778 l 430.53 569.24 l 435.2222222222223 560.9444444444445 l 439.6855555555555 552.551111111111 l 443.91999999999996 544.06 l 447.92555555555555 535.4711111111111 l 451.70222222222225 526.7844444444445 l 455.25 518 l 458.56888888888886 509.1177777777778 l 461.6588888888889 500.1377777777777 l 464.52 491.06 l 467.15222222222224 481.88444444444445 l 469.55555555555554 472.6111111111111 l 471.73 463.24 l 473.6755555555556 453.77111111111117 l 475.39222222222224 444.20444444444445 l 476.88 434.53999999999996 l 478.1388888888889 424.77777777777777 l 479.1688888888889 414.9177777777778 l 479.97 404.96000000000004 l 480.5422222222222 394.9044444444445 l 480.8855555555555 384.75111111111113 l 481 374.5 l 480.8861111111111 364.24944444444446 l 480.5444444444444 354.0977777777778 l 479.9750000000001 344.0450000000001 l 479.17777777777786 334.09111111111116 l 478.1527777777778 324.2361111111111 l 476.90000000000003 314.48 l 475.4194444444444 304.82277777777773 l 473.7111111111112 295.2644444444445 l 471.7749999999999 285.80499999999995 l 469.6111111111112 276.4444444444445 l 467.2194444444444 267.18277777777774 l 464.59999999999997 258.02 l 461.75277777777774 248.9561111111111 l 458.67777777777775 239.9911111111111 l 455.375 231.125 l 451.84444444444443 222.35777777777778 l 448.0861111111111 213.68944444444443 l 444.1 205.12 l 439.8861111111112 196.64944444444444 l 435.44444444444446 188.2777777777778 l 430.775 180.005 l 425.8777777777778 171.83111111111114 l 420.7527777777778 163.75611111111112 l 415.4 155.78 l 409.81944444444446 147.90277777777777 l 404.01111111111106 140.12444444444444 l 397.975 132.445 l 391.7111111111111 124.86444444444444 l 385.21944444444443 117.38277777777778 l 378.5 110 l 371.59277777777777 102.78888888888889 l 364.53777777777776 95.82222222222222 l 357.33500000000004 89.10000000000001 l 349.9844444444445 82.62222222222223 l 342.48611111111114 76.3888888888889 l 334.84000000000003 70.40000000000002 l 327.0461111111111 64.65555555555555 l 319.1044444444445 59.15555555555557 l 311.015 53.89999999999999 l 302.7777777777778 48.8888888888889 l 294.3927777777777 44.12222222222222 l 285.86 39.6 l 277.1794444444444 35.322222222222216 l 268.3511111111111 31.288888888888888 l 259.375 27.5 l 250.2511111111111 23.955555555555556 l 240.97944444444443 20.65555555555556 l 231.56 17.600000000000005 l 221.9927777777778 14.788888888888893 l 212.27777777777777 12.222222222222225 l 202.41500000000002 9.900000000000002 l 192.40444444444447 7.8222222222222255 l 182.24611111111108 5.988888888888886 l 171.94 4.399999999999998 l 161.48611111111111 3.055555555555554 l 150.88444444444443 1.9555555555555548 l 140.135 1.0999999999999994 l 129.23777777777778 0.4888888888888887 l 118.19277777777776 0.12222222222222218 l 107 0 l 107 0 l 75 0 z m 115 720 l 115 720 l 107 720 l 107 31 l 115 31 l 124.675 31.112222222222222 l 134.23333333333335 31.448888888888888 l 143.67499999999998 32.010000000000005 l 153 32.79555555555556 l 162.20833333333334 33.80555555555556 l 171.3 35.040000000000006 l 180.27499999999998 36.498888888888885 l 189.13333333333335 38.18222222222222 l 197.87499999999997 40.089999999999996 l 206.50000000000003 42.22222222222222 l 215.00833333333333 44.57888888888888 l 223.40000000000003 47.160000000000004 l 231.675 49.965555555555554 l 239.83333333333331 52.995555555555555 l 247.875 56.25 l 255.8 59.72888888888889 l 263.60833333333335 63.43222222222222 l 271.3 67.36 l 278.875 71.51222222222222 l 286.33333333333337 75.88888888888889 l 293.675 80.49 l 300.9 85.31555555555553 l 308.0083333333333 90.36555555555556 l 315 95.64000000000001 l 321.875 101.13888888888889 l 328.6333333333333 106.86222222222223 l 335.27500000000003 112.81 l 341.8 118.98222222222223 l 348.2083333333333 125.37888888888888 l 354.5 132 l 360.62944444444446 138.77833333333334 l 366.5511111111112 145.64666666666668 l 372.2650000000001 152.60500000000002 l 377.77111111111117 159.65333333333334 l 383.0694444444445 166.79166666666669 l 388.1600000000001 174.02 l 393.04277777777776 181.3383333333333 l 397.7177777777778 188.74666666666667 l 402.185 196.245 l 406.4444444444445 203.83333333333334 l 410.4961111111111 211.51166666666663 l 414.34 219.28 l 417.97611111111115 227.13833333333335 l 421.40444444444444 235.0866666666667 l 424.625 243.125 l 427.6377777777777 251.25333333333333 l 430.4427777777778 259.4716666666667 l 433.03999999999996 267.78 l 435.42944444444447 276.17833333333334 l 437.6111111111111 284.66666666666663 l 439.58500000000004 293.245 l 441.35111111111115 301.9133333333333 l 442.90944444444443 310.6716666666667 l 444.26 319.52000000000004 l 445.4027777777778 328.45833333333337 l 446.3377777777778 337.4866666666667 l 447.065 346.605 l 447.58444444444444 355.8133333333334 l 447.89611111111105 365.1116666666667 l 448 374.5 l 447.8961111111111 383.88944444444445 l 447.5844444444445 393.1911111111111 l 447.065 402.40500000000003 l 446.3377777777778 411.53111111111116 l 445.4027777777778 420.5694444444445 l 444.26000000000005 429.5200000000001 l 442.90944444444443 438.38277777777773 l 441.3511111111112 447.1577777777778 l 439.5849999999999 455.84499999999997 l 437.6111111111112 464.44444444444446 l 435.4294444444444 472.95611111111106 l 433.04 481.38 l 430.4427777777778 489.7161111111111 l 427.6377777777778 497.96444444444444 l 424.625 506.125 l 421.40444444444444 514.1977777777778 l 417.9761111111111 522.1827777777777 l 414.34000000000003 530.0799999999999 l 410.4961111111112 537.8894444444445 l 406.44444444444446 545.6111111111111 l 402.185 553.245 l 397.71777777777777 560.7911111111111 l 393.0427777777778 568.2494444444444 l 388.16 575.6200000000001 l 383.06944444444446 582.9027777777778 l 377.7711111111111 590.0977777777778 l 372.26500000000004 597.205 l 366.55111111111114 604.2244444444444 l 360.6294444444444 611.1561111111112 l 354.5 618 l 348.2083333333333 624.6866666666666 l 341.80000000000007 631.1466666666668 l 335.27500000000003 637.3800000000001 l 328.6333333333333 643.3866666666667 l 321.87500000000006 649.1666666666667 l 315.0000000000001 654.72 l 308.0083333333333 660.0466666666666 l 300.9000000000001 665.1466666666668 l 293.675 670.0199999999999 l 286.33333333333337 674.6666666666667 l 278.875 679.0866666666666 l 271.29999999999995 683.28 l 263.60833333333335 687.2466666666667 l 255.79999999999998 690.9866666666667 l 247.875 694.5 l 239.83333333333331 697.7866666666666 l 231.675 700.8466666666667 l 223.4 703.6800000000001 l 215.00833333333333 706.2866666666666 l 206.50000000000003 708.6666666666667 l 197.875 710.8199999999999 l 189.13333333333335 712.7466666666667 l 180.27499999999998 714.4466666666667 l 171.29999999999998 715.9200000000001 l 162.20833333333331 717.1666666666667 l 153 718.1866666666667 l 143.675 718.98 l 134.23333333333335 719.5466666666667 l 124.675 719.8866666666667 l 115 720 z"},"E":{"x_min":75,"x_max":344,"ha":369,"o":"m 75 0 l 75 750 l 344 750 l 344 721 l 108 721 l 108 313 l 305 313 l 305 284 l 108 284 l 108 29 l 344 29 l 344 0 l 75 0 z"},"F":{"x_min":75,"x_max":342,"ha":367,"o":"m 75 0 l 75 750 l 342 750 l 342 721 l 108 721 l 108 315 l 303 315 l 303 286 l 108 286 l 108 0 l 75 0 z"},"G":{"x_min":45,"x_max":638,"ha":693,"o":"m 605 286 l 357 286 l 357 315 l 638 315 l 638 44 l 632.1088888888889 40.394444444444446 l 626.1688888888889 36.91111111111111 l 620.1800000000001 33.550000000000004 l 614.1422222222222 30.311111111111114 l 608.0555555555555 27.194444444444446 l 601.9200000000002 24.200000000000003 l 595.7355555555555 21.327777777777776 l 589.5022222222223 18.57777777777778 l 583.2199999999999 15.949999999999998 l 576.8888888888889 13.44444444444445 l 570.5088888888888 11.06111111111111 l 564.0799999999999 8.8 l 557.6022222222222 6.661111111111111 l 551.0755555555555 4.644444444444446 l 544.5 2.75 l 537.8755555555556 0.9777777777777783 l 531.2022222222222 -0.6722222222222216 l 524.48 -2.1999999999999984 l 517.7088888888889 -3.6055555555555543 l 510.8888888888889 -4.8888888888888875 l 504.02000000000004 -6.049999999999999 l 497.10222222222217 -7.088888888888889 l 490.1355555555556 -8.005555555555556 l 483.12 -8.8 l 476.05555555555554 -9.472222222222223 l 468.9422222222222 -10.022222222222222 l 461.78000000000003 -10.45 l 454.56888888888886 -10.755555555555556 l 447.3088888888889 -10.938888888888888 l 440 -11 l 440 -11 l 429 -11 l 422.14888888888885 -10.94 l 415.3288888888889 -10.76 l 408.54 -10.46 l 401.78222222222223 -10.040000000000001 l 395.05555555555554 -9.500000000000002 l 388.3600000000001 -8.840000000000002 l 381.6955555555555 -8.059999999999999 l 375.0622222222223 -7.160000000000002 l 368.46 -6.140000000000001 l 361.8888888888889 -5.000000000000001 l 355.34888888888884 -3.740000000000001 l 348.84 -2.3599999999999968 l 342.3622222222222 -0.8599999999999994 l 335.91555555555556 0.7599999999999998 l 329.5 2.5 l 323.11555555555555 4.360000000000001 l 316.76222222222225 6.339999999999998 l 310.44 8.44 l 304.1488888888889 10.66 l 297.8888888888889 13 l 291.66 15.459999999999997 l 285.46222222222224 18.039999999999992 l 279.29555555555555 20.740000000000006 l 273.16 23.560000000000006 l 267.05555555555554 26.500000000000004 l 260.9822222222222 29.560000000000006 l 254.94 32.74000000000001 l 248.92888888888888 36.04 l 242.9488888888889 39.459999999999994 l 237 43 l 231.10833333333335 46.63944444444444 l 225.3 50.35777777777778 l 219.57500000000002 54.15500000000001 l 213.93333333333337 58.031111111111116 l 208.375 61.986111111111114 l 202.90000000000006 66.02000000000002 l 197.5083333333333 70.13277777777778 l 192.20000000000002 74.32444444444445 l 186.97499999999997 78.595 l 181.83333333333337 82.94444444444446 l 176.77499999999998 87.37277777777777 l 171.79999999999998 91.88 l 166.90833333333333 96.46611111111112 l 162.1 101.13111111111112 l 157.375 105.875 l 152.73333333333332 110.69777777777779 l 148.17499999999998 115.59944444444443 l 143.70000000000002 120.58 l 139.30833333333334 125.63944444444445 l 135 130.77777777777777 l 130.775 135.995 l 126.63333333333334 141.2911111111111 l 122.57499999999999 146.66611111111112 l 118.6 152.12000000000003 l 114.70833333333334 157.6527777777778 l 110.9 163.26444444444445 l 107.175 168.95499999999998 l 103.53333333333333 174.72444444444446 l 99.975 180.57277777777776 l 96.5 186.5 l 93.12388888888889 192.47944444444443 l 89.86222222222223 198.48444444444445 l 86.71500000000002 204.51500000000001 l 83.68222222222224 210.57111111111112 l 80.7638888888889 216.65277777777783 l 77.96000000000001 222.76000000000008 l 75.27055555555555 228.89277777777778 l 72.69555555555557 235.05111111111114 l 70.235 241.235 l 67.8888888888889 247.44444444444446 l 65.65722222222222 253.6794444444444 l 63.540000000000006 259.94 l 61.537222222222226 266.2261111111111 l 59.64888888888889 272.53777777777776 l 57.875 278.875 l 56.215555555555554 285.23777777777775 l 54.67055555555556 291.6261111111111 l 53.239999999999995 298.03999999999996 l 51.92388888888889 304.4794444444444 l 50.72222222222223 310.94444444444446 l 49.635000000000005 317.435 l 48.662222222222226 323.9511111111111 l 47.80388888888889 330.49277777777775 l 47.06 337.06000000000006 l 46.43055555555556 343.6527777777778 l 45.91555555555556 350.2711111111111 l 45.515 356.915 l 45.22888888888889 363.58444444444444 l 45.05722222222222 370.27944444444444 l 45 377 l 45 377 l 45.12777777777777 387.55055555555555 l 45.51111111111111 398.0022222222222 l 46.150000000000006 408.355 l 47.044444444444444 418.60888888888894 l 48.19444444444444 428.7638888888889 l 49.6 438.82000000000005 l 51.261111111111106 448.7772222222222 l 53.17777777777779 458.63555555555564 l 55.349999999999994 468.39500000000004 l 57.77777777777778 478.0555555555556 l 60.4611111111111 487.61722222222215 l 63.400000000000006 497.08000000000004 l 66.59444444444445 506.44388888888886 l 70.04444444444445 515.7088888888889 l 73.75 524.875 l 77.71111111111111 533.9422222222222 l 81.92777777777778 542.9105555555556 l 86.39999999999999 551.78 l 91.12777777777778 560.5505555555555 l 96.11111111111111 569.2222222222222 l 101.35 577.7950000000001 l 106.84444444444443 586.2688888888889 l 112.59444444444445 594.6438888888889 l 118.60000000000002 602.9200000000001 l 124.86111111111113 611.0972222222222 l 131.3777777777778 619.1755555555555 l 138.15000000000003 627.1550000000001 l 145.1777777777778 635.0355555555556 l 152.4611111111111 642.8172222222222 l 160 650.5 l 167.71666666666667 658.0061111111111 l 175.53333333333336 665.2577777777778 l 183.45000000000002 672.2550000000001 l 191.46666666666667 678.9977777777779 l 199.58333333333334 685.4861111111111 l 207.80000000000004 691.7200000000001 l 216.11666666666667 697.6994444444443 l 224.53333333333336 703.4244444444445 l 233.04999999999998 708.895 l 241.66666666666669 714.1111111111111 l 250.3833333333333 719.0727777777778 l 259.2 723.78 l 268.1166666666667 728.2327777777778 l 277.1333333333333 732.4311111111111 l 286.25 736.375 l 295.4666666666667 740.0644444444445 l 304.7833333333333 743.4994444444444 l 314.2 746.6800000000001 l 323.71666666666664 749.6061111111111 l 333.3333333333333 752.2777777777778 l 343.04999999999995 754.6949999999999 l 352.8666666666666 756.8577777777778 l 362.78333333333336 758.7661111111111 l 372.8 760.4200000000001 l 382.9166666666667 761.8194444444446 l 393.1333333333333 762.9644444444444 l 403.45000000000005 763.855 l 413.8666666666667 764.4911111111112 l 424.38333333333327 764.8727777777777 l 435 765 l 435 765 l 442.1211111111111 764.9377777777778 l 449.2177777777778 764.7511111111113 l 456.29 764.4400000000002 l 463.33777777777783 764.0044444444445 l 470.36111111111114 763.4444444444446 l 477.36 762.7600000000001 l 484.3344444444444 761.951111111111 l 491.2844444444445 761.017777777778 l 498.21 759.9599999999999 l 505.1111111111112 758.7777777777778 l 511.98777777777775 757.471111111111 l 518.84 756.04 l 525.6677777777777 754.4844444444443 l 532.4711111111111 752.8044444444445 l 539.25 751 l 546.0044444444445 749.0711111111112 l 552.7344444444444 747.0177777777778 l 559.4399999999999 744.84 l 566.1211111111111 742.5377777777778 l 572.7777777777778 740.1111111111111 l 579.41 737.56 l 586.0177777777778 734.8844444444444 l 592.6011111111111 732.0844444444444 l 599.1600000000001 729.1600000000001 l 605.6944444444445 726.1111111111112 l 612.2044444444444 722.9377777777778 l 618.69 719.6400000000001 l 625.1511111111112 716.2177777777779 l 631.5877777777778 712.671111111111 l 638 709 l 638 709 l 638 672 l 631.7166666666667 676.1955555555555 l 625.4 680.2488888888889 l 619.0500000000001 684.1600000000001 l 612.6666666666667 687.928888888889 l 606.2500000000001 691.5555555555557 l 599.8000000000001 695.0400000000002 l 593.3166666666666 698.3822222222223 l 586.8000000000001 701.5822222222223 l 580.2499999999999 704.64 l 573.6666666666667 707.5555555555557 l 567.05 710.3288888888889 l 560.4 712.9599999999999 l 553.7166666666667 715.4488888888889 l 547 717.7955555555556 l 540.25 720 l 533.4666666666667 722.0622222222222 l 526.65 723.9822222222222 l 519.8000000000001 725.76 l 512.9166666666666 727.3955555555556 l 506 728.8888888888889 l 499.05 730.24 l 492.06666666666666 731.4488888888889 l 485.05 732.5155555555556 l 478 733.44 l 470.9166666666667 734.2222222222223 l 463.79999999999995 734.8622222222222 l 456.65 735.36 l 449.46666666666664 735.7155555555556 l 442.24999999999994 735.9288888888889 l 435 736 l 435 736 l 425.2466666666666 735.8827777777777 l 415.58666666666664 735.5311111111112 l 406.02000000000004 734.945 l 396.5466666666667 734.1244444444444 l 387.1666666666667 733.0694444444446 l 377.88000000000005 731.7800000000002 l 368.6866666666666 730.2561111111111 l 359.5866666666667 728.4977777777779 l 350.5799999999999 726.505 l 341.6666666666667 724.2777777777779 l 332.8466666666667 721.816111111111 l 324.12000000000006 719.12 l 315.4866666666667 716.1894444444445 l 306.94666666666666 713.0244444444444 l 298.5 709.625 l 290.14666666666665 705.9911111111112 l 281.88666666666666 702.1227777777777 l 273.72 698.02 l 265.64666666666665 693.6827777777778 l 257.6666666666667 689.1111111111111 l 249.78 684.305 l 241.98666666666668 679.2644444444444 l 234.28666666666666 673.9894444444445 l 226.68 668.48 l 219.16666666666666 662.7361111111111 l 211.74666666666667 656.7577777777777 l 204.42000000000002 650.545 l 197.18666666666667 644.0977777777778 l 190.04666666666665 637.4161111111111 l 183 630.5 l 176.11666666666667 623.4200000000001 l 169.4666666666667 616.2466666666668 l 163.05 608.98 l 156.86666666666667 601.62 l 150.91666666666666 594.1666666666667 l 145.20000000000002 586.6200000000001 l 139.71666666666664 578.9799999999999 l 134.4666666666667 571.2466666666668 l 129.45 563.42 l 124.66666666666669 555.5000000000001 l 120.11666666666665 547.4866666666666 l 115.8 539.38 l 111.71666666666667 531.18 l 107.86666666666666 522.8866666666667 l 104.25 514.5 l 100.86666666666667 506.02000000000004 l 97.71666666666667 497.44666666666666 l 94.8 488.78 l 92.11666666666667 480.02000000000004 l 89.66666666666667 471.1666666666667 l 87.45 462.22 l 85.46666666666667 453.18 l 83.71666666666667 444.0466666666666 l 82.2 434.82000000000005 l 80.91666666666667 425.5 l 79.86666666666667 416.0866666666667 l 79.05000000000001 406.58000000000004 l 78.46666666666667 396.98 l 78.11666666666667 387.28666666666663 l 78 377.5 l 78.11666666666667 367.7127777777777 l 78.46666666666667 358.0177777777778 l 79.05000000000001 348.4150000000001 l 79.86666666666667 338.9044444444445 l 80.91666666666667 329.4861111111112 l 82.20000000000002 320.16 l 83.71666666666667 310.9261111111111 l 85.46666666666668 301.7844444444445 l 87.44999999999999 292.73499999999996 l 89.66666666666667 283.77777777777777 l 92.11666666666665 274.9127777777777 l 94.8 266.14 l 97.71666666666667 257.45944444444444 l 100.86666666666667 248.87111111111113 l 104.25 240.375 l 107.86666666666667 231.9711111111111 l 111.71666666666667 223.65944444444443 l 115.8 215.44 l 120.11666666666666 207.3127777777778 l 124.66666666666667 199.2777777777778 l 129.45 191.335 l 134.46666666666664 183.48444444444448 l 139.71666666666667 175.7261111111111 l 145.20000000000002 168.06 l 150.91666666666669 160.48611111111111 l 156.86666666666667 153.00444444444443 l 163.05 145.615 l 169.4666666666667 138.31777777777776 l 176.11666666666667 131.11277777777778 l 183 124 l 190.04666666666665 117.0511111111111 l 197.1866666666667 110.33777777777777 l 204.42000000000002 103.86000000000001 l 211.74666666666667 97.61777777777777 l 219.16666666666669 91.61111111111113 l 226.68000000000004 85.84000000000002 l 234.28666666666663 80.30444444444444 l 241.98666666666668 75.00444444444447 l 249.78 69.94 l 257.6666666666667 65.11111111111111 l 265.64666666666665 60.51777777777777 l 273.72 56.160000000000004 l 281.88666666666666 52.03777777777777 l 290.14666666666665 48.15111111111111 l 298.5 44.5 l 306.94666666666666 41.08444444444444 l 315.4866666666667 37.90444444444445 l 324.12 34.96 l 332.8466666666667 32.251111111111115 l 341.66666666666663 29.77777777777778 l 350.58 27.540000000000006 l 359.58666666666664 25.53777777777778 l 368.68666666666667 23.77111111111111 l 377.88 22.24 l 387.1666666666667 20.944444444444443 l 396.5466666666667 19.884444444444444 l 406.02 19.060000000000002 l 415.58666666666664 18.471111111111114 l 425.2466666666666 18.11777777777778 l 435 18 l 435 18 l 440.4733333333333 18.046666666666667 l 445.96 18.186666666666667 l 451.46000000000004 18.42 l 456.9733333333333 18.746666666666666 l 462.5 19.166666666666668 l 468.04 19.680000000000007 l 473.59333333333325 20.28666666666666 l 479.1600000000001 20.986666666666668 l 484.73999999999995 21.779999999999998 l 490.3333333333334 22.666666666666664 l 495.93999999999994 23.64666666666666 l 501.56 24.720000000000002 l 507.1933333333333 25.886666666666667 l 512.84 27.14666666666667 l 518.5 28.5 l 524.1733333333334 29.946666666666665 l 529.8599999999999 31.486666666666665 l 535.56 33.12 l 541.2733333333333 34.846666666666664 l 547 36.666666666666664 l 552.74 38.58 l 558.4933333333333 40.58666666666666 l 564.26 42.686666666666675 l 570.0400000000001 44.88 l 575.8333333333333 47.16666666666667 l 581.64 49.54666666666667 l 587.46 52.02 l 593.2933333333333 54.58666666666667 l 599.14 57.24666666666666 l 605 60 l 605 60 l 605 286 z"},"H":{"x_min":75,"x_max":655,"ha":730,"o":"m 622 315 l 622 750 l 655 750 l 655 0 l 622 0 l 622 286 l 108 286 l 108 0 l 75 0 l 75 750 l 108 750 l 108 315 l 622 315 z"},"I":{"x_min":80,"x_max":113,"ha":193,"o":"m 80 0 l 80 750 l 113 750 l 113 0 l 80 0 z"},"J":{"x_min":20,"x_max":392,"ha":467,"o":"m 359 721 l 174 721 l 174 750 l 392 750 l 392 230 l 391.93388888888893 222.7788888888889 l 391.73555555555555 215.6488888888889 l 391.40500000000003 208.61 l 390.94222222222226 201.66222222222223 l 390.34722222222223 194.80555555555557 l 389.62000000000006 188.04000000000002 l 388.76055555555547 181.36555555555552 l 387.76888888888897 174.78222222222226 l 386.645 168.29 l 385.3888888888889 161.8888888888889 l 384.00055555555554 155.57888888888888 l 382.47999999999996 149.35999999999999 l 380.8272222222222 143.2322222222222 l 379.0422222222222 137.19555555555556 l 377.125 131.25 l 375.0755555555556 125.39555555555556 l 372.8938888888889 119.63222222222223 l 370.58 113.96 l 368.1338888888889 108.3788888888889 l 365.55555555555554 102.8888888888889 l 362.845 97.49000000000001 l 360.00222222222226 92.18222222222224 l 357.02722222222224 86.96555555555555 l 353.92 81.84 l 350.68055555555554 76.80555555555554 l 347.3088888888889 71.86222222222221 l 343.80500000000006 67.00999999999999 l 340.1688888888889 62.248888888888885 l 336.40055555555557 57.57888888888888 l 332.5 53 l 328.4927777777778 48.54222222222222 l 324.40444444444444 44.23555555555556 l 320.235 40.08 l 315.9844444444445 36.07555555555556 l 311.6527777777778 32.22222222222223 l 307.24000000000007 28.520000000000007 l 302.7461111111111 24.968888888888888 l 298.17111111111114 21.568888888888896 l 293.515 18.319999999999993 l 288.7777777777778 15.222222222222227 l 283.95944444444444 12.275555555555556 l 279.06 9.479999999999999 l 274.07944444444445 6.835555555555555 l 269.0177777777778 4.342222222222221 l 263.875 2 l 258.65111111111105 -0.1911111111111099 l 253.3461111111111 -2.231111111111109 l 247.96 -4.1199999999999966 l 242.4927777777778 -5.857777777777776 l 236.94444444444446 -7.444444444444443 l 231.315 -8.879999999999999 l 225.60444444444448 -10.164444444444442 l 219.8127777777778 -11.29777777777778 l 213.94 -12.280000000000001 l 207.98611111111111 -13.111111111111112 l 201.95111111111112 -13.79111111111111 l 195.83499999999998 -14.32 l 189.63777777777776 -14.697777777777778 l 183.35944444444442 -14.924444444444443 l 177 -15 l 177 -15 l 167 -15 l 161.68111111111108 -14.936666666666666 l 156.39111111111112 -14.746666666666668 l 151.13 -14.430000000000001 l 145.89777777777778 -13.986666666666668 l 140.69444444444446 -13.41666666666667 l 135.52000000000004 -12.720000000000002 l 130.37444444444446 -11.896666666666667 l 125.2577777777778 -10.946666666666669 l 120.16999999999997 -9.87 l 115.11111111111114 -8.66666666666667 l 110.0811111111111 -7.336666666666667 l 105.08 -5.879999999999996 l 100.10777777777778 -4.296666666666666 l 95.16444444444444 -2.586666666666668 l 90.25 -0.75 l 85.36444444444443 1.213333333333333 l 80.50777777777778 3.303333333333331 l 75.68 5.52 l 70.88111111111112 7.86333333333333 l 66.11111111111111 10.33333333333333 l 61.370000000000005 12.929999999999996 l 56.65777777777779 15.653333333333327 l 51.974444444444444 18.503333333333337 l 47.32 21.480000000000008 l 42.69444444444444 24.58333333333334 l 38.09777777777777 27.81333333333334 l 33.53 31.170000000000005 l 28.99111111111111 34.653333333333336 l 24.48111111111111 38.26333333333333 l 20 42 l 20 42 l 20 83 l 24.227777777777778 78.47666666666666 l 28.511111111111116 74.10666666666667 l 32.85 69.89 l 37.24444444444445 65.82666666666667 l 41.69444444444445 61.91666666666667 l 46.20000000000001 58.16000000000001 l 50.76111111111111 54.556666666666665 l 55.37777777777778 51.10666666666668 l 60.05 47.809999999999995 l 64.77777777777779 44.66666666666667 l 69.5611111111111 41.67666666666667 l 74.4 38.84 l 79.29444444444445 36.15666666666666 l 84.24444444444444 33.626666666666665 l 89.25 31.25 l 94.3111111111111 29.026666666666667 l 99.42777777777776 26.956666666666667 l 104.6 25.040000000000003 l 109.82777777777777 23.27666666666667 l 115.11111111111111 21.666666666666668 l 120.44999999999999 20.21 l 125.84444444444443 18.90666666666667 l 131.29444444444445 17.756666666666664 l 136.8 16.759999999999998 l 142.36111111111111 15.916666666666666 l 147.97777777777776 15.226666666666667 l 153.65 14.69 l 159.3777777777778 14.306666666666667 l 165.1611111111111 14.076666666666664 l 171 14 l 176.82444444444442 14.06611111111111 l 182.56444444444446 14.264444444444445 l 188.22000000000003 14.594999999999999 l 193.79111111111112 15.057777777777778 l 199.2777777777778 15.652777777777779 l 204.68000000000006 16.380000000000003 l 209.99777777777774 17.239444444444445 l 215.23111111111112 18.23111111111111 l 220.38 19.354999999999997 l 225.44444444444446 20.611111111111114 l 230.4244444444444 21.999444444444443 l 235.32 23.520000000000003 l 240.1311111111111 25.172777777777778 l 244.8577777777778 26.95777777777778 l 249.5 28.875 l 254.0577777777778 30.924444444444443 l 258.5311111111111 33.106111111111105 l 262.92 35.42 l 267.22444444444443 37.86611111111111 l 271.44444444444446 40.44444444444444 l 275.58 43.154999999999994 l 279.6311111111111 45.99777777777777 l 283.59777777777776 48.97277777777778 l 287.48 52.080000000000005 l 291.2777777777778 55.31944444444445 l 294.99111111111114 58.69111111111111 l 298.62 62.195 l 302.1644444444444 65.83111111111111 l 305.62444444444446 69.59944444444443 l 309 73.5 l 312.2777777777778 77.50388888888888 l 315.44444444444446 81.58222222222223 l 318.5 85.73500000000001 l 321.44444444444446 89.96222222222224 l 324.2777777777778 94.26388888888889 l 327.0000000000001 98.64000000000003 l 329.6111111111111 103.09055555555554 l 332.1111111111112 107.61555555555556 l 334.49999999999994 112.215 l 336.7777777777778 116.8888888888889 l 338.94444444444446 121.6372222222222 l 341 126.46000000000001 l 342.94444444444446 131.35722222222222 l 344.77777777777777 136.3288888888889 l 346.5 141.375 l 348.1111111111111 146.49555555555554 l 349.6111111111111 151.69055555555553 l 351 156.95999999999998 l 352.27777777777777 162.30388888888888 l 353.44444444444446 167.72222222222223 l 354.5 173.21499999999997 l 355.44444444444446 178.78222222222223 l 356.27777777777777 184.4238888888889 l 357 190.14000000000001 l 357.61111111111114 195.93055555555554 l 358.1111111111111 201.79555555555555 l 358.5 207.73499999999999 l 358.77777777777777 213.7488888888889 l 358.94444444444446 219.8372222222222 l 359 226 l 359 226 l 359 721 z"},"K":{"x_min":75,"x_max":552,"ha":572,"o":"m 75 0 l 75 750 l 107 750 l 107 475 l 424 750 l 464 750 l 121 451 l 552 0 l 508 0 l 108 417 l 108 0 l 75 0 z"},"L":{"x_min":75,"x_max":340,"ha":360,"o":"m 75 750 l 108 750 l 108 29 l 340 29 l 340 0 l 75 0 l 75 750 z"},"M":{"x_min":75,"x_max":844,"ha":919,"o":"m 798 750 l 844 750 l 844 0 l 811 0 l 811 711 l 457 -14 l 105 711 l 105 0 l 75 0 l 75 750 l 123 750 l 460 58 l 798 750 z"},"N":{"x_min":75,"x_max":656,"ha":731,"o":"m 627 83 l 627 750 l 656 750 l 656 -11 l 104 668 l 104 0 l 75 0 l 75 761 l 627 83 z"}}}
